<svg id="app-support" xmlns="http://www.w3.org/2000/svg" version="1.1" x="0" y="0" width="61.5" height="62.8" viewBox="0 0 61.5 62.8" enable-background="new 0 0 61.5 62.8436" xml:space="preserve"><path fill="none" stroke="currentColor" stroke-width="1.5" stroke-linecap="round" stroke-linejoin="round" stroke-miterlimit="10" d="M42.8 62.1H18.7c-2.2 0-4-1.8-4-4V4.8c0-2.2 1.8-4 4-4h24.2c2.2 0 4 1.8 4 4v53.3C46.8 60.3 45 62.1 42.8 62.1z"></path><line fill="none" stroke="currentColor" stroke-width="1.5" stroke-linecap="round" stroke-linejoin="round" stroke-miterlimit="10" x1="14.7" y1="50.8" x2="46.8" y2="50.8"></line><circle fill="none" stroke="currentColor" stroke-width="1.5" stroke-linecap="round" stroke-linejoin="round" stroke-miterlimit="10" cx="30.8" cy="56.3" r="2.7"></circle><path fill="none" stroke="currentColor" stroke-width="1.5" stroke-linecap="round" stroke-linejoin="round" stroke-miterlimit="10" d="M33.6 6.8h-5.6c-0.3 0-0.5-0.2-0.5-0.5V5.4c0-0.3 0.2-0.5 0.5-0.5h5.6c0.3 0 0.5 0.2 0.5 0.5V6.3C34.1 6.6 33.9 6.8 33.6 6.8z"></path><path fill="none" stroke="currentColor" stroke-width="1.5" stroke-linecap="round" stroke-linejoin="round" stroke-miterlimit="10" d="M24.9 20.4c-1.7 0.8-3.6 2.7-2.4 4.2 1.2 1.4 5.6 2.4 8.7 1.9 3.1-0.5 2.5-4.1 4-4.9 1-0.6 3.6-0.9 4.3-1.4 0.4-0.3-0.9-1.3-1.4-1.5 -1-0.4-4.2-0.3-6.3-0.1C28.5 18.8 26.6 19.6 24.9 20.4zM39.6 20.1l-0.2 3.1c0 0-2.3 0.7-3 1.1 -1.3 0.8-0.7 2.3-1.9 3.5 -0.7 0.7-3.1 2.2-6.1 1.9 -2.9-0.3-6-1.3-6.3-2.2 -0.3-0.9 0-4.2 0-4.2M33.4 20.4c-0.7 0.1-3.9 0.3-5.5 1.8 -0.6 0.5-3.2 0.3-3.2 0.3M28.3 23.7c0.1 0.3 0.5 0.9 1 1.2"></path><circle fill="none" stroke="currentColor" stroke-width="1.5" stroke-linecap="round" stroke-linejoin="round" stroke-miterlimit="10" cx="23.5" cy="37.8" r="1.8"></circle><circle fill="none" stroke="currentColor" stroke-width="1.5" stroke-linecap="round" stroke-linejoin="round" stroke-miterlimit="10" cx="30.9" cy="37.8" r="1.8"></circle><circle fill="none" stroke="currentColor" stroke-width="1.5" stroke-linecap="round" stroke-linejoin="round" stroke-miterlimit="10" cx="38.2" cy="37.8" r="1.8"></circle><path fill="none" stroke="currentColor" stroke-width="1.5" stroke-linecap="round" stroke-linejoin="round" stroke-miterlimit="10" d="M10.7 9.1C4.6 14.6 0.8 22.6 0.8 31.4s3.8 16.8 9.9 22.3M50.8 53.7c6.1-5.5 9.9-13.4 9.9-22.3s-3.8-16.8-9.9-22.3"></path></svg>
