<svg xmlns="http://www.w3.org/2000/svg" version="1.1" x="0" y="0" width="164.4" height="201.3" viewBox="0 0 164.4 201.3" enable-background="new 0 0 164.4 201.3" xml:space="preserve"><path fill="currentColor" d="M148.2 181.7h-38.1c-5.1 0-9.3-4.2-9.3-9.3V76.7c0-5.1 4.2-9.3 9.3-9.3h38.1c5.1 0 9.3 4.2 9.3 9.3v95.7C157.5 177.6 153.3 181.7 148.2 181.7zM110.1 68.4c-4.6 0-8.3 3.7-8.3 8.3v95.7c0 4.6 3.7 8.3 8.3 8.3h38.1c4.6 0 8.3-3.7 8.3-8.3V76.7c0-4.6-3.7-8.3-8.3-8.3H110.1zM153.2 168H105c-0.3 0-0.5-0.2-0.5-0.5V81.8c0-0.3 0.2-0.5 0.5-0.5h48.2c0.3 0 0.5 0.2 0.5 0.5v85.7C153.7 167.7 153.5 168 153.2 168zM105.5 167h47.2V82.3H105.5V167zM133.2 74.5c0.3 0 0.5 0.2 0.5 0.5 0 0.3-0.2 0.5-0.5 0.5h-8.1c-0.3 0-0.5-0.2-0.5-0.5 0-0.3 0.2-0.5 0.5-0.5H133.2L133.2 74.5zM133.2 73.5h-8.1c-0.8 0-1.5 0.7-1.5 1.5 0 0.8 0.7 1.5 1.5 1.5h8.1c0.8 0 1.5-0.7 1.5-1.5C134.6 74.2 134 73.5 133.2 73.5L133.2 73.5zM129.1 178.1c-2.4 0-4.4-2-4.4-4.4s2-4.4 4.4-4.4c2.4 0 4.4 2 4.4 4.4S131.5 178.1 129.1 178.1zM129.1 170.3c-1.9 0-3.4 1.5-3.4 3.4s1.5 3.4 3.4 3.4c1.9 0 3.4-1.5 3.4-3.4S131 170.3 129.1 170.3z"/><path fill="currentColor" d="M144.6 62.2c-0.1 0-0.1 0-0.2 0 -0.2-0.1-0.3-0.3-0.3-0.5v-7.8H99.4c-3 0-5.5-2.5-5.5-5.5v-23c0-3 2.5-5.5 5.5-5.5h59.5c3.1 0 5.5 2.5 5.5 5.5v23c0 3.1-2.5 5.5-5.5 5.5h-5l-8.9 8.2C144.8 62.2 144.7 62.2 144.6 62.2zM99.4 20.8c-2.5 0-4.5 2-4.5 4.5v23c0 2.5 2 4.5 4.5 4.5h45.2c0.3 0 0.5 0.2 0.5 0.5v7.2l8.2-7.5c0.1-0.1 0.2-0.1 0.3-0.1h5.2c2.5 0 4.5-2 4.5-4.5v-23c0-2.5-2-4.5-4.5-4.5H99.4z"/><path fill="currentColor" d="M100.7 31.6c0-2 1.5-3.3 3.3-3.3 1.8 0 2.7 1.1 2.9 2.1l-1.2 0.4c-0.1-0.6-0.6-1.3-1.8-1.3 -0.9 0-2 0.7-2 2.1 0 1.4 1 2.1 2 2.1 1.1 0 1.6-0.7 1.8-1.3l1.2 0.4c-0.2 1-1.2 2.2-2.9 2.2C102.2 34.9 100.7 33.6 100.7 31.6zM108.8 32.2l1.1-0.2c0.3 0 0.3-0.2 0.3-0.3 0-0.3-0.2-0.6-0.7-0.6 -0.5 0-0.8 0.3-0.8 0.7l-1.1-0.2c0.1-0.7 0.7-1.5 1.9-1.5 1.4 0 1.9 0.8 1.9 1.7v2.2c0 0.2 0 0.6 0.1 0.7h-1.1c0-0.1 0-0.4 0-0.5 -0.2 0.4-0.6 0.7-1.3 0.7 -0.9 0-1.5-0.6-1.5-1.3C107.4 32.7 108 32.3 108.8 32.2zM110.2 33v-0.2l-1 0.2c-0.3 0-0.5 0.2-0.5 0.6 0 0.3 0.2 0.5 0.6 0.5C109.7 34 110.2 33.7 110.2 33zM113.8 34.7h-1.2v-4.4h1.2v0.6c0.3-0.5 0.8-0.7 1.3-0.7 1.1 0 1.6 0.8 1.6 1.8v2.8h-1.2v-2.6c0-0.5-0.2-0.9-0.8-0.9 -0.5 0-0.8 0.4-0.8 0.9V34.7zM120.3 36.5l1-2.3 -1.9-3.9h1.3l1.2 2.6 1.1-2.6h1.3l-2.8 6.2H120.3zM129.2 32.5c0 1.4-1 2.4-2.3 2.4 -1.3 0-2.3-1-2.3-2.3 0-1.4 1-2.3 2.3-2.3C128.2 30.2 129.2 31.2 129.2 32.5zM128 32.5c0-0.8-0.5-1.3-1.1-1.3 -0.6 0-1.1 0.4-1.1 1.3 0 0.8 0.5 1.3 1.1 1.3C127.4 33.8 128 33.4 128 32.5zM133 34.3c-0.2 0.4-0.8 0.6-1.2 0.6 -1.1 0-1.7-0.8-1.7-1.7v-2.8h1.2v2.6c0 0.5 0.3 0.9 0.8 0.9 0.5 0 0.8-0.4 0.8-0.9v-2.6h1.2v3.6c0 0.3 0 0.7 0.1 0.8H133C133 34.7 133 34.5 133 34.3zM138.8 34.7h-1.2v-6.5h1.2v2.5c0.3-0.3 0.8-0.5 1.2-0.5 1.1 0 1.7 0.8 1.7 1.8v2.8h-1.2v-2.6c0-0.5-0.2-0.9-0.8-0.9 -0.5 0-0.8 0.4-0.8 0.9V34.7zM146.8 33.5c-0.2 0.8-0.9 1.4-2 1.4 -1.2 0-2.3-0.9-2.3-2.4 0-1.4 1-2.3 2.2-2.3 1.4 0 2.2 0.9 2.2 2.3 0 0.2 0 0.4 0 0.4h-3.2c0 0.6 0.5 1 1.1 1 0.6 0 0.9-0.3 1-0.7L146.8 33.5zM145.7 32c0-0.4-0.3-0.9-1-0.9 -0.6 0-1 0.5-1 0.9H145.7zM148.9 32.2l1.1-0.2c0.3 0 0.3-0.2 0.3-0.3 0-0.3-0.2-0.6-0.7-0.6 -0.5 0-0.8 0.3-0.8 0.7l-1.1-0.2c0.1-0.7 0.7-1.5 1.9-1.5 1.4 0 1.9 0.8 1.9 1.7v2.2c0 0.2 0 0.6 0.1 0.7h-1.1c0-0.1 0-0.4 0-0.5 -0.2 0.4-0.6 0.7-1.3 0.7 -0.9 0-1.5-0.6-1.5-1.3C147.6 32.7 148.2 32.3 148.9 32.2zM150.3 33v-0.2l-1 0.2c-0.3 0-0.5 0.2-0.5 0.6 0 0.3 0.2 0.5 0.6 0.5C149.8 34 150.3 33.7 150.3 33zM155.4 31.5c-0.1 0-0.2 0-0.4 0 -0.6 0-1.1 0.3-1.1 1.3v2h-1.2v-4.4h1.2v0.7c0.3-0.6 0.9-0.7 1.3-0.7 0.1 0 0.2 0 0.3 0V31.5zM109.6 43.7v-4.4h1.1v0.5c0.2-0.4 0.8-0.7 1.3-0.7 0.6 0 1.1 0.3 1.3 0.7 0.4-0.5 0.8-0.7 1.4-0.7 0.8 0 1.6 0.5 1.6 1.7v2.9h-1.2v-2.6c0-0.5-0.2-0.8-0.8-0.8 -0.5 0-0.8 0.4-0.8 0.9v2.6h-1.2v-2.6c0-0.5-0.2-0.8-0.8-0.8 -0.5 0-0.8 0.4-0.8 0.9v2.6H109.6zM121.6 42.5c-0.2 0.8-0.9 1.4-2 1.4 -1.2 0-2.3-0.9-2.3-2.4 0-1.4 1-2.3 2.2-2.3 1.4 0 2.2 0.9 2.2 2.3 0 0.2 0 0.4 0 0.4h-3.2c0 0.6 0.5 1 1.1 1 0.6 0 0.9-0.3 1-0.7L121.6 42.5zM120.5 41c0-0.4-0.3-0.9-1-0.9 -0.6 0-1 0.5-1 0.9H120.5zM126 43.7h-1.2v-4.4h1.2v0.6c0.3-0.5 0.8-0.7 1.3-0.7 1.1 0 1.6 0.8 1.6 1.8v2.8h-1.2v-2.6c0-0.5-0.2-0.9-0.8-0.9 -0.5 0-0.8 0.4-0.8 0.9V43.7zM134.4 41.5c0 1.4-1 2.4-2.3 2.4 -1.3 0-2.3-1-2.3-2.3 0-1.4 1-2.3 2.3-2.3C133.4 39.2 134.4 40.2 134.4 41.5zM133.2 41.5c0-0.8-0.5-1.3-1.1-1.3 -0.6 0-1.1 0.4-1.1 1.3 0 0.8 0.5 1.3 1.1 1.3C132.6 42.8 133.2 42.4 133.2 41.5zM139 39.3l1 2.9 0.8-2.8h1.2l-1.4 4.4h-1.2l-1-3 -1 3h-1.2l-1.4-4.4h1.3l0.8 2.8 1-2.8H139zM143.9 41.8c0-0.1 0-0.2 0-0.4 0-0.5 0.2-0.9 0.7-1.3L145 39.8c0.3-0.2 0.4-0.4 0.4-0.7 0-0.4-0.3-0.8-0.9-0.8 -0.6 0-0.9 0.5-0.9 1 0 0.1 0 0.2 0 0.3l-1.1 0c0-0.1 0-0.3 0-0.4 0-1 0.7-1.9 2.1-1.9 1.4 0 2.1 0.9 2.1 1.8 0 0.7-0.4 1.2-0.9 1.6l-0.4 0.3c-0.3 0.2-0.5 0.5-0.5 0.9v0.1H143.9zM144.4 42.4c0.4 0 0.7 0.3 0.7 0.7 0 0.4-0.3 0.7-0.7 0.7s-0.7-0.3-0.7-0.7C143.7 42.7 144 42.4 144.4 42.4z"/><path fill="currentColor" d="M46.9 47.4c-0.1 0-0.2 0-0.3-0.1l-10.5-9.7H6.4C2.9 37.6 0 34.7 0 31.2V6.4C0 2.9 2.9 0 6.4 0h46.6c3.6 0 6.4 2.9 6.4 6.4v24.8c0 3.6-2.9 6.4-6.4 6.4h-5.6v9.3c0 0.2-0.1 0.4-0.3 0.5C47 47.4 46.9 47.4 46.9 47.4zM6.4 1C3.4 1 1 3.4 1 6.4v24.8c0 3 2.4 5.4 5.4 5.4h29.8c0.1 0 0.3 0.1 0.3 0.1l9.9 9v-8.7c0-0.3 0.2-0.5 0.5-0.5h6.1c3 0 5.4-2.4 5.4-5.4V6.4c0-3-2.4-5.4-5.4-5.4H6.4z"/><path fill="currentColor" d="M19.8 22.6v-3.1h-3.3v3.1h-1.5v-7.5h1.5v3h3.3v-3h1.5v7.5H19.8zM27.5 21.1c-0.3 0.9-1.1 1.7-2.4 1.7 -1.4 0-2.7-1-2.7-2.8 0-1.7 1.2-2.7 2.6-2.7 1.6 0 2.6 1 2.6 2.7 0 0.2 0 0.4 0 0.4h-3.7c0 0.7 0.6 1.2 1.3 1.2 0.7 0 1-0.3 1.2-0.8L27.5 21.1zM26.2 19.4c0-0.5-0.4-1-1.2-1 -0.7 0-1.1 0.6-1.2 1H26.2zM28.7 22.6v-7.7h1.4v7.7H28.7zM31.6 22.6v-7.7h1.4v7.7H31.6zM39.6 20c0 1.6-1.2 2.8-2.7 2.8s-2.7-1.2-2.7-2.8c0-1.6 1.2-2.8 2.7-2.8S39.6 18.4 39.6 20zM38.2 20c0-1-0.6-1.5-1.3-1.5s-1.3 0.5-1.3 1.5c0 1 0.6 1.5 1.3 1.5S38.2 21 38.2 20zM41.7 20.4c0-0.1 0-0.3 0-0.4 0-0.6 0.2-1.1 0.8-1.5l0.5-0.4c0.3-0.2 0.5-0.5 0.5-0.8 0-0.5-0.3-1-1.1-1 -0.7 0-1.1 0.6-1.1 1.2 0 0.1 0 0.2 0 0.3l-1.3 0C40 17.5 40 17.4 40 17.2c0-1.1 0.9-2.2 2.4-2.2 1.6 0 2.5 1 2.5 2.1 0 0.8-0.4 1.4-1 1.9l-0.4 0.3c-0.4 0.3-0.6 0.6-0.6 1v0.1H41.7zM42.3 21c0.5 0 0.9 0.4 0.9 0.9s-0.4 0.8-0.8 0.8c-0.5 0-0.8-0.4-0.8-0.8S41.9 21 42.3 21z"/><path fill="none" stroke="currentColor" stroke-linecap="round" stroke-linejoin="round" stroke-miterlimit="10" d="M32.4 56.8c0-1.1 0-2.3 0.7-3.1 0.6-0.8 1.6-1.2 2.5-1.5 1-0.4 2-0.6 3-0.8 2.1-0.4 4.3-0.5 6.5-0.5 1.2 0 2.4 0.1 3.7 0.2 2.1 0.2 4.2 0.5 6.1 1.3 0.9 0.4 1.8 0.9 2.3 1.7 0.5 0.8 0.5 1.9 0.5 2.8"/><ellipse fill="none" stroke="currentColor" stroke-linecap="round" stroke-linejoin="round" stroke-miterlimit="10" cx="44.9" cy="54.2" rx="4.1" ry="1.1"/><path fill="none" stroke="currentColor" stroke-linecap="round" stroke-linejoin="round" stroke-miterlimit="10" d="M57.5 61.4c0 1.9-5.6 3.4-12.6 3.4s-12.6-1.5-12.6-3.4"/><circle fill="none" stroke="currentColor" stroke-linecap="round" stroke-linejoin="round" stroke-miterlimit="10" cx="44.9" cy="60.8" r="0.8"/><line fill="none" stroke="currentColor" stroke-linecap="round" stroke-linejoin="round" stroke-miterlimit="10" x1="32.4" y1="191" x2="32.4" y2="61.2"/><line fill="none" stroke="currentColor" stroke-linecap="round" stroke-linejoin="round" stroke-miterlimit="10" x1="32.4" y1="61.2" x2="32.4" y2="56.8"/><path fill="none" stroke="currentColor" stroke-linecap="round" stroke-linejoin="round" stroke-miterlimit="10" d="M57.5 191c0 2-5.6 3.6-12.5 3.6s-12.6-1.6-12.6-3.6"/><line fill="none" stroke="currentColor" stroke-linecap="round" stroke-linejoin="round" stroke-miterlimit="10" x1="57.5" y1="195.2" x2="57.5" y2="197.3"/><line fill="none" stroke="currentColor" stroke-linecap="round" stroke-linejoin="round" stroke-miterlimit="10" x1="32.4" y1="195.2" x2="32.4" y2="197.3"/><path fill="none" stroke="currentColor" stroke-linecap="round" stroke-linejoin="round" stroke-miterlimit="10" d="M57.5 197.3c0 1.9-5.6 3.5-12.5 3.5s-12.5-1.6-12.5-3.5"/><line fill="none" stroke="currentColor" stroke-linecap="round" stroke-linejoin="round" stroke-miterlimit="10" x1="57.5" y1="191" x2="57.5" y2="56.8"/><path fill="none" stroke="currentColor" stroke-linecap="round" stroke-linejoin="round" stroke-miterlimit="10" d="M55.1 193.1c1.5 0.6 2.4 1.2 2.4 2 0 1.9-5.6 3.4-12.5 3.4s-12.5-1.5-12.5-3.3c0-0.7 0.9-1.4 2.4-2"/><path fill="none" stroke="currentColor" stroke-linecap="round" stroke-linejoin="round" stroke-miterlimit="10" d="M45.7 162.2h-1.5c-0.6 0-1.1-0.5-1.1-1.1v-8.5c0-0.6 0.5-1.1 1.1-1.1h1.5c0.6 0 1.1 0.5 1.1 1.1v8.5C46.8 161.7 46.3 162.2 45.7 162.2z"/></svg>
