<svg xmlns="http://www.w3.org/2000/svg" xmlns:xlink="http://www.w3.org/1999/xlink" xmlns:a="http://ns.adobe.com/AdobeSVGViewerExtensions/3.0/" version="1.1" x="0" y="0" width="201" height="193.59" viewBox="0 0 201 193.59" enable-background="new 0 0 201 193.59" xml:space="preserve">
  <path fill="currentColor" d="M19.8 40.4c-0.12 0-0.24-0.05-0.34-0.13l-8.92-8.19h-5C2.48 32.08 0 29.6 0 26.54v-21C0 2.48 2.48 0 5.54 0h39.5c3.05 0 5.54 2.48 5.54 5.54v21c0 3.05-2.49 5.54-5.54 5.54H20.3v7.82c0 0.2-0.12 0.38-0.3 0.46C19.94 40.39 19.87 40.4 19.8 40.4zM5.54 1C3.04 1 1 3.04 1 5.54v21c0 2.5 2.04 4.54 4.54 4.54h5.2c0.12 0 0.25 0.05 0.34 0.13l8.23 7.55v-7.18c0-0.28 0.22-0.5 0.5-0.5h25.24c2.5 0 4.54-2.04 4.54-4.54v-21c0-2.5-2.04-4.54-4.54-4.54H5.54z"/>
  <path fill="currentColor" d="M23.84 23.88c-0.07 0-0.15-0.02-0.22-0.05 -2.7-1.31-5.07-3.28-6.86-5.7l-0.19-0.26c-0.93-1.32-1.47-2.87-1.58-4.48 -0.01-0.2-0.02-0.4-0.02-0.61 0-0.2 0.01-0.41 0.02-0.61 0.32-2.72 2.61-4.76 5.33-4.76 1.48 0 2.86 0.59 3.89 1.67 0.19 0.2 0.18 0.51-0.01 0.7l-1.07 1.07 1.13 1.13c0.2 0.2 0.2 0.51 0 0.71l-1.34 1.34 1.63 1.63c0.09 0.09 0.15 0.22 0.15 0.35s-0.05 0.26-0.15 0.35l-1.44 1.44 1.55 1.54c0.09 0.09 0.15 0.22 0.15 0.35s-0.05 0.26-0.15 0.35l-0.81 0.81 0.48 2.41c0.04 0.19-0.03 0.38-0.18 0.49C24.06 23.85 23.95 23.88 23.84 23.88zM20.31 8.42c-2.21 0-4.07 1.65-4.33 3.85 -0.01 0.15-0.02 0.33-0.02 0.52 0 0.18 0.01 0.36 0.02 0.54 0.1 1.43 0.58 2.8 1.4 3.97l0.18 0.25c1.49 2.01 3.41 3.69 5.58 4.91l-0.33-1.65c-0.03-0.16 0.02-0.33 0.14-0.45l0.65-0.65 -1.55-1.54c-0.09-0.09-0.15-0.22-0.15-0.35s0.05-0.26 0.15-0.35l1.44-1.44 -1.63-1.63c-0.09-0.09-0.15-0.22-0.15-0.35s0.05-0.26 0.15-0.35l1.34-1.34 -1.13-1.13c-0.2-0.2-0.2-0.51 0-0.71l1.06-1.06C22.34 8.78 21.36 8.42 20.31 8.42z"/>
  <path fill="currentColor" d="M26.74 23.88c-0.07 0-0.15-0.02-0.22-0.05 -0.14-0.07-0.24-0.19-0.27-0.34l-0.59-2.67c-0.04-0.17 0.01-0.34 0.13-0.46l0.65-0.65 -1.54-1.54c-0.2-0.2-0.2-0.51 0-0.71l1.44-1.44 -1.58-1.63c-0.18-0.19-0.19-0.49-0.01-0.69l1.25-1.35 -1.04-1.14c-0.18-0.2-0.17-0.5 0.01-0.69l1.41-1.42c1.02-1.07 2.4-1.66 3.88-1.66 2.72 0 5.01 2.03 5.33 4.73 0.02 0.23 0.02 0.43 0.02 0.63 0 0.2-0.01 0.41-0.02 0.61 -0.11 1.61-0.65 3.15-1.58 4.47l-0.15 0.2c-1.84 2.48-4.22 4.45-6.91 5.76C26.89 23.87 26.82 23.88 26.74 23.88zM26.7 20.87l0.39 1.77c2.32-1.23 4.36-2.99 5.93-5.1l0.18-0.25c0.81-1.17 1.3-2.54 1.39-3.96 0.01-0.18 0.02-0.36 0.02-0.54 0-0.18-0.01-0.36-0.02-0.54 -0.26-2.17-2.12-3.82-4.33-3.82 -1.21 0-2.33 0.48-3.16 1.36l-1.08 1.09L27.05 12c0.17 0.19 0.17 0.48 0 0.68l-1.24 1.34 1.6 1.65c0.19 0.2 0.19 0.51-0.01 0.7l-1.44 1.44 1.54 1.54c0.2 0.2 0.2 0.51 0 0.71L26.7 20.87z"/>
  <path fill="currentColor" d="M184.76 179.01h-38.11c-5.14 0-9.32-4.18-9.32-9.32V73.99c0-5.14 4.18-9.32 9.32-9.32h38.11c5.14 0 9.32 4.18 9.32 9.32v95.71C194.08 174.83 189.9 179.01 184.76 179.01zM146.65 65.67c-4.59 0-8.32 3.73-8.32 8.32v95.71c0 4.58 3.73 8.32 8.32 8.32h38.11c4.58 0 8.32-3.73 8.32-8.32V73.99c0-4.58-3.73-8.32-8.32-8.32H146.65z"/>
  <path fill="currentColor" d="M189.81 165.22h-48.21c-0.28 0-0.5-0.22-0.5-0.5V79.05c0-0.28 0.22-0.5 0.5-0.5h48.21c0.28 0 0.5 0.22 0.5 0.5v85.68C190.31 165 190.09 165.22 189.81 165.22zM142.11 164.22h47.21V79.55h-47.21V164.22z"/>
  <path fill="currentColor" d="M169.76 71.77c0.26 0 0.46 0.21 0.46 0.46 0 0.26-0.21 0.46-0.46 0.46h-8.1c-0.26 0-0.46-0.21-0.46-0.46 0-0.26 0.21-0.46 0.46-0.46H169.76M169.76 70.77h-8.1c-0.81 0-1.46 0.66-1.46 1.46s0.66 1.46 1.46 1.46h8.1c0.81 0 1.46-0.66 1.46-1.46S170.57 70.77 169.76 70.77L169.76 70.77z"/>
  <path fill="currentColor" d="M165.71 175.36c-2.42 0-4.39-1.97-4.39-4.39s1.97-4.39 4.39-4.39 4.39 1.97 4.39 4.39S168.13 175.36 165.71 175.36zM165.71 167.58c-1.87 0-3.39 1.52-3.39 3.39s1.52 3.39 3.39 3.39 3.39-1.52 3.39-3.39S167.58 167.58 165.71 167.58z"/>
  <path fill="currentColor" d="M181.2 59.51c-0.07 0-0.14-0.01-0.2-0.04 -0.18-0.08-0.3-0.26-0.3-0.46V51.2h-44.74c-3.05 0-5.54-2.49-5.54-5.54v-23c0-3.05 2.49-5.54 5.54-5.54h59.5c3.05 0 5.54 2.48 5.54 5.54v23c0 3.05-2.48 5.54-5.54 5.54h-5l-8.92 8.19C181.44 59.47 181.32 59.51 181.2 59.51zM135.96 18.11c-2.5 0-4.54 2.04-4.54 4.54v23c0 2.5 2.04 4.54 4.54 4.54h45.24c0.28 0 0.5 0.22 0.5 0.5v7.18l8.23-7.55c0.09-0.08 0.21-0.13 0.34-0.13h5.2c2.5 0 4.54-2.04 4.54-4.54v-23c0-2.5-2.04-4.54-4.54-4.54H135.96z"/>
  <path fill="currentColor" d="M159.39 22.82h1.27l-1.76 6.38h-1.28l-1.46-4.55 -1.46 4.55h-1.3l-1.77-6.38h1.31l1.17 4.39 1.41-4.39h1.29l1.42 4.41L159.39 22.82z"/>
  <path fill="currentColor" d="M162.19 26.66l1.09-0.16c0.25-0.04 0.33-0.16 0.33-0.32 0-0.31-0.24-0.58-0.75-0.58 -0.52 0-0.81 0.33-0.85 0.72l-1.06-0.22c0.07-0.69 0.71-1.46 1.9-1.46 1.4 0 1.93 0.79 1.93 1.68v2.18c0 0.23 0.03 0.55 0.05 0.7h-1.1c-0.03-0.12-0.04-0.36-0.04-0.53 -0.23 0.35-0.65 0.66-1.31 0.66 -0.95 0-1.52-0.64-1.52-1.33C160.87 27.21 161.45 26.77 162.19 26.66zM163.61 27.42v-0.2l-1 0.15c-0.31 0.04-0.55 0.22-0.55 0.56 0 0.26 0.19 0.51 0.58 0.51C163.15 28.44 163.61 28.2 163.61 27.42z"/>
  <path fill="currentColor" d="M166.64 27.75c0.03 0.35 0.29 0.67 0.81 0.67 0.4 0 0.58-0.21 0.58-0.44 0-0.2-0.13-0.36-0.48-0.43l-0.58-0.14c-0.86-0.19-1.24-0.7-1.24-1.32 0-0.79 0.7-1.45 1.66-1.45 1.26 0 1.68 0.8 1.74 1.28l-1 0.23c-0.04-0.26-0.23-0.59-0.73-0.59 -0.31 0-0.57 0.19-0.57 0.44 0 0.22 0.16 0.35 0.4 0.4l0.63 0.13c0.87 0.18 1.31 0.71 1.31 1.36 0 0.72-0.56 1.46-1.72 1.46 -1.33 0-1.79-0.86-1.85-1.37L166.64 27.75z"/>
  <path fill="currentColor" d="M172.96 22.58c0.41 0 0.74 0.33 0.74 0.75 0 0.4-0.32 0.73-0.74 0.73 -0.41 0-0.74-0.33-0.74-0.73C172.22 22.91 172.55 22.58 172.96 22.58zM172.36 29.21v-4.43h1.2v4.43H172.36z"/>
  <path fill="currentColor" d="M176.31 24.78h0.89v1.06h-0.89v1.85c0 0.39 0.18 0.51 0.52 0.51 0.14 0 0.31-0.02 0.37-0.04v0.99c-0.11 0.04-0.32 0.11-0.68 0.11 -0.86 0-1.4-0.51-1.4-1.37v-2.06h-0.8v-1.06h0.23c0.47 0 0.68-0.31 0.68-0.7v-0.62h1.08V24.78z"/>
  <path fill="currentColor" d="M141.42 36.75c0.03 0.35 0.29 0.67 0.81 0.67 0.4 0 0.58-0.21 0.58-0.44 0-0.2-0.13-0.36-0.48-0.43l-0.58-0.14c-0.86-0.19-1.24-0.7-1.24-1.32 0-0.79 0.7-1.45 1.66-1.45 1.26 0 1.68 0.8 1.74 1.28l-1 0.23c-0.04-0.26-0.23-0.59-0.73-0.59 -0.31 0-0.57 0.19-0.57 0.44 0 0.22 0.16 0.35 0.4 0.4l0.63 0.13c0.87 0.18 1.31 0.71 1.31 1.36 0 0.72-0.56 1.46-1.72 1.46 -1.33 0-1.79-0.86-1.85-1.37L141.42 36.75z"/>
  <path fill="currentColor" d="M149.22 35.99c0 1.36-1 2.35-2.32 2.35 -1.32 0-2.32-0.99-2.32-2.35 0-1.37 1-2.35 2.32-2.35C148.22 33.64 149.22 34.62 149.22 35.99zM148.02 35.99c0-0.84-0.54-1.26-1.12-1.26 -0.59 0-1.13 0.42-1.13 1.26 0 0.83 0.54 1.26 1.13 1.26C147.48 37.25 148.02 36.83 148.02 35.99z"/>
  <path fill="currentColor" d="M150.16 38.21v-4.43h1.14v0.54c0.24-0.43 0.81-0.67 1.3-0.67 0.6 0 1.09 0.26 1.31 0.74 0.35-0.54 0.82-0.74 1.4-0.74 0.82 0 1.6 0.5 1.6 1.68v2.87h-1.16v-2.63c0-0.48-0.23-0.84-0.78-0.84 -0.51 0-0.82 0.4-0.82 0.87v2.59h-1.19v-2.63c0-0.48-0.24-0.84-0.78-0.84 -0.52 0-0.83 0.39-0.83 0.87v2.59H150.16z"/>
  <path fill="currentColor" d="M162.11 36.94c-0.23 0.77-0.93 1.4-2.02 1.4 -1.22 0-2.29-0.87-2.29-2.37 0-1.41 1.04-2.33 2.18-2.33 1.37 0 2.19 0.87 2.19 2.3 0 0.17-0.02 0.35-0.02 0.37h-3.17c0.03 0.58 0.52 1.01 1.12 1.01 0.56 0 0.86-0.28 1.01-0.67L162.11 36.94zM160.99 35.49c-0.02-0.44-0.31-0.87-0.99-0.87 -0.62 0-0.96 0.47-0.99 0.87H160.99z"/>
  <path fill="currentColor" d="M164.59 33.78h0.89v1.06h-0.89v1.85c0 0.39 0.18 0.51 0.52 0.51 0.14 0 0.31-0.02 0.37-0.04v0.99c-0.11 0.04-0.32 0.11-0.68 0.11 -0.86 0-1.4-0.51-1.4-1.37v-2.06h-0.8v-1.06h0.23c0.47 0 0.68-0.31 0.68-0.7v-0.62h1.08V33.78z"/>
  <path fill="currentColor" d="M167.48 38.21h-1.2v-6.52h1.2v2.46c0.29-0.34 0.77-0.49 1.2-0.49 1.13 0 1.65 0.78 1.65 1.75v2.79h-1.2v-2.58c0-0.5-0.24-0.88-0.82-0.88 -0.5 0-0.8 0.38-0.83 0.86V38.21z"/>
  <path fill="currentColor" d="M172.13 31.58c0.41 0 0.74 0.33 0.74 0.75 0 0.4-0.32 0.73-0.74 0.73 -0.41 0-0.74-0.33-0.74-0.73C171.39 31.91 171.73 31.58 172.13 31.58zM171.54 38.21v-4.43h1.2v4.43H171.54z"/>
  <path fill="currentColor" d="M175.21 38.21h-1.2v-4.43h1.16v0.55c0.27-0.46 0.8-0.67 1.28-0.67 1.1 0 1.6 0.78 1.6 1.75v2.79h-1.2v-2.58c0-0.5-0.24-0.88-0.82-0.88 -0.52 0-0.83 0.41-0.83 0.92V38.21z"/>
  <path fill="currentColor" d="M180.03 38.16c0.08 0.49 0.47 0.84 1.04 0.84 0.76 0 1.18-0.38 1.18-1.23v-0.32c-0.18 0.29-0.59 0.57-1.23 0.57 -1.18 0-2.06-0.91-2.06-2.15 0-1.17 0.85-2.16 2.06-2.16 0.7 0 1.11 0.31 1.26 0.6v-0.52h1.15v3.95c0 1.22-0.66 2.32-2.32 2.32 -1.22 0-2.03-0.76-2.15-1.6L180.03 38.16zM182.27 35.86c0-0.68-0.47-1.12-1.04-1.12 -0.59 0-1.06 0.43-1.06 1.12 0 0.69 0.44 1.12 1.06 1.12C181.83 36.98 182.27 36.54 182.27 35.86z"/>
  <path fill="currentColor" d="M186.95 38.21v-6.38h1.26v6.38H186.95z"/>
  <path fill="currentColor" d="M154.97 45.75c0.03 0.35 0.29 0.67 0.81 0.67 0.4 0 0.58-0.21 0.58-0.44 0-0.2-0.13-0.36-0.48-0.43l-0.58-0.14c-0.86-0.19-1.24-0.7-1.24-1.32 0-0.79 0.7-1.45 1.66-1.45 1.26 0 1.68 0.8 1.74 1.28l-1 0.23c-0.04-0.26-0.23-0.59-0.73-0.59 -0.31 0-0.57 0.19-0.57 0.44 0 0.22 0.16 0.35 0.4 0.4l0.63 0.13c0.87 0.18 1.31 0.71 1.31 1.36 0 0.72-0.56 1.46-1.72 1.46 -1.33 0-1.79-0.86-1.85-1.37L154.97 45.75z"/>
  <path fill="currentColor" d="M159.49 44.66l1.09-0.16c0.25-0.04 0.33-0.16 0.33-0.32 0-0.31-0.24-0.58-0.75-0.58 -0.52 0-0.81 0.33-0.85 0.72l-1.06-0.22c0.07-0.69 0.71-1.46 1.9-1.46 1.4 0 1.93 0.79 1.93 1.68v2.18c0 0.23 0.03 0.55 0.05 0.7h-1.1c-0.03-0.12-0.04-0.36-0.04-0.53 -0.23 0.35-0.65 0.66-1.31 0.66 -0.95 0-1.52-0.64-1.52-1.33C158.16 45.21 158.75 44.77 159.49 44.66zM160.91 45.42v-0.2l-1 0.15c-0.31 0.04-0.55 0.22-0.55 0.56 0 0.26 0.19 0.51 0.58 0.51C160.44 46.44 160.91 46.2 160.91 45.42z"/>
  <path fill="currentColor" d="M163.88 40.58c0.41 0 0.74 0.33 0.74 0.75 0 0.4-0.32 0.73-0.74 0.73 -0.41 0-0.74-0.33-0.74-0.73C163.14 40.91 163.47 40.58 163.88 40.58zM163.28 47.21v-4.43h1.2v4.43H163.28z"/>
  <path fill="currentColor" d="M169.98 46.41c0 0.3 0.02 0.62 0.04 0.8h-1.14c-0.02-0.09-0.04-0.31-0.04-0.51 -0.2 0.35-0.65 0.62-1.24 0.62 -1.26 0-2.16-0.99-2.16-2.33 0-1.3 0.87-2.31 2.12-2.31 0.77 0 1.13 0.31 1.25 0.55v-2.53h1.18V46.41zM167.73 46.24c0.61 0 1.09-0.47 1.09-1.27 0-0.79-0.48-1.23-1.09-1.23s-1.1 0.45-1.1 1.24S167.1 46.24 167.73 46.24z"/>
  <path fill="currentColor" d="M172.39 45.26c-0.02-0.12-0.04-0.23-0.04-0.37 0-0.48 0.2-0.92 0.71-1.31l0.43-0.32c0.27-0.2 0.39-0.44 0.39-0.71 0-0.41-0.3-0.81-0.9-0.81 -0.64 0-0.92 0.51-0.92 1.02 0 0.11 0.01 0.21 0.04 0.29L170.97 43c-0.04-0.13-0.04-0.27-0.04-0.41 0-0.97 0.73-1.91 2.06-1.91 1.4 0 2.12 0.88 2.12 1.79 0 0.71-0.36 1.22-0.89 1.59l-0.37 0.26c-0.31 0.23-0.49 0.5-0.49 0.87v0.05H172.39zM172.9 45.85c0.4 0 0.72 0.32 0.72 0.72 0 0.4-0.32 0.71-0.72 0.71s-0.71-0.32-0.71-0.71C172.19 46.17 172.5 45.85 172.9 45.85z"/>
  <path fill="currentColor" d="M165.71 129.84c-0.07 0-0.15-0.02-0.22-0.05 -0.17-0.08-0.28-0.26-0.28-0.45v-6.47l-3.93 3.11c-0.22 0.17-0.53 0.13-0.7-0.08 -0.17-0.22-0.13-0.53 0.08-0.7l4.24-3.36 -4.24-3.36c-0.22-0.17-0.25-0.49-0.08-0.7s0.49-0.25 0.7-0.08l3.93 3.11v-6.47c0-0.19 0.11-0.37 0.28-0.45 0.17-0.08 0.38-0.06 0.53 0.06l4.74 3.75c0.12 0.09 0.19 0.24 0.19 0.39s-0.07 0.3-0.19 0.39l-4.24 3.36 4.24 3.36c0.12 0.09 0.19 0.24 0.19 0.39s-0.07 0.3-0.19 0.39l-4.74 3.75C165.93 129.81 165.82 129.84 165.71 129.84zM166.21 122.88v5.43l3.43-2.72L166.21 122.88zM166.21 115.38v5.43l3.43-2.72L166.21 115.38z"/>
  <g id="SPLINE_1_">
    <path fill="none" stroke="currentColor" stroke-linecap="round" stroke-linejoin="round" stroke-miterlimit="10" d="M17.56 49.11c0-1.06-0.03-2.26 0.67-3.13 0.61-0.76 1.56-1.22 2.46-1.55 0.96-0.36 1.95-0.6 2.96-0.79 2.14-0.4 4.31-0.53 6.48-0.55 1.22 0.01 2.44 0.05 3.66 0.16 2.06 0.19 4.2 0.51 6.13 1.3 0.88 0.36 1.81 0.87 2.32 1.71 0.5 0.83 0.46 1.91 0.46 2.84"/>
  </g>
  <ellipse fill="none" stroke="currentColor" stroke-linecap="round" stroke-linejoin="round" stroke-miterlimit="10" cx="30.12" cy="46.46" rx="4.09" ry="1.11"/>
  <path fill="none" stroke="currentColor" stroke-linecap="round" stroke-linejoin="round" stroke-miterlimit="10" d="M42.69 53.67c0 1.88-5.62 3.4-12.56 3.4s-12.56-1.52-12.56-3.4"/>
  <circle fill="none" stroke="currentColor" stroke-linecap="round" stroke-linejoin="round" stroke-miterlimit="10" cx="30.12" cy="53.06" r="0.8"/>
  <line fill="none" stroke="currentColor" stroke-linecap="round" stroke-linejoin="round" stroke-miterlimit="10" x1="17.56" y1="183.24" x2="17.56" y2="53.45"/>
  <line fill="none" stroke="currentColor" stroke-linecap="round" stroke-linejoin="round" stroke-miterlimit="10" x1="17.56" y1="53.45" x2="17.56" y2="49.11"/>
  <path fill="none" stroke="currentColor" stroke-linecap="round" stroke-linejoin="round" stroke-miterlimit="10" d="M42.68 183.24c0 1.98-5.61 3.59-12.55 3.59s-12.57-1.61-12.57-3.59"/>
  <line fill="none" stroke="currentColor" stroke-linecap="round" stroke-linejoin="round" stroke-miterlimit="10" x1="42.67" y1="187.44" x2="42.67" y2="189.58"/>
  <line fill="none" stroke="currentColor" stroke-linecap="round" stroke-linejoin="round" stroke-miterlimit="10" x1="17.56" y1="187.44" x2="17.56" y2="189.58"/>
  <path fill="none" stroke="currentColor" stroke-linecap="round" stroke-linejoin="round" stroke-miterlimit="10" d="M42.67 189.58c0 1.94-5.62 3.51-12.55 3.51s-12.55-1.57-12.55-3.51"/>
  <line fill="none" stroke="currentColor" stroke-linecap="round" stroke-linejoin="round" stroke-miterlimit="10" x1="42.69" y1="183.24" x2="42.69" y2="49.11"/>
  <path fill="none" stroke="currentColor" stroke-linecap="round" stroke-linejoin="round" stroke-miterlimit="10" d="M40.24 185.37c1.53 0.56 2.43 1.24 2.43 1.98 0 1.85-5.62 3.35-12.55 3.35s-12.55-1.5-12.55-3.35c0-0.74 0.9-1.43 2.43-1.98"/>
  <path fill="none" stroke="currentColor" stroke-linecap="round" stroke-linejoin="round" stroke-miterlimit="10" d="M30.88 154.53h-1.51c-0.61 0-1.1-0.49-1.1-1.1v-8.54c0-0.61 0.49-1.1 1.1-1.1h1.51c0.61 0 1.1 0.49 1.1 1.1v8.54C31.98 154.04 31.49 154.53 30.88 154.53z"/>
</svg>
