<svg xmlns="http://www.w3.org/2000/svg" version="1.1" x="0" y="0" width="97.7" height="178.1" viewBox="0 0 97.7 178.1" enable-background="new 0 0 97.72 178.12" xml:space="preserve"><path fill="currentColor" d="M45 38H6.6c-3.6 0-6.6-3-6.6-6.6V6.6C0 3 3 0 6.6 0h38.4c3.6 0 6.6 3 6.6 6.6v1.2h9.6c0.2 0 0.4 0.1 0.5 0.3 0.1 0.2 0 0.4-0.1 0.5l-9.9 10.8v12C51.6 35.1 48.7 38 45 38zM6.6 1C3.5 1 1 3.5 1 6.6v24.8c0 3.1 2.5 5.6 5.6 5.6h38.4c3.1 0 5.6-2.5 5.6-5.6V19.2c0-0.1 0.1-0.2 0.1-0.3l9.3-10.1h-8.9c-0.3 0-0.5-0.2-0.5-0.5V6.6c0-3.1-2.5-5.6-5.6-5.6H6.6z"/><path fill="currentColor" d="M15.8 22.2v-3.2h-3.4v3.2h-1.5v-7.7h1.5v3.1h3.4v-3.1h1.5v7.7H15.8zM23.8 20.7c-0.3 0.9-1.1 1.7-2.4 1.7 -1.5 0-2.8-1.1-2.8-2.9 0-1.7 1.3-2.8 2.6-2.8 1.7 0 2.7 1.1 2.7 2.8 0 0.2 0 0.4 0 0.5h-3.8c0 0.7 0.6 1.2 1.4 1.2 0.7 0 1.1-0.3 1.2-0.8L23.8 20.7zM22.4 18.9c0-0.5-0.4-1.1-1.2-1.1 -0.7 0-1.2 0.6-1.2 1.1H22.4zM25 22.2v-7.9h1.5v7.9H25zM28 22.2v-7.9h1.5v7.9H28zM36.2 19.5c0 1.7-1.2 2.8-2.8 2.8s-2.8-1.2-2.8-2.8c0-1.7 1.2-2.8 2.8-2.8S36.2 17.9 36.2 19.5zM34.7 19.5c0-1-0.6-1.5-1.4-1.5 -0.7 0-1.4 0.5-1.4 1.5 0 1 0.7 1.5 1.4 1.5C34.1 21.1 34.7 20.6 34.7 19.5zM38.4 19.9c0-0.1 0-0.3 0-0.4 0-0.6 0.2-1.1 0.9-1.6l0.5-0.4c0.3-0.2 0.5-0.5 0.5-0.9 0-0.5-0.4-1-1.1-1 -0.8 0-1.1 0.6-1.1 1.2 0 0.1 0 0.3 0 0.4l-1.4 0c0-0.1 0-0.3 0-0.5 0-1.2 0.9-2.3 2.5-2.3 1.7 0 2.6 1.1 2.6 2.2 0 0.9-0.4 1.5-1.1 1.9l-0.4 0.3c-0.4 0.3-0.6 0.6-0.6 1.1v0.1H38.4zM39 20.6c0.5 0 0.9 0.4 0.9 0.9s-0.4 0.9-0.9 0.9c-0.5 0-0.9-0.4-0.9-0.9S38.5 20.6 39 20.6z"/><line fill="none" stroke="currentColor" stroke-linecap="round" stroke-linejoin="round" stroke-miterlimit="10" x1="97.2" y1="166" x2="97.2" y2="7.7"/><line fill="none" stroke="currentColor" stroke-linecap="round" stroke-linejoin="round" stroke-miterlimit="10" x1="97.2" y1="171" x2="97.2" y2="173.5"/><path fill="none" stroke="currentColor" stroke-linecap="round" stroke-linejoin="round" stroke-miterlimit="10" d="M67.6 7.7c0-1.2 0-2.7 0.8-3.7 0.7-0.9 1.8-1.4 2.9-1.8 1.1-0.4 2.3-0.7 3.5-0.9 2.5-0.5 5.1-0.6 7.7-0.6 1.4 0 2.9 0.1 4.3 0.2 2.4 0.2 5 0.6 7.2 1.5 1 0.4 2.1 1 2.7 2 0.6 1 0.6 2.3 0.6 3.4"/><ellipse fill="none" stroke="currentColor" stroke-linecap="round" stroke-linejoin="round" stroke-miterlimit="10" cx="82.4" cy="4.6" rx="4.8" ry="1.3"/><path fill="none" stroke="currentColor" stroke-linecap="round" stroke-linejoin="round" stroke-miterlimit="10" d="M97.2 13.1c0 2.2-6.6 4-14.8 4s-14.8-1.8-14.8-4"/><circle fill="none" stroke="currentColor" stroke-linecap="round" stroke-linejoin="round" stroke-miterlimit="10" cx="82.4" cy="12.4" r="1"/><line fill="none" stroke="currentColor" stroke-linecap="round" stroke-linejoin="round" stroke-miterlimit="10" x1="67.6" y1="166" x2="67.6" y2="7.7"/><path fill="none" stroke="currentColor" stroke-linecap="round" stroke-linejoin="round" stroke-miterlimit="10" d="M97.2 164.4c0 2.2-6.6 3.9-14.8 3.9s-14.8-1.7-14.8-3.9M97.2 166c0 2.3-6.6 4.2-14.8 4.2s-14.8-1.9-14.8-4.2"/><line fill="none" stroke="currentColor" stroke-linecap="round" stroke-linejoin="round" stroke-miterlimit="10" x1="67.6" y1="171" x2="67.6" y2="173.5"/><path fill="none" stroke="currentColor" stroke-linecap="round" stroke-linejoin="round" stroke-miterlimit="10" d="M97.2 173.5c0 2.3-6.6 4.1-14.8 4.1s-14.8-1.8-14.8-4.1M94.3 168.5c1.8 0.7 2.9 1.5 2.9 2.3 0 2.2-6.6 4-14.8 4s-14.8-1.8-14.8-3.9c0-0.9 1.1-1.7 2.9-2.3"/><path fill="none" stroke="currentColor" stroke-linecap="round" stroke-linejoin="round" stroke-miterlimit="10" d="M83.3 131.7h-1.8c-0.7 0-1.3-0.6-1.3-1.3v-10c0-0.7 0.6-1.3 1.3-1.3h1.8c0.7 0 1.3 0.6 1.3 1.3v10C84.6 131.1 84 131.7 83.3 131.7z"/></svg>
