<svg id="bulb" xmlns="http://www.w3.org/2000/svg" version="1.1" x="0" y="0" width="22.6" height="24.8" viewBox="0 0 22.6 24.8" enable-background="new 0 0 22.5803 24.75" xml:space="preserve"><path fill="none" stroke="currentColor" stroke-width="1.5" stroke-miterlimit="10" d="M14.1 14.8c1-0.8 1.7-2.1 1.6-3.5 0-2.4-2.1-4.4-4.5-4.4 -2.4 0-4.4 2-4.4 4.4 0 1.4 0.6 2.6 1.6 3.4 0.2 0.2 0.4 2.2 0.4 2.5 0 0 0 0.1 0 0.3 0 0.1 0.1 0.1 0.2 0.1h4.3c0.1 0 0.2-0.1 0.2-0.1 0-0.2 0-0.3 0-0.3C13.7 17.1 13.8 15 14.1 14.8z"/><line fill="none" stroke="currentColor" stroke-width="1.5" stroke-linecap="round" stroke-miterlimit="10" x1="9.5" y1="20.5" x2="13.1" y2="20.5"/><line fill="none" stroke="currentColor" stroke-width="1.5" stroke-linecap="round" stroke-miterlimit="10" x1="11.3" y1="0.8" x2="11.3" y2="4.3"/><line fill="none" stroke="currentColor" stroke-width="1.5" stroke-linecap="round" stroke-miterlimit="10" x1="3.8" y1="3.8" x2="6.3" y2="6.3"/><line fill="none" stroke="currentColor" stroke-width="1.5" stroke-linecap="round" stroke-miterlimit="10" x1="0.8" y1="11.3" x2="4.3" y2="11.3"/><line fill="none" stroke="currentColor" stroke-width="1.5" stroke-linecap="round" stroke-miterlimit="10" x1="18.7" y1="3.8" x2="16.2" y2="6.3"/><line fill="none" stroke="currentColor" stroke-width="1.5" stroke-linecap="round" stroke-miterlimit="10" x1="21.8" y1="11.3" x2="18.3" y2="11.3"/><circle fill="currentColor" cx="11.3" cy="23.6" r="1.1"/></svg>
