<svg id="circulator" xmlns="http://www.w3.org/2000/svg" version="1.1" x="0" y="0" width="30.7" height="178" viewBox="0 0 30.7 178" enable-background="new 0 0 30.65 178" xml:space="preserve"><line fill="none" stroke="currentColor" stroke-linecap="round" stroke-linejoin="round" stroke-miterlimit="10" x1="30.2" y1="165.9" x2="30.2" y2="7.6"/><line fill="none" stroke="currentColor" stroke-linecap="round" stroke-linejoin="round" stroke-miterlimit="10" x1="30.1" y1="170.8" x2="30.1" y2="173.4"/><path fill="none" stroke="currentColor" stroke-linecap="round" stroke-linejoin="round" stroke-miterlimit="10" d="M0.5 7.6c0-1.2 0-2.7 0.8-3.7C2 3 3.1 2.5 4.2 2.1 5.3 1.7 6.5 1.4 7.7 1.2c2.5-0.5 5.1-0.6 7.7-0.6 1.4 0 2.9 0.1 4.3 0.2 2.4 0.2 5 0.6 7.2 1.5 1 0.4 2.1 1 2.7 2 0.6 1 0.6 2.3 0.6 3.4"/><ellipse fill="none" stroke="currentColor" stroke-linecap="round" stroke-linejoin="round" stroke-miterlimit="10" cx="15.3" cy="4.5" rx="4.8" ry="1.3"/><path fill="none" stroke="currentColor" stroke-linecap="round" stroke-linejoin="round" stroke-miterlimit="10" d="M30.2 13c0 2.2-6.6 4-14.8 4S0.5 15.2 0.5 13"/><circle fill="none" stroke="currentColor" stroke-linecap="round" stroke-linejoin="round" stroke-miterlimit="10" cx="15.3" cy="12.3" r="1"/><line fill="none" stroke="currentColor" stroke-linecap="round" stroke-linejoin="round" stroke-miterlimit="10" x1="0.5" y1="165.9" x2="0.5" y2="7.6"/><path fill="none" stroke="currentColor" stroke-linecap="round" stroke-linejoin="round" stroke-miterlimit="10" d="M30.2 164.3c0 2.2-6.6 3.9-14.8 3.9S0.5 166.4 0.5 164.3M30.2 165.9c0 2.3-6.6 4.2-14.8 4.2S0.5 168.2 0.5 165.9"/><line fill="none" stroke="currentColor" stroke-linecap="round" stroke-linejoin="round" stroke-miterlimit="10" x1="0.5" y1="170.8" x2="0.5" y2="173.4"/><path fill="none" stroke="currentColor" stroke-linecap="round" stroke-linejoin="round" stroke-miterlimit="10" d="M30.1 173.4c0 2.3-6.6 4.1-14.8 4.1s-14.8-1.8-14.8-4.1M27.3 168.4c1.8 0.7 2.9 1.5 2.9 2.3 0 2.2-6.6 4-14.8 4s-14.8-1.8-14.8-3.9c0-0.9 1.1-1.7 2.9-2.3M16.2 131.5h-1.8c-0.7 0-1.3-0.6-1.3-1.3v-10c0-0.7 0.6-1.3 1.3-1.3h1.8c0.7 0 1.3 0.6 1.3 1.3v10C17.5 130.9 16.9 131.5 16.2 131.5z"/></svg>