<svg id="cog" xmlns="http://www.w3.org/2000/svg" viewBox="0 0 21.5 21.5" enable-background="new 0 0 21.5 21.5" xml:space="preserve"><path fill="currentColor" d="M13.6 21.5c-0.2 0-0.4-0.1-0.6-0.2l-1.2-1.4c-0.8 0.1-1.4 0.1-2.1 0l-1.2 1.4c-0.2 0.2-0.5 0.3-0.8 0.2 -0.8-0.2-1.6-0.6-2.4-1 -0.2-0.1-0.4-0.4-0.4-0.7L5 18C4.5 17.5 4 17 3.5 16.5l-1.8 0.1c-0.3 0-0.6-0.1-0.7-0.4 -0.4-0.7-0.7-1.5-1-2.4C0 13.5 0 13.2 0.2 13l1.4-1.2c0-0.4-0.1-0.7-0.1-1.1s0-0.7 0.1-1.1L0.2 8.5C0 8.3 0 8 0 7.7c0.2-0.8 0.6-1.6 1-2.4 0.1-0.2 0.4-0.4 0.7-0.4L3.5 5C4 4.5 4.5 4 5 3.5L4.9 1.7c0-0.3 0.1-0.6 0.4-0.7 0.7-0.4 1.5-0.7 2.4-1C8-0.1 8.3 0 8.5 0.2l1.2 1.4c0.8-0.1 1.4-0.1 2.1 0L13 0.2C13.2 0 13.5-0.1 13.8 0c0.8 0.2 1.6 0.6 2.4 1 0.2 0.1 0.4 0.4 0.4 0.7l-0.1 1.8C17 4 17.5 4.5 18 5l1.8-0.1c0.3 0 0.6 0.1 0.7 0.4 0.4 0.7 0.7 1.5 1 2.4 0.1 0.3 0 0.6-0.2 0.8l-1.4 1.2c0 0.4 0.1 0.7 0.1 1.1s0 0.7-0.1 1.1l1.4 1.2c0.2 0.2 0.3 0.5 0.2 0.8 -0.2 0.8-0.6 1.6-1 2.4 -0.1 0.3-0.4 0.4-0.7 0.4L18 16.5C17.5 17 17 17.5 16.5 18l0.1 1.8c0 0.3-0.1 0.6-0.4 0.7 -0.7 0.4-1.5 0.7-2.4 1C13.7 21.5 13.7 21.5 13.6 21.5zM12.1 18.3c0.2 0 0.4 0.1 0.6 0.2l1.2 1.3c0.4-0.1 0.8-0.3 1.2-0.5l-0.1-1.8c0-0.3 0.1-0.5 0.3-0.6 0.7-0.5 1.3-1.1 1.7-1.7 0.1-0.2 0.4-0.3 0.6-0.3l1.8 0.1c0.2-0.4 0.4-0.8 0.5-1.2l-1.3-1.2c-0.2-0.2-0.3-0.4-0.2-0.7 0.1-0.5 0.1-0.9 0.1-1.2s0-0.8-0.1-1.2c0-0.3 0-0.5 0.2-0.7l1.3-1.2c-0.1-0.4-0.3-0.8-0.5-1.2l-1.8 0.1c-0.3 0-0.5-0.1-0.6-0.3 -0.5-0.7-1.1-1.3-1.7-1.7 -0.2-0.1-0.3-0.4-0.3-0.6L15 2.1c-0.4-0.2-0.8-0.4-1.2-0.5l-1.2 1.3c-0.2 0.2-0.4 0.3-0.7 0.2C11.1 3 10.4 3 9.5 3.2c-0.3 0-0.5 0-0.7-0.2L7.7 1.6C7.2 1.7 6.9 1.9 6.5 2.1l0.1 1.8c0 0.3-0.1 0.5-0.3 0.6C5.6 5 5 5.6 4.5 6.3 4.4 6.5 4.1 6.6 3.9 6.6L2.1 6.5C1.9 6.9 1.7 7.2 1.6 7.7l1.3 1.2C3.1 9 3.2 9.3 3.2 9.5 3.1 10 3 10.4 3 10.8s0 0.8 0.1 1.2c0 0.3 0 0.5-0.2 0.7l-1.3 1.2c0.1 0.4 0.3 0.8 0.5 1.2l1.8-0.1c0.3 0 0.5 0.1 0.6 0.3C5 15.9 5.6 16.5 6.3 17c0.2 0.1 0.3 0.4 0.3 0.6l-0.1 1.8c0.4 0.2 0.8 0.4 1.2 0.5l1.2-1.3c0.2-0.2 0.4-0.3 0.7-0.2 0.9 0.1 1.6 0.1 2.5 0C12 18.3 12.1 18.3 12.1 18.3zM10.8 14.5c-2.1 0-3.8-1.7-3.8-3.8S8.7 7 10.8 7s3.8 1.7 3.8 3.8S12.8 14.5 10.8 14.5zM10.8 8.5c-1.3 0-2.3 1-2.3 2.3s1 2.3 2.3 2.3 2.3-1 2.3-2.3S12 8.5 10.8 8.5z"/></svg>
