<svg id="connecting-joule-alert" xmlns="http://www.w3.org/2000/svg" version="1.1" x="0" y="0" width="95" height="95" viewBox="0 0 95 95" enable-background="new 0 0 95.0392 95.0392" xml:space="preserve"><path fill="none" stroke="currentColor" stroke-width="2" stroke-miterlimit="10" d="M70.5 47.1c-1-1.6-2.7-2.6-4.4-3.2 -3.7-1.5-7.7-2.1-11.7-2.5 -2.3-0.2-4.6-0.3-7-0.3 -4.1 0-8.3 0.3-12.3 1 -1.9 0.4-3.8 0.8-5.6 1.5 -1.7 0.6-3.5 1.5-4.7 3 -1.3 1.7-1.3 3.9-1.3 6v34.9c7 4.2 15.2 6.6 23.9 6.6 8.7 0 16.9-2.4 23.9-6.6v-34.9C71.4 50.7 71.5 48.7 70.5 47.1zM47.5 45.3c4.3 0 7.8 0.9 7.8 2.1 0 1.2-3.5 2.1-7.8 2.1s-7.8-0.9-7.8-2.1C39.7 46.3 43.2 45.3 47.5 45.3zM49 60c0 0.8-0.7 1.5-1.5 1.5s-1.5-0.7-1.5-1.5 0.7-1.5 1.5-1.5S49 59.2 49 60zM47.5 67.6c-13.2 0-23.9-2.9-23.9-6.5C23.6 64.7 34.3 67.6 47.5 67.6s23.9-2.9 23.9-6.5C71.4 64.7 60.7 67.6 47.5 67.6z"></path><ellipse fill="none" stroke="currentColor" stroke-width="2" stroke-miterlimit="10" cx="47.5" cy="47.4" rx="7.8" ry="2.1"></ellipse><circle fill="none" stroke="currentColor" stroke-width="1.5" stroke-linecap="round" stroke-linejoin="round" stroke-miterlimit="10" cx="47.5" cy="60" r="1.5"></circle><circle fill="none" stroke="currentColor" stroke-width="2" stroke-miterlimit="10" cx="47.5" cy="47.5" r="46.5"></circle><circle fill-rule="evenodd" clip-rule="evenodd" fill="currentColor" cx="47.5" cy="20.6" r="1.5"></circle><polyline fill="none" stroke="currentColor" stroke-width="2" stroke-linecap="round" stroke-linejoin="round" stroke-miterlimit="10" points=" 51.5 10.6 47.5 6.6 43.5 10.6 "></polyline><line fill="none" stroke="currentColor" stroke-width="2" stroke-linecap="round" stroke-linejoin="round" stroke-miterlimit="10" x1="47.5" y1="6.6" x2="47.5" y2="15.1"></line><polyline fill="none" stroke="currentColor" stroke-width="2" stroke-linecap="round" stroke-linejoin="round" stroke-miterlimit="10" points=" 43.5 30.7 47.5 34.7 51.5 30.7 "></polyline><line fill="none" stroke="currentColor" stroke-width="2" stroke-linecap="round" stroke-linejoin="round" stroke-miterlimit="10" x1="47.5" y1="34.7" x2="47.5" y2="26.2"></line></svg>
