<svg xmlns="http://www.w3.org/2000/svg" xmlns:xlink="http://www.w3.org/1999/xlink" version="1.1" id="connect-joule" x="0" y="0" viewBox="0 0 70 70" enable-background="new 0 0 70 70" xml:space="preserve">
  <g id="SPLINE_258_">
    <path fill="currentColor" d="M51.94 34.56c-0.84-1.38-2.36-2.13-3.44-2.57 -2.8-1.16-5.94-1.57-8.35-1.79 -1.48-0.14-3.09-0.21-4.93-0.22 -3.41 0.03-6.19 0.26-8.75 0.74 -1.6 0.3-2.88 0.64-4.05 1.08 -1.17 0.43-2.62 1.09-3.59 2.3 -1.05 1.31-1.05 3.05-1.05 4.45v31.7c0 0.41 0.34 0.75 0.75 0.75 0.42 0 0.75-0.34 0.75-0.75v-23.2c2.87 1.98 9.44 3 15.94 3 6.51 0 13.07-1.02 15.94-3v23.2c0 0.41 0.34 0.75 0.75 0.75 0.42 0 0.75-0.34 0.75-0.75V38.47C52.67 37.2 52.67 35.76 51.94 34.56zM51.16 44.78c0 1.54-6.21 3.77-15.94 3.77s-15.94-2.23-15.94-3.77v-6.23c0-1.28 0-2.61 0.72-3.52 0.74-0.92 1.96-1.46 2.94-1.83 1.09-0.4 2.3-0.72 3.81-1.01 2.46-0.45 5.16-0.68 8.47-0.71 1.79 0.01 3.35 0.08 4.79 0.21 2.46 0.23 5.32 0.61 7.92 1.68 0.88 0.37 2.12 0.97 2.73 1.97 0.51 0.84 0.51 2.01 0.5 3.13L51.16 44.78 51.16 44.78z"/>
  </g>
  <path fill="currentColor" d="M35.22 37.42c-0.63 0-6.18-0.06-6.18-2.22s5.55-2.22 6.18-2.22 6.18 0.06 6.18 2.22S35.86 37.42 35.22 37.42zM30.71 35.2c0.56 0.31 2.12 0.72 4.51 0.72 2.39 0 3.95-0.42 4.51-0.72 -0.56-0.31-2.12-0.72-4.51-0.72C32.84 34.47 31.27 34.89 30.71 35.2zM39.94 35.35h0.01H39.94z"/>
  <path fill="currentColor" d="M35.22 45.79c-1 0-1.82-0.81-1.82-1.82s0.81-1.82 1.82-1.82c1 0 1.82 0.81 1.82 1.82S36.23 45.79 35.22 45.79zM35.22 43.66c-0.17 0-0.32 0.14-0.32 0.32s0.14 0.32 0.32 0.32c0.17 0 0.32-0.14 0.32-0.32S35.4 43.66 35.22 43.66z"/>
  <path fill="currentColor" d="M16.27 19.63l1.6-0.29v0.78c0.01 0.88 0.5 1.27 1.18 1.27 0.7 0 1.13-0.49 1.13-1.24v-5.88h1.66v5.88c0 1.54-1.12 2.81-2.77 2.81 -1.68 0-2.78-1.1-2.78-2.77V19.63z"/>
  <path fill="currentColor" d="M27.55 14.1c2.31 0 4.38 1.69 4.38 4.44 0 2.74-2.06 4.43-4.38 4.43 -2.3 0-4.37-1.69-4.37-4.43C23.18 15.79 25.24 14.1 27.55 14.1zM27.55 21.36c1.32 0 2.66-0.91 2.66-2.83s-1.34-2.83-2.66-2.83c-1.31 0-2.65 0.91-2.65 2.83S26.24 21.36 27.55 21.36z"/>
  <path fill="currentColor" d="M33.29 19.77v-5.49h1.65v5.37c0 1.12 0.62 1.7 1.61 1.7 1.01 0 1.62-0.59 1.62-1.7v-5.37h1.65v5.49c0 2.09-1.45 3.2-3.27 3.2C34.74 22.97 33.29 21.86 33.29 19.77z"/>
  <path fill="currentColor" d="M41.69 22.78v-8.5h1.65v6.92h3.79v1.58H41.69z"/>
  <path fill="currentColor" d="M48.41 22.78v-8.5h5.32v1.56h-3.67v1.94h3.32v1.47h-3.32v1.97h3.67v1.56L48.41 22.78 48.41 22.78z"/>
</svg>
