<svg id="contact-us" xmlns="http://www.w3.org/2000/svg" version="1.1" x="0" y="0" width="69.6" height="65.7" viewBox="0 0 69.6 65.7" enable-background="new 0 0 69.6438 65.6825" xml:space="preserve"><path fill="none" stroke="currentColor" stroke-width="1.5" stroke-linecap="round" stroke-linejoin="round" stroke-miterlimit="10" d="M66 18c1.8 3.9 2.8 8.2 2.8 12.8 0 10.5-5.4 19.8-13.7 25.2M9 28.6C10 13.1 23 0.8 38.9 0.8c6.2 0 12 1.9 16.8 5.1M17.2 51.4c-1.9-2-3.5-4.2-4.8-6.7M42.2 60.6c-1.1 0.1-2.2 0.2-3.3 0.2 -2.4 0-4.6-0.3-6.8-0.8"></path><polygon fill="none" stroke="currentColor" stroke-width="1.5" stroke-linecap="round" stroke-linejoin="round" stroke-miterlimit="10" points=" 20.4 46.1 0.8 36.5 67.2 5.1 "></polygon><polygon fill="none" stroke="currentColor" stroke-width="1.5" stroke-linecap="round" stroke-linejoin="round" stroke-miterlimit="10" points=" 28.5 50.1 50.6 60.9 67.2 5.1 "></polygon><polyline fill="none" stroke="currentColor" stroke-width="1.5" stroke-linecap="round" stroke-linejoin="round" stroke-miterlimit="10" points=" 20.4 46.1 22.5 64.9 28.5 50.1 "></polyline><line fill="none" stroke="currentColor" stroke-width="1.5" stroke-linecap="round" stroke-linejoin="round" stroke-miterlimit="10" x1="34.1" y1="52.8" x2="22.5" y2="64.9"></line></svg>
