<svg id="crab" xmlns="http://www.w3.org/2000/svg" version="1.1" baseProfile="tiny" x="0" y="0" width="159" height="100.8" viewBox="0 0 159 100.8" xml:space="preserve"><path fill="none" stroke="currentColor" stroke-width="2" stroke-linecap="round" stroke-linejoin="round" stroke-miterlimit="10" d="M79.9 80.6c3.5 0 5.4 1.5 10.9 1.5 5.5 0 23.1-21.4 23.1-28.8 0-12.6-17.2-18.1-34.4-17.7 -17.2-0.3-34.4 5.2-34.4 17.7 0 7.3 17.6 28.8 23.1 28.8 5.5 0 7.3-1.5 10.9-1.5C79.3 80.6 79.8 80.6 79.9 80.6z"></path><path fill="none" stroke="currentColor" stroke-width="2" stroke-linecap="round" stroke-linejoin="round" stroke-miterlimit="10" d="M118.3 22c3.4 0 10.8 19.2 3.9 19.2 -6.9 0-11.5 1.2-11.5-1.6 0-2.8-1.1-6.8-1.1-9.9M107.3 42c1.6 0 3.3-0.9 3.3-2.3M122.1 41.3c0 1.8-6.9 13.5-8.4 13.5M117.6 50.2c0.6 0 5.2-2.7 6.9-2.7 1.7 0 8.4-10.6 20.7-10.6S158 46.2 158 48.3c0 2.1-0.3 7.3-1.6 7.3 -0.5 0-6.9-13.3-11.3-13.3s-8.8 9.5-15.7 9.5c-1.9 0-4 6.9-6.8 6.9M124.7 47.4c2.7 0 4.2 2.1 4.2 4.6M145.5 36.8c2.4 0 2.2 5.5-0.4 5.5M112 59.1c2.5 0 9.2-0.4 14.4-0.4 5.2 0 4.8-3.2 21.1-3.2 1.8 0 8.4 6 8.4 12.6s-0.5 9.5-1.6 9.5c-0.6 0-2.9-13.4-7.2-13.4 -2.3 0-19.6 3.7-19.7 0.8 0 0-1.7 0.8-3.7 0.8M147.7 55.5c2 0 2.2 8.6-0.6 8.6M127.2 58.6c1.8 0 2.2 6.2 0.2 6.2M107.9 65.9c3.9 0 10.4-1 14-1 1.8 0 17.4 11.9 17.4 14.4 0 0.8 0.4 2.3 0.9 2.3 0.8 0 3.3 2.4 3.3 7 0 4.5-3.9 9.1-4.6 9.1s-0.4-6.5-0.4-8.2c0-1.7-1.7-3.9-1.7-4.9 0-1-14.8-6.1-14.8-9.8 0-1-0.1-1.8-0.6-1.8 -0.4 0-6.4 3.6-7.7 3.6M121.8 64.9c1.3 0 1.2 8.2-0.2 8.2M139.6 81.1c0 2-0.8 3.5-3 3.5M98.5 77c2.9 0 10.7-0.5 13.8-0.5s10.2 4.6 10.2 6c0 1.3 2.3 1.8 2.3 7.3 0 1.6-0.6 2.3-0.6 2.9s-0.1 7.1-8.1 7.1c-0.5 0 3.6-5.5 3.6-7.4 0-0.9 0-1.1 0-1.5s-1-5.2-2.3-5.6c-1.3-0.4-7.3-2.3-8.2-2.3S105 86 98.2 86s-8.8-3.9-8.8-3.9M112.2 76.5c0.8 0-0.7 6.5-3 6.5M119.9 92.3c0 1.7 4.5 1.5 4.5 0.3M122.7 83.1c0 2.9-3.5 3-4.4 3M73.6 10.2c4.2 0-3.9 16.4-16.8 16.4 -5.1 0-5 3.3-7.3 3.3 -2.8 0-8.8-3.7-8.8-7.3C40.7 19.1 54.5 1 64.1 1s9.3 0.9 9.3 2.9c0 0.7-25.8 10.2-16.4 10.2S70.9 10.2 73.6 10.2zM85.4 10.2c-4.2 0 3.9 16.4 16.8 16.4 5.1 0 5 3.3 7.3 3.3 2.8 0 8.8-3.7 8.8-7.3 0-3.4-13.8-21.5-23.4-21.5s-9.3 0.9-9.3 2.9c0 0.7 25.8 10.2 16.4 10.2S88.1 10.2 85.4 10.2zM40.8 22c-3.4 0-10.8 19.2-3.9 19.2s11.5 1.2 11.5-1.6c0-2.8 1.1-6.8 1.1-9.9M51.7 42c-1.6 0-3.3-0.9-3.3-2.3M36.9 41.3c0 1.8 6.9 13.5 8.4 13.5M41.5 50.2c-0.6 0-5.2-2.7-6.9-2.7s-8.4-10.6-20.7-10.6S1 46.2 1 48.3c0 2.1 0.3 7.3 1.6 7.3 0.5 0 6.9-13.3 11.3-13.3s8.8 9.5 15.7 9.5c1.9 0 4 6.9 6.8 6.9M34.3 47.4c-2.7 0-4.2 2.1-4.2 4.6M13.5 36.8c-2.4 0-2.2 5.5 0.4 5.5M47 59.1c-2.5 0-9.2-0.4-14.4-0.4s-4.8-3.2-21.1-3.2c-1.8 0-8.4 6-8.4 12.6s0.5 9.5 1.6 9.5c0.6 0 2.9-13.4 7.2-13.4 2.3 0 19.6 3.7 19.7 0.8 0 0 1.7 0.8 3.7 0.8M11.3 55.5c-2 0-2.2 8.6 0.6 8.6M31.8 58.6c-1.8 0-2.2 6.2-0.2 6.2M51.1 65.9c-3.9 0-10.4-1-14-1 -1.8 0-17.4 11.9-17.4 14.4 0 0.8-0.4 2.3-0.9 2.3 -0.8 0-3.3 2.4-3.3 7 0 4.5 3.9 9.1 4.6 9.1s0.4-6.5 0.4-8.2c0-1.7 1.7-3.9 1.7-4.9 0-1 14.8-6.1 14.8-9.8 0-1 0.1-1.8 0.6-1.8s6.4 3.6 7.7 3.6M37.2 64.9c-1.3 0-1.2 8.2 0.2 8.2M19.4 81.1c0 2 0.8 3.5 3 3.5M60.5 77c-2.9 0-10.7-0.5-13.8-0.5s-10.2 4.6-10.2 6c0 1.3-2.3 1.8-2.3 7.3 0 1.6 0.6 2.3 0.6 2.9s0.1 7.1 8.1 7.1c0.5 0-3.6-5.5-3.6-7.4 0-0.9 0-1.1 0-1.5s1-5.2 2.3-5.6c1.3-0.4 7.3-2.3 8.2-2.3S54 86 60.8 86c6.8 0 8.8-3.9 8.8-3.9M46.8 76.5c-0.8 0 0.7 6.5 3 6.5M39.1 92.3c0 1.7-4.5 1.5-4.5 0.3M36.3 83.1c0 2.9 3.5 3 4.4 3"></path><circle fill="none" stroke="currentColor" stroke-width="2" stroke-linecap="round" stroke-linejoin="round" stroke-miterlimit="10" cx="92.5" cy="33.4" r="2.6"></circle><circle fill="none" stroke="currentColor" stroke-width="2" stroke-linecap="round" stroke-linejoin="round" stroke-miterlimit="10" cx="67" cy="33.4" r="2.6"></circle></svg>
