<svg id="detailed-joule" xmlns="http://www.w3.org/2000/svg" version="1.1" x="0" y="0" width="104.2" height="619.1" viewBox="0 0 104.2 619.1" enable-background="new 0 0 104.24 619.09" xml:space="preserve"><path fill="none" stroke="currentColor" stroke-linecap="round" stroke-linejoin="round" stroke-miterlimit="10" d="M0.5 25.2c0-4.3-0.1-9.3 2.7-12.8 2.5-3.1 6.4-5 10.1-6.4 3.9-1.5 8-2.5 12.1-3.2 8.8-1.6 17.7-2.2 26.6-2.2 5 0 10 0.2 15 0.7 8.5 0.8 17.2 2.1 25.2 5.4 3.6 1.5 7.4 3.6 9.5 7 2.1 3.4 1.9 7.8 1.9 11.7"></path><ellipse fill="none" stroke="currentColor" stroke-linecap="round" stroke-linejoin="round" stroke-miterlimit="10" cx="52.1" cy="14.3" rx="16.8" ry="4.6"></ellipse><path fill="none" stroke="currentColor" stroke-linecap="round" stroke-linejoin="round" stroke-miterlimit="10" d="M103.7 41.1c0 7.7-23.1 14-51.6 14S0.5 48.9 0.5 41.1M103.7 43.9c0 7.7-23.1 14-51.6 14S0.5 51.6 0.5 43.9"></path><circle fill="none" stroke="currentColor" stroke-linecap="round" stroke-linejoin="round" stroke-miterlimit="10" cx="52.1" cy="41.4" r="3.3"></circle><path fill="none" stroke="currentColor" stroke-linecap="round" stroke-linejoin="round" stroke-miterlimit="10" d="M0.5 575.9V43c0-0.3 0.2-0.6 0.2-0.6M103.7 575.9V43c0-0.3-0.1-0.6-0.1-0.6"></path><line fill="none" stroke="currentColor" stroke-linecap="round" stroke-linejoin="round" stroke-miterlimit="10" x1="103.7" y1="41.1" x2="103.7" y2="25.2"></line><line fill="none" stroke="currentColor" stroke-linecap="round" stroke-linejoin="round" stroke-miterlimit="10" x1="0.5" y1="41.1" x2="0.5" y2="25.2"></line><path fill="none" stroke="currentColor" stroke-linecap="round" stroke-linejoin="round" stroke-miterlimit="10" d="M55.2 459.7h-6.2c-2.5 0-4.5-2-4.5-4.5v-35.2c0-2.5 2-4.5 4.6-4.5h6.2c2.5 0 4.6 2 4.6 4.6v35.2C59.8 457.7 57.7 459.7 55.2 459.7z"></path><path fill="none" stroke="currentColor" stroke-linecap="round" stroke-linejoin="round" stroke-miterlimit="10" d="M103.7 571.7c0 7.5-23.1 13.6-51.6 13.6S0.5 579.2 0.5 571.7M103.7 575.9c0 8.1-23.1 14.7-51.6 14.7S0.5 584 0.5 575.9M10 584.7c-5 2-7.9 4.4-7.9 7 0 7.2 22.4 13 50 13s50-5.8 50-13c0-2.6-2.9-5-7.9-7M100.9 588.9c1.7 1.3 2.7 2.8 2.7 4.3 0 7.4-23.1 13.4-51.5 13.4S0.5 600.5 0.5 593.2c0-1.4 0.8-2.8 2.4-4"></path><line fill="none" stroke="currentColor" stroke-linecap="round" stroke-linejoin="round" stroke-miterlimit="10" x1="103.6" y1="593.2" x2="103.6" y2="601.9"></line><line fill="none" stroke="currentColor" stroke-linecap="round" stroke-linejoin="round" stroke-miterlimit="10" x1="0.5" y1="593.2" x2="0.5" y2="601.9"></line><path fill="none" stroke="currentColor" stroke-linecap="round" stroke-linejoin="round" stroke-miterlimit="10" d="M103.6 601.9c0 8-23.1 14.4-51.5 14.4S0.5 609.9 0.5 601.9M95.9 609.5c-5 5.2-22.7 9.1-43.9 9.1 -21.1 0-38.8-3.8-43.8-9.1"></path></svg>
