<svg xmlns="http://www.w3.org/2000/svg" xmlns:xlink="http://www.w3.org/1999/xlink" xmlns:a="http://ns.adobe.com/AdobeSVGViewerExtensions/3.0/" version="1.1" x="0" y="0" width="148.31" height="178" viewBox="0 0 148.31 178" enable-background="new 0 0 148.31 178" xml:space="preserve">
  <path id="XMLID_5_" fill="none" stroke="currentColor" stroke-linecap="round" stroke-linejoin="round" stroke-miterlimit="10" d="M35.85 7.24v23c0 2.78 2.26 5.04 5.04 5.04h5.2v8.32l9.07-8.32h87.62c2.78 0 5.04-2.26 5.04-5.04v-23c0-2.78-2.26-5.04-5.04-5.04H40.89C38.11 2.2 35.85 4.46 35.85 7.24z"/>
  <path id="XMLID_4_" fill="none" stroke="currentColor" stroke-linecap="round" stroke-linejoin="round" stroke-miterlimit="10" d="M35.85 54v16.91c0 2.05 1.66 3.71 3.71 3.71h3.82v6.12l6.67-6.12h71.78c2.05 0 3.71-1.66 3.71-3.71V54c0-2.05-1.66-3.71-3.71-3.71H39.56C37.51 50.3 35.85 51.96 35.85 54z"/>
  <path id="XMLID_3_" fill="none" stroke="currentColor" stroke-linecap="round" stroke-linejoin="round" stroke-miterlimit="10" d="M35.85 96.31v12.89c0 1.56 1.26 2.82 2.82 2.82h2.91v4.66l5.08-4.66h54.69c1.56 0 2.82-1.26 2.82-2.82V96.31c0-1.56-1.26-2.82-2.82-2.82H38.67C37.11 93.49 35.85 94.75 35.85 96.31z"/>
  <path fill="currentColor" d="M44.43 14.59h1.42l1.7 2.97 1.71-2.97h1.35l-2.5 4.09v3h-1.2v-3L44.43 14.59z"/>
  <path fill="currentColor" d="M55.18 19.23c0 1.5-1.07 2.59-2.53 2.59 -1.45 0-2.52-1.09-2.52-2.59 0-1.49 1.07-2.58 2.52-2.58C54.11 16.66 55.18 17.75 55.18 19.23zM54.01 19.23c0-1.01-0.64-1.53-1.36-1.53 -0.71 0-1.36 0.52-1.36 1.53 0 1.01 0.65 1.55 1.36 1.55C53.37 20.78 54.01 20.25 54.01 19.23z"/>
  <path fill="currentColor" d="M58.06 21.81c-1.16 0-1.84-0.86-1.84-1.94v-3.07h1.16v2.86c0 0.6 0.28 1.11 0.98 1.11 0.67 0 1.02-0.45 1.02-1.09v-2.88h1.16v3.98c0 0.4 0.03 0.71 0.05 0.89h-1.11c-0.02-0.11-0.04-0.34-0.04-0.54C59.2 21.57 58.63 21.81 58.06 21.81z"/>
  <path fill="currentColor" d="M64.89 17.96c-0.13-0.02-0.26-0.03-0.38-0.03 -0.9 0-1.31 0.52-1.31 1.43v2.32h-1.16v-4.87h1.13v0.78c0.23-0.53 0.77-0.84 1.41-0.84 0.14 0 0.26 0.02 0.31 0.03V17.96z"/>
  <path fill="currentColor" d="M68.32 21.67v-7.24h1.14v2.97c0.22-0.38 0.78-0.73 1.53-0.73 1.46 0 2.25 1.11 2.25 2.54 0 1.47-0.87 2.58-2.29 2.58 -0.69 0-1.22-0.3-1.5-0.77v0.65H68.32zM70.76 17.71c-0.74 0-1.31 0.55-1.31 1.52 0 0.96 0.57 1.54 1.31 1.54 0.76 0 1.31-0.58 1.31-1.54C72.07 18.25 71.53 17.71 70.76 17.71z"/>
  <path fill="currentColor" d="M75.53 18.88l1.25-0.19c0.28-0.04 0.36-0.18 0.36-0.35 0-0.41-0.28-0.74-0.92-0.74 -0.61 0-0.95 0.39-1 0.88l-1.06-0.24c0.09-0.84 0.85-1.59 2.05-1.59 1.5 0 2.07 0.85 2.07 1.82v2.42c0 0.44 0.05 0.73 0.06 0.78h-1.08c-0.01-0.03-0.05-0.23-0.05-0.62 -0.23 0.37-0.71 0.77-1.5 0.77 -1.02 0-1.65-0.7-1.65-1.47C74.06 19.48 74.7 19 75.53 18.88zM77.14 19.65v-0.22l-1.27 0.19c-0.36 0.06-0.65 0.26-0.65 0.66 0 0.33 0.25 0.63 0.71 0.63C76.58 20.91 77.14 20.6 77.14 19.65z"/>
  <path fill="currentColor" d="M81.13 16.81h1.01v1.03h-1.01v2.26c0 0.43 0.19 0.61 0.62 0.61 0.16 0 0.35-0.03 0.4-0.04v0.96c-0.07 0.03-0.29 0.11-0.71 0.11 -0.9 0-1.46-0.54-1.46-1.45v-2.45h-0.9v-1.03h0.25c0.52 0 0.75-0.33 0.75-0.76v-0.73h1.05V16.81z"/>
  <path fill="currentColor" d="M84.35 21.67h-1.16v-7.24h1.16v2.84c0.33-0.43 0.88-0.61 1.39-0.61 1.2 0 1.78 0.86 1.78 1.93v3.08h-1.16v-2.88c0-0.6-0.27-1.08-1-1.08 -0.64 0-0.99 0.48-1.01 1.1V21.67z"/>
  <path fill="currentColor" d="M91.98 14.34c0.42 0 0.76 0.34 0.76 0.76 0 0.42-0.34 0.75-0.76 0.75 -0.41 0-0.75-0.33-0.75-0.75C91.23 14.68 91.57 14.34 91.98 14.34zM91.41 21.67v-4.87h1.15v4.87H91.41z"/>
  <path fill="currentColor" d="M94.64 20.07c0.04 0.44 0.37 0.83 0.99 0.83 0.48 0 0.73-0.26 0.73-0.56 0-0.26-0.18-0.46-0.57-0.54l-0.72-0.16c-0.86-0.19-1.31-0.75-1.31-1.42 0-0.85 0.78-1.57 1.79-1.57 1.36 0 1.8 0.88 1.88 1.36l-0.98 0.28c-0.04-0.28-0.25-0.73-0.9-0.73 -0.41 0-0.7 0.26-0.7 0.56 0 0.26 0.19 0.45 0.49 0.51l0.74 0.15c0.92 0.2 1.4 0.76 1.4 1.48 0 0.74-0.6 1.56-1.84 1.56 -1.41 0-1.95-0.92-2.01-1.47L94.64 20.07z"/>
  <path fill="currentColor" d="M103.96 17.96c-0.13-0.02-0.26-0.03-0.38-0.03 -0.9 0-1.31 0.52-1.31 1.43v2.32h-1.16v-4.87h1.13v0.78c0.23-0.53 0.77-0.84 1.41-0.84 0.14 0 0.26 0.02 0.31 0.03V17.96z"/>
  <path fill="currentColor" d="M109.19 20.28c-0.26 0.85-1.03 1.54-2.2 1.54 -1.32 0-2.49-0.96-2.49-2.61 0-1.54 1.14-2.56 2.37-2.56 1.5 0 2.38 0.99 2.38 2.53 0 0.19-0.02 0.35-0.03 0.37h-3.56c0.03 0.74 0.61 1.27 1.33 1.27 0.7 0 1.06-0.37 1.22-0.85L109.19 20.28zM108.08 18.71c-0.02-0.57-0.4-1.08-1.2-1.08 -0.73 0-1.15 0.56-1.19 1.08H108.08z"/>
  <path fill="currentColor" d="M111.53 18.88l1.25-0.19c0.28-0.04 0.36-0.18 0.36-0.35 0-0.41-0.28-0.74-0.92-0.74 -0.61 0-0.95 0.39-1 0.88l-1.06-0.24c0.09-0.84 0.85-1.59 2.05-1.59 1.5 0 2.07 0.85 2.07 1.82v2.42c0 0.44 0.05 0.73 0.06 0.78h-1.08c-0.01-0.03-0.05-0.23-0.05-0.62 -0.23 0.37-0.71 0.77-1.5 0.77 -1.02 0-1.65-0.7-1.65-1.47C110.06 19.48 110.7 19 111.53 18.88zM113.14 19.65v-0.22l-1.27 0.19c-0.36 0.06-0.65 0.26-0.65 0.66 0 0.33 0.25 0.63 0.71 0.63C112.58 20.91 113.14 20.6 113.14 19.65z"/>
  <path fill="currentColor" d="M120.16 20.78c0 0.44 0.04 0.81 0.05 0.89h-1.11c-0.02-0.11-0.05-0.43-0.05-0.63 -0.23 0.41-0.74 0.75-1.43 0.75 -1.4 0-2.34-1.1-2.34-2.57 0-1.4 0.95-2.55 2.32-2.55 0.85 0 1.28 0.39 1.43 0.7v-2.94h1.13V20.78zM117.76 20.77c0.76 0 1.29-0.63 1.29-1.56s-0.52-1.51-1.28-1.51 -1.32 0.59-1.32 1.52S116.97 20.77 117.76 20.77z"/>
  <path fill="currentColor" d="M121.93 23.64l1.17-2.55 -2.08-4.29h1.31l1.4 3.08 1.31-3.08h1.23l-3.1 6.84H121.93z"/>
  <path fill="currentColor" d="M127.98 20.27c0.41 0 0.74 0.34 0.74 0.74 0 0.4-0.33 0.73-0.74 0.73 -0.4 0-0.72-0.33-0.72-0.73C127.26 20.61 127.58 20.27 127.98 20.27zM128.41 19.57h-0.84l-0.29-4.99h1.41L128.41 19.57z"/>
  <path fill="currentColor" d="M44.41 58.56h1.13l1.36 2.38 1.37-2.38h1.08l-2 3.27v2.4h-0.96v-2.4L44.41 58.56z"/>
  <path fill="currentColor" d="M53.01 62.28c0 1.2-0.86 2.07-2.02 2.07 -1.16 0-2.01-0.87-2.01-2.07 0-1.19 0.86-2.06 2.01-2.06C52.15 60.22 53.01 61.09 53.01 62.28zM52.07 62.28c0-0.81-0.51-1.22-1.09-1.22 -0.57 0-1.09 0.42-1.09 1.22s0.52 1.24 1.09 1.24C51.56 63.52 52.07 63.1 52.07 62.28z"/>
  <path fill="currentColor" d="M55.31 64.34c-0.93 0-1.47-0.69-1.47-1.55v-2.45h0.93v2.29c0 0.48 0.22 0.89 0.78 0.89 0.54 0 0.82-0.36 0.82-0.87v-2.3h0.93v3.18c0 0.32 0.02 0.57 0.04 0.71h-0.89c-0.02-0.09-0.03-0.27-0.03-0.43C56.22 64.15 55.77 64.34 55.31 64.34z"/>
  <path fill="currentColor" d="M60.77 61.26c-0.1-0.02-0.21-0.02-0.3-0.02 -0.72 0-1.05 0.42-1.05 1.14v1.85H58.5v-3.89h0.9v0.62c0.18-0.42 0.62-0.67 1.13-0.67 0.11 0 0.21 0.02 0.25 0.02V61.26z"/>
  <path fill="currentColor" d="M64.67 59.83v0.51h0.9v0.81h-0.9v3.09h-0.94v-3.09h-0.68v-0.81h0.68V59.8c0-0.87 0.56-1.4 1.36-1.4 0.23 0 0.42 0.05 0.49 0.08v0.79c-0.06-0.02-0.16-0.04-0.34-0.04C65 59.23 64.67 59.35 64.67 59.83z"/>
  <path fill="currentColor" d="M69.93 62.28c0 1.2-0.86 2.07-2.02 2.07 -1.16 0-2.01-0.87-2.01-2.07 0-1.19 0.86-2.06 2.01-2.06C69.08 60.22 69.93 61.09 69.93 62.28zM69 62.28c0-0.81-0.51-1.22-1.09-1.22 -0.57 0-1.09 0.42-1.09 1.22s0.52 1.24 1.09 1.24C68.49 63.52 69 63.1 69 62.28z"/>
  <path fill="currentColor" d="M74.57 62.28c0 1.2-0.86 2.07-2.02 2.07 -1.16 0-2.02-0.87-2.02-2.07 0-1.19 0.86-2.06 2.02-2.06C73.71 60.22 74.57 61.09 74.57 62.28zM73.63 62.28c0-0.81-0.51-1.22-1.09-1.22 -0.57 0-1.09 0.42-1.09 1.22s0.52 1.24 1.09 1.24C73.12 63.52 73.63 63.1 73.63 62.28z"/>
  <path fill="currentColor" d="M79.06 63.52c0 0.35 0.03 0.65 0.04 0.71h-0.89c-0.02-0.09-0.04-0.34-0.04-0.5 -0.18 0.33-0.59 0.6-1.14 0.6 -1.12 0-1.87-0.88-1.87-2.05 0-1.12 0.76-2.04 1.85-2.04 0.68 0 1.02 0.31 1.14 0.56v-2.35h0.9V63.52zM77.14 63.51c0.61 0 1.03-0.5 1.03-1.25 0-0.74-0.42-1.21-1.02-1.21s-1.06 0.47-1.06 1.22S76.5 63.51 77.14 63.51z"/>
  <path fill="currentColor" d="M82.72 58.36c0.34 0 0.61 0.27 0.61 0.61 0 0.34-0.27 0.6-0.61 0.6 -0.33 0-0.6-0.26-0.6-0.6C82.12 58.63 82.39 58.36 82.72 58.36zM82.26 64.23v-3.89h0.92v3.89H82.26z"/>
  <path fill="currentColor" d="M84.85 62.95c0.03 0.35 0.29 0.66 0.79 0.66 0.38 0 0.58-0.21 0.58-0.45 0-0.21-0.14-0.37-0.46-0.43l-0.58-0.13c-0.69-0.15-1.05-0.6-1.05-1.14 0-0.68 0.62-1.25 1.43-1.25 1.09 0 1.44 0.7 1.5 1.09l-0.78 0.22c-0.03-0.22-0.2-0.58-0.72-0.58 -0.33 0-0.56 0.21-0.56 0.45 0 0.21 0.15 0.36 0.39 0.41L86 61.92c0.74 0.16 1.12 0.61 1.12 1.18 0 0.59-0.48 1.25-1.47 1.25 -1.13 0-1.56-0.74-1.61-1.18L84.85 62.95z"/>
  <path fill="currentColor" d="M92.3 61.26c-0.1-0.02-0.21-0.02-0.3-0.02 -0.72 0-1.05 0.42-1.05 1.14v1.85h-0.93v-3.89h0.9v0.62c0.18-0.42 0.62-0.67 1.13-0.67 0.11 0 0.21 0.02 0.25 0.02V61.26z"/>
  <path fill="currentColor" d="M96.49 63.12c-0.21 0.68-0.82 1.23-1.76 1.23 -1.06 0-1.99-0.77-1.99-2.09 0-1.23 0.91-2.05 1.9-2.05 1.2 0 1.9 0.79 1.9 2.02 0 0.15-0.02 0.28-0.02 0.3h-2.85c0.02 0.59 0.49 1.02 1.06 1.02 0.56 0 0.85-0.3 0.97-0.68L96.49 63.12zM95.6 61.86c-0.02-0.46-0.32-0.86-0.96-0.86 -0.58 0-0.92 0.45-0.95 0.86H95.6z"/>
  <path fill="currentColor" d="M98.36 62l1-0.15c0.22-0.03 0.29-0.14 0.29-0.28 0-0.33-0.22-0.59-0.74-0.59 -0.49 0-0.76 0.31-0.8 0.7l-0.85-0.19c0.07-0.67 0.68-1.27 1.64-1.27 1.2 0 1.65 0.68 1.65 1.46v1.94c0 0.35 0.04 0.58 0.05 0.62h-0.86c-0.01-0.02-0.04-0.18-0.04-0.5 -0.18 0.3-0.57 0.62-1.2 0.62 -0.82 0-1.32-0.56-1.32-1.18C97.18 62.48 97.7 62.1 98.36 62zM99.65 62.62v-0.18l-1.01 0.15c-0.29 0.05-0.52 0.21-0.52 0.53 0 0.26 0.2 0.5 0.57 0.5C99.2 63.62 99.65 63.38 99.65 62.62z"/>
  <path fill="currentColor" d="M105.27 63.52c0 0.35 0.03 0.65 0.04 0.71h-0.89c-0.02-0.09-0.04-0.34-0.04-0.5 -0.18 0.33-0.59 0.6-1.14 0.6 -1.12 0-1.87-0.88-1.87-2.05 0-1.12 0.76-2.04 1.86-2.04 0.68 0 1.02 0.31 1.14 0.56v-2.35h0.9V63.52zM103.34 63.51c0.61 0 1.03-0.5 1.03-1.25 0-0.74-0.42-1.21-1.02-1.21 -0.61 0-1.05 0.47-1.05 1.22S102.71 63.51 103.34 63.51z"/>
  <path fill="currentColor" d="M106.68 65.81l0.94-2.04 -1.66-3.43H107l1.12 2.46 1.05-2.46h0.98l-2.48 5.47H106.68z"/>
  <path fill="currentColor" d="M111.52 63.11c0.33 0 0.59 0.27 0.59 0.59s-0.26 0.58-0.59 0.58c-0.32 0-0.58-0.26-0.58-0.58S111.2 63.11 111.52 63.11zM111.86 62.55h-0.67l-0.23-3.99h1.13L111.86 62.55z"/>
  <path fill="currentColor" d="M39.92 105.09v-4.97h0.85v4.97H39.92z"/>
  <path fill="currentColor" d="M44.45 105.09h-0.81v-3.41h0.79v0.46c0.22-0.39 0.63-0.55 1.01-0.55 0.83 0 1.23 0.6 1.23 1.35v2.16h-0.81v-2.02c0-0.42-0.19-0.76-0.7-0.76 -0.46 0-0.71 0.36-0.71 0.81V105.09z"/>
  <path fill="currentColor" d="M50.67 104.11c-0.18 0.6-0.72 1.08-1.54 1.08 -0.92 0-1.74-0.67-1.74-1.83 0-1.08 0.8-1.79 1.66-1.79 1.05 0 1.67 0.69 1.67 1.77 0 0.13-0.01 0.25-0.02 0.26H48.2c0.02 0.52 0.43 0.89 0.93 0.89 0.49 0 0.74-0.26 0.85-0.6L50.67 104.11zM49.89 103.01c-0.01-0.4-0.28-0.76-0.84-0.76 -0.51 0-0.81 0.39-0.83 0.76H49.89z"/>
  <path fill="currentColor" d="M54.51 104.11c-0.18 0.6-0.72 1.08-1.54 1.08 -0.92 0-1.74-0.67-1.74-1.83 0-1.08 0.8-1.79 1.66-1.79 1.05 0 1.67 0.69 1.67 1.77 0 0.13-0.01 0.25-0.02 0.26h-2.49c0.02 0.52 0.43 0.89 0.93 0.89 0.49 0 0.74-0.26 0.85-0.6L54.51 104.11zM53.73 103.01c-0.01-0.4-0.28-0.76-0.84-0.76 -0.51 0-0.81 0.39-0.83 0.76H53.73z"/>
  <path fill="currentColor" d="M58.48 104.46c0 0.31 0.03 0.57 0.04 0.62h-0.78c-0.01-0.08-0.04-0.3-0.04-0.44 -0.16 0.29-0.52 0.52-1 0.52 -0.98 0-1.64-0.77-1.64-1.8 0-0.98 0.67-1.79 1.62-1.79 0.6 0 0.9 0.27 1 0.49v-2.06h0.79V104.46zM56.79 104.46c0.53 0 0.9-0.44 0.9-1.09s-0.36-1.06-0.9-1.06 -0.92 0.41-0.92 1.06S56.23 104.46 56.79 104.46z"/>
  <path fill="currentColor" d="M61.27 105.09v-3.41h0.78v0.43c0.2-0.35 0.62-0.53 1.01-0.53 0.45 0 0.84 0.2 1.02 0.6 0.27-0.45 0.67-0.6 1.11-0.6 0.62 0 1.21 0.39 1.21 1.3v2.21h-0.78v-2.08c0-0.4-0.2-0.7-0.66-0.7 -0.43 0-0.71 0.34-0.71 0.76v2.02h-0.8v-2.08c0-0.39-0.2-0.7-0.66-0.7 -0.43 0-0.71 0.32-0.71 0.76v2.02H61.27z"/>
  <path fill="currentColor" d="M70.65 103.38c0 1.05-0.75 1.81-1.77 1.81 -1.02 0-1.77-0.76-1.77-1.81 0-1.04 0.75-1.81 1.77-1.81C69.91 101.57 70.65 102.33 70.65 103.38zM69.84 103.38c0-0.71-0.45-1.07-0.95-1.07 -0.5 0-0.95 0.36-0.95 1.07s0.46 1.09 0.95 1.09C69.39 104.46 69.84 104.09 69.84 103.38z"/>
  <path fill="currentColor" d="M73.43 102.48c-0.09-0.01-0.18-0.02-0.27-0.02 -0.63 0-0.92 0.36-0.92 1v1.62h-0.81v-3.41h0.79v0.55c0.16-0.37 0.54-0.59 0.99-0.59 0.1 0 0.18 0.01 0.22 0.02V102.48z"/>
  <path fill="currentColor" d="M77.1 104.11c-0.18 0.6-0.72 1.08-1.54 1.08 -0.92 0-1.74-0.67-1.74-1.83 0-1.08 0.8-1.79 1.66-1.79 1.05 0 1.67 0.69 1.67 1.77 0 0.13-0.01 0.25-0.02 0.26h-2.49c0.02 0.52 0.43 0.89 0.93 0.89 0.49 0 0.74-0.26 0.85-0.6L77.1 104.11zM76.32 103.01c-0.01-0.4-0.28-0.76-0.84-0.76 -0.51 0-0.81 0.39-0.83 0.76H76.32z"/>
  <path fill="currentColor" d="M82.42 101.68l0.81 2.36 0.68-2.36h0.83l-1.09 3.41h-0.81l-0.85-2.45 -0.83 2.45h-0.83l-1.11-3.41h0.87l0.69 2.36 0.8-2.36H82.42z"/>
  <path fill="currentColor" d="M86.15 103.13l0.88-0.13c0.2-0.03 0.25-0.13 0.25-0.25 0-0.29-0.2-0.52-0.64-0.52 -0.43 0-0.67 0.27-0.7 0.62l-0.74-0.17c0.06-0.59 0.59-1.11 1.44-1.11 1.05 0 1.45 0.6 1.45 1.27v1.69c0 0.31 0.04 0.51 0.04 0.55h-0.76c-0.01-0.02-0.04-0.16-0.04-0.43 -0.16 0.26-0.5 0.54-1.05 0.54 -0.71 0-1.16-0.49-1.16-1.03C85.11 103.55 85.56 103.22 86.15 103.13zM87.27 103.67v-0.15l-0.89 0.13c-0.25 0.04-0.46 0.18-0.46 0.46 0 0.23 0.17 0.44 0.5 0.44C86.88 104.55 87.27 104.34 87.27 103.67z"/>
  <path fill="currentColor" d="M90.07 101.68h0.71v0.72h-0.71v1.58c0 0.3 0.13 0.43 0.43 0.43 0.11 0 0.25-0.02 0.28-0.03v0.67c-0.05 0.02-0.2 0.08-0.5 0.08 -0.63 0-1.02-0.38-1.02-1.02v-1.72h-0.63v-0.72h0.17c0.36 0 0.52-0.23 0.52-0.53v-0.51h0.74V101.68z"/>
  <path fill="currentColor" d="M94.59 104.11c-0.18 0.6-0.72 1.08-1.54 1.08 -0.92 0-1.74-0.67-1.74-1.83 0-1.08 0.8-1.79 1.66-1.79 1.05 0 1.67 0.69 1.67 1.77 0 0.13-0.01 0.25-0.02 0.26h-2.49c0.02 0.52 0.43 0.89 0.93 0.89 0.49 0 0.74-0.26 0.85-0.6L94.59 104.11zM93.81 103.01c-0.01-0.4-0.28-0.76-0.84-0.76 -0.51 0-0.8 0.39-0.83 0.76H93.81z"/>
  <path fill="currentColor" d="M97.4 102.48c-0.09-0.01-0.18-0.02-0.27-0.02 -0.63 0-0.92 0.36-0.92 1v1.62H95.4v-3.41h0.79v0.55c0.16-0.37 0.54-0.59 0.99-0.59 0.1 0 0.18 0.01 0.22 0.02V102.48z"/>
  <path fill="currentColor" d="M98.83 104.11c0.29 0 0.52 0.24 0.52 0.52s-0.23 0.51-0.52 0.51c-0.28 0-0.5-0.23-0.5-0.51S98.55 104.11 98.83 104.11zM99.13 103.62h-0.59l-0.2-3.49h0.99L99.13 103.62z"/>
  <line fill="none" stroke="currentColor" stroke-linecap="round" stroke-linejoin="round" stroke-miterlimit="10" x1="30.15" y1="165.87" x2="30.15" y2="7.6"/>
  <line fill="none" stroke="currentColor" stroke-linecap="round" stroke-linejoin="round" stroke-miterlimit="10" x1="30.13" y1="170.83" x2="30.13" y2="173.36"/>
  <g id="SPLINE_1_">
    <path fill="none" stroke="currentColor" stroke-linecap="round" stroke-linejoin="round" stroke-miterlimit="10" d="M0.5 7.6c0-1.25-0.04-2.67 0.79-3.69C2.01 3 3.13 2.47 4.19 2.07 5.32 1.65 6.5 1.37 7.68 1.15c2.52-0.47 5.09-0.62 7.65-0.65 1.44 0.01 2.88 0.06 4.31 0.19 2.44 0.22 4.96 0.6 7.23 1.54 1.04 0.43 2.13 1.03 2.73 2.02 0.59 0.97 0.55 2.25 0.55 3.35"/>
  </g>
  <ellipse fill="none" stroke="currentColor" stroke-linecap="round" stroke-linejoin="round" stroke-miterlimit="10" cx="15.33" cy="4.47" rx="4.82" ry="1.31"/>
  <path fill="none" stroke="currentColor" stroke-linecap="round" stroke-linejoin="round" stroke-miterlimit="10" d="M30.15 12.98c0 2.22-6.64 4.02-14.82 4.02S0.5 15.2 0.5 12.98"/>
  <circle fill="none" stroke="currentColor" stroke-linecap="round" stroke-linejoin="round" stroke-miterlimit="10" cx="15.33" cy="12.27" r="0.95"/>
  <line fill="none" stroke="currentColor" stroke-linecap="round" stroke-linejoin="round" stroke-miterlimit="10" x1="0.5" y1="165.87" x2="0.5" y2="7.6"/>
  <path fill="none" stroke="currentColor" stroke-linecap="round" stroke-linejoin="round" stroke-miterlimit="10" d="M30.15 164.28c0 2.16-6.62 3.92-14.81 3.92S0.5 166.44 0.5 164.28"/>
  <path fill="none" stroke="currentColor" stroke-linecap="round" stroke-linejoin="round" stroke-miterlimit="10" d="M30.15 165.87c0 2.34-6.62 4.23-14.81 4.23S0.5 168.21 0.5 165.87"/>
  <line fill="none" stroke="currentColor" stroke-linecap="round" stroke-linejoin="round" stroke-miterlimit="10" x1="0.5" y1="170.83" x2="0.5" y2="173.36"/>
  <path fill="none" stroke="currentColor" stroke-linecap="round" stroke-linejoin="round" stroke-miterlimit="10" d="M30.14 173.36c0 2.29-6.63 4.14-14.81 4.14s-14.81-1.85-14.81-4.14"/>
  <path fill="none" stroke="currentColor" stroke-linecap="round" stroke-linejoin="round" stroke-miterlimit="10" d="M27.27 168.38c1.8 0.66 2.87 1.46 2.87 2.34 0 2.18-6.63 3.95-14.81 3.95s-14.81-1.77-14.81-3.95c0-0.87 1.06-1.68 2.87-2.34"/>
  <path fill="none" stroke="currentColor" stroke-linecap="round" stroke-linejoin="round" stroke-miterlimit="10" d="M16.21 131.52h-1.78c-0.72 0-1.3-0.58-1.3-1.3v-10.04c0-0.72 0.58-1.3 1.3-1.3h1.78c0.72 0 1.3 0.58 1.3 1.3v10.04C17.51 130.94 16.93 131.52 16.21 131.52z"/>
</svg>
