<svg id="firmware-update-success" xmlns="http://www.w3.org/2000/svg" xmlns:xlink="http://www.w3.org/1999/xlink" xmlns:a="http://ns.adobe.com/AdobeSVGViewerExtensions/3.0/" version="1.1" x="0" y="0" width="61.33" height="190.45" viewBox="0 0 61.33 190.45" enable-background="new 0 0 61.33 190.45" xml:space="preserve">
  <path fill="currentColor" d="M35.54 18.11c3.2 0 5.8 2.6 5.8 5.8 0 0.05 0 0.1 0 0.15 -0.03 1.97-0.63 3.81-1.65 5.35 -0.18 0.26-0.38 0.52-0.57 0.78 -2.05 2.68-4.72 4.87-7.79 6.36 -3.16-1.54-5.89-3.82-7.97-6.61 -0.07-0.1-0.15-0.2-0.22-0.31 -1.01-1.45-1.65-3.17-1.77-5.04 -0.02-0.23-0.02-0.45-0.02-0.69 0-0.23 0.01-0.46 0.02-0.69 0.34-2.88 2.79-5.12 5.76-5.12 1.66 0 3.15 0.69 4.21 1.8C32.39 18.81 33.89 18.11 35.54 18.11M35.54 17.11c-1.55 0-3.01 0.51-4.21 1.45 -1.19-0.94-2.66-1.45-4.21-1.45 -3.45 0-6.35 2.58-6.75 6 0 0.02 0 0.03 0 0.05 -0.02 0.25-0.03 0.5-0.03 0.75 0 0.25 0.01 0.5 0.03 0.75 0.13 1.99 0.81 3.91 1.95 5.54l0.24 0.32c2.18 2.94 5.07 5.33 8.34 6.92 0.14 0.07 0.29 0.1 0.44 0.1 0.15 0 0.3-0.03 0.44-0.1 3.17-1.54 5.99-3.84 8.15-6.65 0.2-0.27 0.4-0.54 0.6-0.82 1.17-1.77 1.8-3.81 1.83-5.91l0-0.16C42.34 20.17 39.29 17.11 35.54 17.11L35.54 17.11z"/>
  <path fill="currentColor" d="M46.84 1c2.04 0 3.69 1.65 3.69 3.69 0 0.03 0 0.06 0 0.1 -0.02 1.26-0.4 2.42-1.05 3.4 -0.12 0.17-0.24 0.33-0.36 0.5 -1.31 1.7-3 3.1-4.95 4.04 -2.01-0.98-3.75-2.43-5.07-4.2 -0.05-0.06-0.09-0.13-0.14-0.19 -0.64-0.92-1.05-2.02-1.13-3.2 -0.01-0.14-0.01-0.29-0.01-0.44 0-0.15 0.01-0.29 0.01-0.44C38.05 2.42 39.61 1 41.5 1c1.05 0 2 0.44 2.67 1.15C44.84 1.44 45.79 1 46.84 1M46.84 0c-0.96 0-1.89 0.3-2.67 0.84C43.39 0.29 42.47 0 41.5 0c-2.38 0-4.38 1.78-4.65 4.14 0 0.02 0 0.03 0 0.05 -0.01 0.17-0.02 0.33-0.02 0.5 0 0.17 0.01 0.34 0.02 0.5 0.09 1.33 0.54 2.61 1.31 3.71l0.15 0.21c1.43 1.92 3.3 3.48 5.44 4.51 0.14 0.07 0.29 0.1 0.44 0.1 0.15 0 0.3-0.03 0.44-0.1 2.07-1 3.9-2.5 5.31-4.33 0.13-0.17 0.26-0.35 0.39-0.53 0.79-1.19 1.21-2.55 1.23-3.96l0-0.11C51.53 2.1 49.43 0 46.84 0L46.84 0z"/>
  <path fill="currentColor" d="M56.14 16.21c2.32 0 4.2 1.88 4.2 4.2 0 0.04 0 0.07 0 0.11 -0.02 1.43-0.46 2.76-1.19 3.87 -0.13 0.19-0.27 0.38-0.41 0.56 -1.49 1.94-3.42 3.53-5.64 4.6 -2.29-1.11-4.27-2.76-5.77-4.79 -0.05-0.07-0.11-0.15-0.16-0.22 -0.73-1.05-1.19-2.29-1.28-3.64 -0.01-0.16-0.02-0.33-0.02-0.5 0-0.17 0.01-0.33 0.02-0.5 0.25-2.09 2.02-3.7 4.17-3.7 1.2 0 2.28 0.5 3.04 1.31C53.86 16.72 54.94 16.21 56.14 16.21M56.14 15.21c-1.11 0-2.17 0.34-3.04 0.98 -0.88-0.64-1.93-0.98-3.04-0.98 -2.63 0-4.85 1.97-5.16 4.59 0 0.02 0 0.03 0 0.05 -0.01 0.19-0.02 0.37-0.02 0.56 0 0.19 0.01 0.38 0.02 0.56 0.1 1.49 0.61 2.93 1.46 4.15l0.17 0.24c1.61 2.16 3.73 3.92 6.14 5.09 0.14 0.07 0.29 0.1 0.44 0.1 0.15 0 0.3-0.03 0.44-0.1 2.34-1.13 4.41-2.82 5.99-4.89 0.15-0.2 0.3-0.4 0.44-0.6 0.88-1.33 1.35-2.86 1.37-4.43l0-0.12C61.33 17.55 59 15.21 56.14 15.21L56.14 15.21z"/>
  <g id="SPLINE_1_">
    <path fill="none" stroke="currentColor" stroke-linecap="round" stroke-linejoin="round" stroke-miterlimit="10" d="M0.5 45.96c0-1.06-0.03-2.26 0.67-3.13 0.61-0.76 1.56-1.22 2.46-1.55 0.96-0.36 1.95-0.6 2.96-0.79 2.14-0.4 4.31-0.53 6.48-0.55 1.22 0.01 2.44 0.05 3.66 0.16 2.06 0.19 4.2 0.51 6.13 1.3 0.88 0.36 1.81 0.87 2.32 1.71 0.5 0.83 0.46 1.91 0.46 2.84"/>
  </g>
  <ellipse fill="none" stroke="currentColor" stroke-linecap="round" stroke-linejoin="round" stroke-miterlimit="10" cx="13.07" cy="43.31" rx="4.09" ry="1.11"/>
  <path fill="none" stroke="currentColor" stroke-linecap="round" stroke-linejoin="round" stroke-miterlimit="10" d="M25.63 50.52c0 1.88-5.62 3.4-12.56 3.4S0.5 52.4 0.5 50.52"/>
  <circle fill="none" stroke="currentColor" stroke-linecap="round" stroke-linejoin="round" stroke-miterlimit="10" cx="13.07" cy="49.92" r="0.8"/>
  <line fill="none" stroke="currentColor" stroke-linecap="round" stroke-linejoin="round" stroke-miterlimit="10" x1="0.5" y1="180.09" x2="0.5" y2="50.31"/>
  <line fill="none" stroke="currentColor" stroke-linecap="round" stroke-linejoin="round" stroke-miterlimit="10" x1="0.5" y1="50.31" x2="0.5" y2="45.96"/>
  <path fill="none" stroke="currentColor" stroke-linecap="round" stroke-linejoin="round" stroke-miterlimit="10" d="M25.62 180.09c0 1.98-5.61 3.59-12.55 3.59S0.5 182.07 0.5 180.09"/>
  <line fill="none" stroke="currentColor" stroke-linecap="round" stroke-linejoin="round" stroke-miterlimit="10" x1="25.61" y1="184.3" x2="25.61" y2="186.44"/>
  <line fill="none" stroke="currentColor" stroke-linecap="round" stroke-linejoin="round" stroke-miterlimit="10" x1="0.5" y1="184.3" x2="0.5" y2="186.44"/>
  <path fill="none" stroke="currentColor" stroke-linecap="round" stroke-linejoin="round" stroke-miterlimit="10" d="M25.62 186.44c0 1.94-5.62 3.51-12.55 3.51s-12.55-1.57-12.55-3.51"/>
  <line fill="none" stroke="currentColor" stroke-linecap="round" stroke-linejoin="round" stroke-miterlimit="10" x1="25.63" y1="180.09" x2="25.63" y2="45.96"/>
  <path fill="none" stroke="currentColor" stroke-linecap="round" stroke-linejoin="round" stroke-miterlimit="10" d="M23.19 182.22c1.53 0.56 2.43 1.24 2.43 1.98 0 1.85-5.62 3.35-12.55 3.35s-12.55-1.5-12.55-3.35c0-0.74 0.9-1.43 2.43-1.98"/>
  <path fill="none" stroke="currentColor" stroke-linecap="round" stroke-linejoin="round" stroke-miterlimit="10" d="M13.82 151.39h-1.51c-0.61 0-1.1-0.49-1.1-1.1v-8.54c0-0.61 0.49-1.1 1.1-1.1h1.51c0.61 0 1.1 0.49 1.1 1.1v8.54C14.92 150.89 14.43 151.39 13.82 151.39z"/>
</svg>
