<svg id="heart-joule" xmlns="http://www.w3.org/2000/svg" version="1.1" x="0" y="0" width="95" height="95" viewBox="0 0 95 95" enable-background="new 0 0 95.0392 95.0392" xml:space="preserve"><path fill="none" stroke="currentColor" stroke-width="2" stroke-miterlimit="10" d="M70.5 47.1c-1-1.6-2.7-2.6-4.4-3.2 -3.7-1.5-7.7-2.1-11.7-2.5 -2.3-0.2-4.6-0.3-7-0.3 -4.1 0-8.3 0.3-12.3 1 -1.9 0.4-3.8 0.8-5.6 1.5 -1.7 0.6-3.5 1.5-4.7 3 -1.3 1.7-1.3 3.9-1.3 6v34.9c7 4.2 15.2 6.6 23.9 6.6 8.7 0 16.9-2.4 23.9-6.6v-34.9C71.4 50.7 71.5 48.7 70.5 47.1zM47.5 45.3c4.3 0 7.8 0.9 7.8 2.1 0 1.2-3.5 2.1-7.8 2.1s-7.8-0.9-7.8-2.1C39.7 46.3 43.2 45.3 47.5 45.3zM49 60c0 0.8-0.7 1.5-1.5 1.5s-1.5-0.7-1.5-1.5 0.7-1.5 1.5-1.5S49 59.2 49 60zM47.5 67.6c-13.2 0-23.9-2.9-23.9-6.5C23.6 64.7 34.3 67.6 47.5 67.6s23.9-2.9 23.9-6.5C71.4 64.7 60.7 67.6 47.5 67.6z"></path><circle fill="none" stroke="currentColor" stroke-width="2" stroke-miterlimit="10" cx="47.5" cy="47.5" r="46.5"></circle><path fill="currentColor" d="M51.7 12.9c3.2 0 5.8 2.6 5.8 5.8 0 0.1 0 0.1 0 0.1 0 2-0.6 3.8-1.6 5.4 -0.2 0.3-0.4 0.5-0.6 0.8 -2.1 2.7-4.7 4.9-7.8 6.4 -3.2-1.5-5.9-3.8-8-6.6 -0.1-0.1-0.1-0.2-0.2-0.3 -1-1.4-1.6-3.2-1.8-5 0-0.2 0-0.5 0-0.7 0-0.2 0-0.5 0-0.7 0.3-2.9 2.8-5.1 5.8-5.1 1.7 0 3.1 0.7 4.2 1.8C48.6 13.6 50.1 12.9 51.7 12.9M51.7 10.9c-1.5 0-3 0.4-4.2 1.2 -1.2-0.8-2.7-1.2-4.2-1.2 -4 0-7.3 3-7.7 6.9 0 0 0 0.1 0 0.1 0 0.3 0 0.5 0 0.8 0 0.3 0 0.5 0 0.8 0.1 2.2 0.9 4.3 2.1 6l0.2 0.3c2.3 3.1 5.3 5.6 8.7 7.2 0.3 0.1 0.6 0.2 0.9 0.2 0.3 0 0.6-0.1 0.9-0.2 3.3-1.6 6.3-4 8.5-6.9 0.2-0.3 0.4-0.6 0.6-0.8 0 0 0 0 0 0 1.3-1.9 1.9-4.1 2-6.4l0-0.2C59.5 14.4 56 10.9 51.7 10.9L51.7 10.9z"></path></svg>
