<svg id="help" xmlns="http://www.w3.org/2000/svg" version="1.1" x="0" y="0" width="21.3" height="21.5" viewBox="0 0 21.3 21.5" enable-background="new 0 0 21.3412 21.5" xml:space="preserve"><path fill="none" stroke="currentColor" stroke-width="1.5" stroke-linecap="round" stroke-linejoin="round" stroke-miterlimit="10" d="M20.6 10.7c0 2.4-0.9 4.7-2.3 6.4 0 0 0.2 2.5 0.8 3.6 0.2 0.3-3.8-1.2-4-1.1 -1.3 0.7-2.8 1-4.4 1 -5.5 0-9.9-4.4-9.9-9.9S5.2 0.8 10.7 0.8 20.6 5.2 20.6 10.7z"/><ellipse transform="matrix(0.9969 -0.0788 0.0788 0.9969 -0.8267 0.5621)" fill="currentColor" cx="6.7" cy="10.8" rx="1.1" ry="1.1"/><ellipse transform="matrix(0.9969 -0.0788 0.0788 0.9969 -0.8143 0.8747)" fill="currentColor" cx="10.7" cy="10.8" rx="1.1" ry="1.1"/><ellipse transform="matrix(0.9969 -0.0788 0.0788 0.9969 -0.802 1.1874)" fill="currentColor" cx="14.6" cy="10.8" rx="1.1" ry="1.1"/></svg>
