<svg id="jouleLogo" xmlns="http://www.w3.org/2000/svg" version="1.1" baseProfile="tiny" x="0" y="0" width="262.2" height="116.1" viewBox="0 0 262.2 116.1" xml:space="preserve"><path fill="currentColor" d="M0 51.8l14.9-2.7v7.3c0.1 8.2 4.7 11.9 11 11.9 6.5 0 10.6-4.6 10.6-11.6V1.7H52v55.1C52 71.1 41.6 83 26.1 83 10.3 83 0 72.7 0 57.1V51.8zM117.1 53.7c0 17-12.5 29.3-29 29.3 -16.5 0-29-12.4-29-29.3 0-17.1 12.5-29.3 29-29.3C104.6 24.4 117.1 36.6 117.1 53.7zM102.1 53.7c0-10.4-6.7-15.7-14-15.7 -7.3 0-14 5.3-14 15.7 0 10.3 6.7 15.7 14 15.7C95.4 69.4 102.1 64.2 102.1 53.7zM159.9 75.4c-3 5.2-9.4 7.4-15.3 7.4 -13.4 0-21-9.8-21-21.8V26.1h14.9V58c0 6.2 3.1 11.1 10.1 11.1 6.6 0 10.4-4.5 10.4-10.9V26.1H174v45.3c0 4.3 0.3 8.1 0.6 10h-14.3C160.1 80.2 159.9 77.6 159.9 75.4zM185.5 81.4V0h14.9v81.4H185.5zM261.4 65.5c-2.8 9.6-11.6 17.5-25.2 17.5 -15.2 0-28.5-10.9-28.5-29.6 0-17.6 13-29.1 27.2-29.1 17.1 0 27.3 10.9 27.3 28.7 0 2.1-0.2 4.4-0.2 4.6h-39.6c0.3 7.3 6.5 12.6 13.9 12.6 7 0 10.8-3.5 12.6-8.4L261.4 65.5zM247.5 47.4c-0.2-5.5-3.8-10.9-12.4-10.9 -7.8 0-12 5.8-12.4 10.9H247.5z"></path><path fill="currentColor" d="M22.4 100.8c-0.2-1-1-2.4-3-2.4 -1.6 0-2.6 1-2.6 2.2 0 1 0.6 1.7 1.8 2l2.2 0.5c2.7 0.5 4.2 2.3 4.2 4.4 0 2.4-1.9 4.7-5.4 4.7 -3.9 0-5.7-2.5-5.9-4.7l2.4-0.7c0.2 1.6 1.3 3.1 3.5 3.1 1.8 0 2.8-0.9 2.8-2.1 0-1-0.7-1.8-2.1-2.1l-2.2-0.5c-2.3-0.5-3.9-2-3.9-4.3 0-2.6 2.4-4.7 5.2-4.7 3.6 0 5 2.2 5.4 3.9L22.4 100.8zM37.3 106.5c0 3.2-2.3 5.6-5.5 5.6 -3.1 0-5.4-2.4-5.4-5.6 0-3.2 2.3-5.6 5.4-5.6C35 100.9 37.3 103.3 37.3 106.5zM34.8 106.5c0-2.2-1.4-3.3-2.9-3.3 -1.5 0-2.9 1.1-2.9 3.3 0 2.2 1.4 3.4 2.9 3.4C33.4 109.9 34.8 108.7 34.8 106.5zM43.5 112.1c-2.5 0-4-1.9-4-4.2v-6.6h2.5v6.2c0 1.3 0.6 2.4 2.1 2.4 1.4 0 2.2-1 2.2-2.4v-6.2h2.5v8.6c0 0.9 0.1 1.5 0.1 1.9h-2.4c0-0.2-0.1-0.7-0.1-1.2C46 111.6 44.8 112.1 43.5 112.1zM53.4 108.3c0.1 1 0.8 1.8 2.1 1.8 1 0 1.6-0.6 1.6-1.2 0-0.6-0.4-1-1.2-1.2l-1.6-0.3c-1.9-0.4-2.8-1.6-2.8-3.1 0-1.8 1.7-3.4 3.9-3.4 2.9 0 3.9 1.9 4.1 2.9l-2.1 0.6c-0.1-0.6-0.5-1.6-1.9-1.6 -0.9 0-1.5 0.6-1.5 1.2 0 0.6 0.4 1 1.1 1.1l1.6 0.3c2 0.4 3 1.6 3 3.2 0 1.6-1.3 3.4-4 3.4 -3 0-4.2-2-4.3-3.2L53.4 108.3zM77.4 96.5h2.7l-5.8 15.3h-2.6L66 96.5h2.8l4.3 11.9L77.4 96.5zM83.2 95.9c0.9 0 1.6 0.7 1.6 1.6 0 0.9-0.7 1.6-1.6 1.6 -0.9 0-1.6-0.7-1.6-1.6C81.5 96.7 82.3 95.9 83.2 95.9zM81.9 111.8v-10.5h2.5v10.5H81.9zM97.4 109.9c0 1 0.1 1.8 0.1 1.9h-2.4c0-0.2-0.1-0.9-0.1-1.4 -0.5 0.9-1.6 1.6-3.1 1.6 -3 0-5.1-2.4-5.1-5.6 0-3 2.1-5.5 5-5.5 1.8 0 2.8 0.8 3.1 1.5v-6.4h2.4V109.9zM92.2 109.8c1.6 0 2.8-1.4 2.8-3.4s-1.1-3.3-2.8-3.3 -2.9 1.3-2.9 3.3C89.4 108.5 90.5 109.8 92.2 109.8zM110 108.8c-0.6 1.8-2.2 3.3-4.8 3.3 -2.9 0-5.4-2.1-5.4-5.6 0-3.3 2.5-5.5 5.1-5.5 3.2 0 5.1 2.1 5.1 5.5 0 0.4 0 0.8-0.1 0.8h-7.7c0.1 1.6 1.3 2.7 2.9 2.7 1.5 0 2.3-0.8 2.6-1.8L110 108.8zM107.6 105.4c0-1.2-0.9-2.3-2.6-2.3 -1.6 0-2.5 1.2-2.6 2.3H107.6zM117.9 111.8V96.1h2.5v6.4c0.5-0.8 1.7-1.6 3.3-1.6 3.2 0 4.9 2.4 4.9 5.5 0 3.2-1.9 5.6-5 5.6 -1.5 0-2.6-0.6-3.2-1.7v1.4H117.9zM123.2 103.2c-1.6 0-2.8 1.2-2.8 3.3 0 2.1 1.2 3.3 2.8 3.3 1.6 0 2.8-1.3 2.8-3.3C126 104.4 124.8 103.2 123.2 103.2zM131 116.1l2.5-5.5 -4.5-9.3h2.8l3 6.7 2.8-6.7h2.7l-6.7 14.8H131zM146.9 104.1c0-5 3.7-8 7.7-8 3.9 0 6.2 2.3 6.9 5l-2.4 0.8c-0.5-1.9-1.9-3.4-4.5-3.4 -2.5 0-5.1 1.8-5.1 5.6 0 3.6 2.5 5.5 5.1 5.5 2.6 0 4-1.6 4.6-3.4l2.4 0.8c-0.7 2.6-3 5.1-6.9 5.1C150.5 112.1 146.9 109.1 146.9 104.1zM166.2 111.8h-2.5V96.1h2.5v6.1c0.7-0.9 1.9-1.3 3-1.3 2.6 0 3.8 1.9 3.8 4.2v6.7h-2.5v-6.2c0-1.3-0.6-2.3-2.2-2.3 -1.4 0-2.1 1-2.2 2.4V111.8zM185.5 108.8c-0.6 1.8-2.2 3.3-4.8 3.3 -2.9 0-5.4-2.1-5.4-5.6 0-3.3 2.5-5.5 5.1-5.5 3.2 0 5.1 2.1 5.1 5.5 0 0.4 0 0.8-0.1 0.8h-7.7c0.1 1.6 1.3 2.7 2.9 2.7 1.5 0 2.3-0.8 2.6-1.8L185.5 108.8zM183.1 105.4c0-1.2-0.9-2.3-2.6-2.3 -1.6 0-2.5 1.2-2.6 2.3H183.1zM191.1 99.9v1.4h2.4v2.2h-2.4v8.3h-2.5v-8.3h-1.8v-2.2h1.8v-1.4c0-2.4 1.5-3.8 3.7-3.8 0.6 0 1.1 0.1 1.3 0.2v2.1c-0.2 0-0.4-0.1-0.9-0.1C192 98.3 191.1 98.6 191.1 99.9zM203.5 100.8c-0.1-1-1-2.4-3-2.4 -1.6 0-2.6 1-2.6 2.2 0 1 0.6 1.7 1.8 2l2.2 0.5c2.7 0.5 4.2 2.3 4.2 4.4 0 2.4-1.9 4.7-5.4 4.7 -3.9 0-5.7-2.5-5.9-4.7l2.4-0.7c0.1 1.6 1.3 3.1 3.5 3.1 1.8 0 2.8-0.9 2.8-2.1 0-1-0.7-1.8-2.1-2.1l-2.2-0.5c-2.3-0.5-3.9-2-3.9-4.3 0-2.6 2.4-4.7 5.2-4.7 3.6 0 5 2.2 5.4 3.9L203.5 100.8zM211.6 101.3h2.2v2.2h-2.2v4.9c0 0.9 0.4 1.3 1.3 1.3 0.3 0 0.8-0.1 0.9-0.1v2.1c-0.2 0.1-0.6 0.2-1.5 0.2 -1.9 0-3.2-1.2-3.2-3.1v-5.3h-1.9v-2.2h0.5c1.1 0 1.6-0.7 1.6-1.6V98h2.3V101.3zM225.6 108.8c-0.6 1.8-2.2 3.3-4.8 3.3 -2.9 0-5.4-2.1-5.4-5.6 0-3.3 2.5-5.5 5.1-5.5 3.2 0 5.1 2.1 5.1 5.5 0 0.4 0 0.8-0.1 0.8H218c0.1 1.6 1.3 2.7 2.9 2.7 1.5 0 2.3-0.8 2.6-1.8L225.6 108.8zM223.2 105.4c0-1.2-0.9-2.3-2.6-2.3 -1.6 0-2.5 1.2-2.6 2.3H223.2zM228.1 115.9v-14.6h2.4v1.4c0.5-0.9 1.7-1.7 3.4-1.7 3.1 0 4.9 2.4 4.9 5.5 0 3.2-1.9 5.5-5 5.5 -1.5 0-2.7-0.6-3.2-1.4v5.3H228.1zM233.4 103.2c-1.6 0-2.8 1.3-2.8 3.3 0 2 1.2 3.3 2.8 3.3 1.7 0 2.8-1.3 2.8-3.3C236.3 104.5 235.1 103.2 233.4 103.2zM242.4 108.3c0.1 1 0.8 1.8 2.1 1.8 1 0 1.6-0.6 1.6-1.2 0-0.6-0.4-1-1.2-1.2l-1.6-0.3c-1.9-0.4-2.8-1.6-2.8-3.1 0-1.8 1.7-3.4 3.9-3.4 2.9 0 3.9 1.9 4.1 2.9l-2.1 0.6c-0.1-0.6-0.5-1.6-1.9-1.6 -0.9 0-1.5 0.6-1.5 1.2 0 0.6 0.4 1 1.1 1.1l1.6 0.3c2 0.4 3 1.6 3 3.2 0 1.6-1.3 3.4-4 3.4 -3 0-4.2-2-4.3-3.2L242.4 108.3z"></path></svg>
