<svg id="joule-support" xmlns="http://www.w3.org/2000/svg" version="1.1" x="0" y="0" width="69.5" height="66.3" viewBox="0 0 69.5 66.3" enable-background="new 0 0 69.5 66.2997" xml:space="preserve"><path fill="none" stroke="currentColor" stroke-width="1.5" stroke-linecap="round" stroke-linejoin="round" stroke-miterlimit="10" d="M63.4 18.3c1.4-1.6 0.8-4-1.1-7 -1-1.5-2.8-3.6-4.6-4.6 -2.4-1.4-4.3-2.2-6.1-1.2"></path><ellipse fill="none" stroke="currentColor" stroke-width="1.5" stroke-linecap="round" stroke-linejoin="round" stroke-miterlimit="10" cx="60.4" cy="4.6" rx="0.6" ry="0.4"></ellipse><ellipse transform="matrix(0.7379 -0.6749 0.6749 0.7379 -37.4316 20.3189)" fill="none" stroke="currentColor" stroke-width="1.5" stroke-linecap="round" stroke-linejoin="round" stroke-miterlimit="10" cx="7.4" cy="58.4" rx="2.8" ry="9.1"></ellipse><path fill="none" stroke="currentColor" stroke-width="1.5" stroke-linecap="round" stroke-linejoin="round" stroke-miterlimit="10" d="M1.8 55.3c0 0-1.7-3-0.8-3.9 0.4-0.4 2.1-2.1 2.1-2.1 1.2-0.8 4.9 1.5 8.4 5.3 3.5 3.8 5.4 7.6 4.5 8.8 0 0-1.5 1.6-1.9 1.9 -1.1 1.1-4.1-1-4.1-1M6 49.8c-0.5-1.2-0.5-2.1 0-2.6 1.1-1 4.8 1.1 8.2 4.8s5.2 7.5 4.1 8.6c-0.5 0.4-1.4 0.3-2.6-0.3M15.6 60.4c1 0.5 2.4 1.1 3.1 0.4 0 0 48.2-45.7 49-46.4 1.6-1.6 1.4-4.5-0.5-7.5 -1-1.5-2.8-3.6-4.6-4.6 -2.4-1.4-4.2-1.8-5.7-1.2 -0.9 0.3-1.8 1.2-2.8 2.2L5.6 46.9M5.9 49.7c-0.4-1-0.8-2.3-0.3-2.8M13.4 56.8c0 0 0.8-2.7 1.8-3.3M8.9 51.9c0 0 2 0.1 3.6-1.5M31.7 34.1l-4 3.7c-0.2 0.2-0.6 0.2-0.8 0l-0.2-0.3c-0.2-0.2-0.2-0.6 0-0.8l4-3.7c0.2-0.2 0.6-0.2 0.8 0l0.2 0.3C32 33.5 31.9 33.9 31.7 34.1z"></path><path fill="none" stroke="currentColor" stroke-width="1.5" stroke-linecap="round" stroke-linejoin="round" stroke-miterlimit="10" d="M46.8 5.7c-3.7-1.6-7.8-2.5-12.1-2.5 -16.6 0-30 13.4-30 30 0 3.4 0.6 6.7 1.6 9.8M22.7 60.6c3.7 1.6 7.8 2.5 12.1 2.5 16.6 0 30-13.4 30-30 0-3.4-0.6-6.7-1.6-9.8"></path></svg>
