<svg id="joule-not-found" xmlns="http://www.w3.org/2000/svg" xmlns:xlink="http://www.w3.org/1999/xlink" xmlns:a="http://ns.adobe.com/AdobeSVGViewerExtensions/3.0/" version="1.1" x="0" y="0" width="123.74" height="183.79" viewBox="0 0 123.74 183.79" enable-background="new 0 0 123.74 183.79" xml:space="preserve">
  <path fill="currentColor" d="M39.14 28.86v-2.18c0-0.05 0.02-0.1 0.05-0.13l4.55-5.08c0.12-0.13 0.02-0.33-0.15-0.33h-4.13c-0.11 0-0.2-0.09-0.2-0.2v-2.02c0-0.11 0.09-0.2 0.2-0.2h7.95c0.11 0 0.2 0.09 0.2 0.2v2.06c0 0.05-0.02 0.1-0.05 0.13l-4.69 5.18c-0.12 0.13-0.03 0.33 0.15 0.33h4.48c0.11 0 0.2 0.09 0.2 0.2v2.04c0 0.11-0.09 0.2-0.2 0.2h-8.16C39.23 29.06 39.14 28.97 39.14 28.86z"/>
  <path fill="currentColor" d="M45.62 16.34v-1.49c0-0.05 0.02-0.1 0.05-0.13l3.17-3.54c0.12-0.13 0.02-0.33-0.15-0.33h-2.78c-0.11 0-0.2-0.09-0.2-0.2V9.31c0-0.11 0.09-0.2 0.2-0.2h5.6c0.11 0 0.2 0.09 0.2 0.2v1.4c0 0.05-0.02 0.1-0.05 0.13l-3.27 3.61c-0.12 0.13-0.03 0.33 0.15 0.33h3.03c0.11 0 0.2 0.09 0.2 0.2v1.35c0 0.11-0.09 0.2-0.2 0.2h-5.75C45.71 16.54 45.62 16.46 45.62 16.34z"/>
  <path fill="currentColor" d="M51.63 6.47V5.16c0-0.05 0.02-0.1 0.05-0.13l2.81-3.14c0.12-0.13 0.02-0.33-0.15-0.33h-2.43c-0.11 0-0.2-0.09-0.2-0.2V0.2c0-0.11 0.09-0.2 0.2-0.2h4.99c0.11 0 0.2 0.09 0.2 0.2v1.23c0 0.05-0.02 0.1-0.05 0.13l-2.9 3.2c-0.12 0.13-0.03 0.33 0.15 0.33h2.66c0.11 0 0.2 0.09 0.2 0.2v1.17c0 0.11-0.09 0.2-0.2 0.2h-5.12C51.71 6.67 51.63 6.58 51.63 6.47z"/>
  <path fill="currentColor" d="M119.62 63.45H92.2c-2.27 0-4.12-1.85-4.12-4.12V6.39c0-2.27 1.85-4.12 4.12-4.12h27.42c2.27 0 4.12 1.85 4.12 4.12v52.94C123.74 61.6 121.89 63.45 119.62 63.45zM92.2 3.26c-1.72 0-3.12 1.4-3.12 3.12v52.94c0 1.72 1.4 3.12 3.12 3.12h27.42c1.72 0 3.12-1.4 3.12-3.12V6.39c0-1.72-1.4-3.12-3.12-3.12H92.2z"/>
  <path fill="currentColor" d="M108.6 25.96h-5.38c-0.48 0-0.93-0.12-1.29-0.36 -1.06-0.68-1.94-1.63-2.53-2.74 -0.57-1.06-0.87-2.26-0.87-3.47 0-1.21 0.3-2.41 0.87-3.47 0.59-1.11 1.47-2.06 2.53-2.74 0.36-0.23 0.81-0.36 1.29-0.36h5.38c0.48 0 0.92 0.12 1.29 0.36 1.06 0.68 1.94 1.63 2.53 2.74 0.57 1.06 0.87 2.26 0.87 3.47 0 1.21-0.3 2.41-0.87 3.47 -0.59 1.11-1.47 2.06-2.53 2.74C109.52 25.84 109.08 25.96 108.6 25.96zM103.22 13.83c-0.29 0-0.55 0.07-0.75 0.2 -0.92 0.59-1.67 1.41-2.19 2.37 -0.49 0.92-0.75 1.95-0.75 3 0 1.06 0.25 2.07 0.75 3 0.51 0.96 1.27 1.78 2.19 2.37 0.2 0.13 0.46 0.2 0.75 0.2h5.38c0.29 0 0.55-0.07 0.75-0.2 0.92-0.59 1.67-1.41 2.19-2.37 0.5-0.93 0.75-1.94 0.75-3 0-1.05-0.26-2.08-0.75-3 -0.51-0.96-1.27-1.78-2.19-2.37 -0.2-0.13-0.46-0.2-0.75-0.2H103.22z"/>
  <path fill="currentColor" d="M103.41 19.9c-0.28 0-0.5-0.22-0.5-0.5v-3.06c0-0.28 0.22-0.5 0.5-0.5s0.5 0.22 0.5 0.5v3.06C103.91 19.67 103.68 19.9 103.41 19.9z"/>
  <path fill="currentColor" d="M108.28 19.9c-0.28 0-0.5-0.22-0.5-0.5v-3.06c0-0.28 0.22-0.5 0.5-0.5s0.5 0.22 0.5 0.5v3.06C108.78 19.67 108.56 19.9 108.28 19.9z"/>
  <path fill="currentColor" d="M105.91 24.15c-0.93 0-1.69-0.76-1.69-1.69s0.76-1.69 1.69-1.69 1.69 0.76 1.69 1.69S106.84 24.15 105.91 24.15zM105.91 21.77c-0.38 0-0.69 0.31-0.69 0.69s0.31 0.69 0.69 0.69 0.69-0.31 0.69-0.69S106.29 21.77 105.91 21.77z"/>
  <path fill="currentColor" d="M108.6 52.88h-5.38c-0.48 0-0.93-0.12-1.29-0.36 -1.06-0.68-1.94-1.63-2.53-2.74 -0.57-1.06-0.87-2.26-0.87-3.47 0-1.21 0.3-2.41 0.87-3.47 0.59-1.11 1.47-2.06 2.53-2.74 0.36-0.23 0.81-0.35 1.29-0.35h5.38c0.48 0 0.92 0.12 1.29 0.35 1.06 0.68 1.94 1.63 2.53 2.74 0.57 1.06 0.87 2.26 0.87 3.47 0 1.21-0.3 2.41-0.87 3.47 -0.59 1.11-1.47 2.06-2.53 2.74C109.52 52.76 109.08 52.88 108.6 52.88zM103.22 40.76c-0.29 0-0.55 0.07-0.75 0.2 -0.92 0.59-1.67 1.41-2.19 2.37 -0.49 0.92-0.75 1.95-0.75 3 0 1.04 0.26 2.08 0.75 3 0.51 0.96 1.27 1.78 2.19 2.37 0.2 0.13 0.46 0.2 0.75 0.2h5.38c0.29 0 0.55-0.07 0.75-0.2 0.92-0.59 1.67-1.41 2.19-2.37 0.49-0.92 0.75-1.95 0.75-3 0-1.05-0.26-2.08-0.75-3 -0.51-0.96-1.27-1.78-2.19-2.37 -0.2-0.13-0.46-0.2-0.75-0.2H103.22z"/>
  <path fill="currentColor" d="M103.41 46.82c-0.28 0-0.5-0.22-0.5-0.5v-3.06c0-0.28 0.22-0.5 0.5-0.5s0.5 0.22 0.5 0.5v3.06C103.91 46.6 103.68 46.82 103.41 46.82z"/>
  <path fill="currentColor" d="M108.28 46.82c-0.28 0-0.5-0.22-0.5-0.5v-3.06c0-0.28 0.22-0.5 0.5-0.5s0.5 0.22 0.5 0.5v3.06C108.78 46.6 108.56 46.82 108.28 46.82z"/>
  <path fill="currentColor" d="M105.91 51.07c-0.93 0-1.69-0.76-1.69-1.69s0.76-1.69 1.69-1.69 1.69 0.76 1.69 1.69S106.84 51.07 105.91 51.07zM105.91 48.69c-0.38 0-0.69 0.31-0.69 0.69s0.31 0.69 0.69 0.69 0.69-0.31 0.69-0.69S106.29 48.69 105.91 48.69z"/>
  <path fill="currentColor" d="M105.91 35.55c-1.49 0-2.7-1.21-2.7-2.7s1.21-2.7 2.7-2.7 2.7 1.21 2.7 2.7S107.39 35.55 105.91 35.55zM105.91 31.16c-0.93 0-1.7 0.76-1.7 1.7s0.76 1.7 1.7 1.7 1.7-0.76 1.7-1.7S106.84 31.16 105.91 31.16z"/>
  <path fill="currentColor" d="M105.35 33.91c-0.13 0-0.26-0.05-0.35-0.15 -0.2-0.2-0.2-0.51 0-0.71l1.11-1.11c0.2-0.2 0.51-0.2 0.71 0s0.2 0.51 0 0.71l-1.11 1.11C105.61 33.86 105.48 33.91 105.35 33.91z"/>
  <line fill="none" stroke="currentColor" stroke-linecap="round" stroke-linejoin="round" stroke-miterlimit="10" x1="30.15" y1="171.67" x2="30.15" y2="13.39"/>
  <line fill="none" stroke="currentColor" stroke-linecap="round" stroke-linejoin="round" stroke-miterlimit="10" x1="30.13" y1="176.63" x2="30.13" y2="179.15"/>
  <g id="SPLINE_1_">
    <path fill="none" stroke="currentColor" stroke-linecap="round" stroke-linejoin="round" stroke-miterlimit="10" d="M0.5 13.39c0-1.25-0.04-2.67 0.79-3.69 0.72-0.9 1.84-1.43 2.9-1.83C5.32 7.44 6.5 7.16 7.68 6.94c2.52-0.47 5.09-0.62 7.65-0.65 1.44 0.01 2.88 0.06 4.31 0.19 2.44 0.22 4.96 0.6 7.23 1.54 1.04 0.43 2.13 1.03 2.73 2.02 0.59 0.97 0.55 2.25 0.55 3.35"/>
  </g>
  <ellipse fill="none" stroke="currentColor" stroke-linecap="round" stroke-linejoin="round" stroke-miterlimit="10" cx="15.33" cy="10.26" rx="4.82" ry="1.31"/>
  <path fill="none" stroke="currentColor" stroke-linecap="round" stroke-linejoin="round" stroke-miterlimit="10" d="M30.15 18.77c0 2.22-6.64 4.02-14.82 4.02S0.5 20.99 0.5 18.77"/>
  <circle fill="none" stroke="currentColor" stroke-linecap="round" stroke-linejoin="round" stroke-miterlimit="10" cx="15.33" cy="18.06" r="0.95"/>
  <line fill="none" stroke="currentColor" stroke-linecap="round" stroke-linejoin="round" stroke-miterlimit="10" x1="0.5" y1="171.67" x2="0.5" y2="13.39"/>
  <path fill="none" stroke="currentColor" stroke-linecap="round" stroke-linejoin="round" stroke-miterlimit="10" d="M30.15 170.07c0 2.16-6.62 3.92-14.81 3.92S0.5 172.23 0.5 170.07"/>
  <path fill="none" stroke="currentColor" stroke-linecap="round" stroke-linejoin="round" stroke-miterlimit="10" d="M30.15 171.67c0 2.34-6.62 4.23-14.81 4.23S0.5 174 0.5 171.67"/>
  <line fill="none" stroke="currentColor" stroke-linecap="round" stroke-linejoin="round" stroke-miterlimit="10" x1="0.5" y1="176.63" x2="0.5" y2="179.15"/>
  <path fill="none" stroke="currentColor" stroke-linecap="round" stroke-linejoin="round" stroke-miterlimit="10" d="M30.14 179.15c0 2.29-6.63 4.14-14.81 4.14s-14.81-1.85-14.81-4.14"/>
  <path fill="none" stroke="currentColor" stroke-linecap="round" stroke-linejoin="round" stroke-miterlimit="10" d="M27.27 174.17c1.8 0.66 2.87 1.46 2.87 2.34 0 2.18-6.63 3.95-14.81 3.95s-14.81-1.77-14.81-3.95c0-0.87 1.06-1.68 2.87-2.34"/>
  <path fill="none" stroke="currentColor" stroke-linecap="round" stroke-linejoin="round" stroke-miterlimit="10" d="M16.21 137.31h-1.78c-0.72 0-1.3-0.58-1.3-1.3v-10.04c0-0.72 0.58-1.3 1.3-1.3h1.78c0.72 0 1.3 0.58 1.3 1.3v10.04C17.51 136.73 16.93 137.31 16.21 137.31z"/>
  <path fill="none" stroke="currentColor" stroke-linecap="round" stroke-linejoin="round" stroke-miterlimit="10" d="M105.37 122.6l2.88-0.91c1.23 0 2.44 2.53 0.83 4.14l0 0 -3.47 1.07"/>
  <path fill="none" stroke="currentColor" stroke-linecap="round" stroke-linejoin="round" stroke-miterlimit="10" d="M103.21 117.9l4.46-1.38"/>
  <path fill="none" stroke="currentColor" stroke-linecap="round" stroke-linejoin="round" stroke-miterlimit="10" d="M104.43 120.06l3.3-0.96"/>
  <path fill="none" stroke="currentColor" stroke-miterlimit="10" d="M30.15 99.84c0 37.92 19.04 69.96 41.58 69.96 9.06 0 23.75-2.86 24.71-6.66 0.37-1.47-2.13-4.78-10.41-9.27 -14.33-7.76-22.3-5.9-22.05-10.27 0.3-5.39 6.7-9.21 21.34-16.41 1.23-0.63 2.74-0.1 3.35 1.14 0.61 1.24 0.1 2.74-1.14 3.35 -6.18 3.04-17.57 8.64-18.57 11.08 0.54 0.62 5.84-0.65 19.46 6.72 6.28 3.4 14.45 8.65 12.87 14.89 -0.98 3.87-5.45 6.67-13.66 8.54 -5.67 1.3-12.22 1.89-15.9 1.89 -12.72 0-24.62-8.29-33.5-23.33 -3.34-5.66-5.92-11.48-8.04-18.36L30.15 99.84z"/>
  <path fill="none" stroke="currentColor" stroke-linecap="round" stroke-linejoin="round" stroke-miterlimit="10" d="M107.67 116.52c0.63 0.1 1.1 0.64 1.1 1.3 0 0.64-0.45 1.17-1.05 1.29"/>
  <path fill="none" stroke="currentColor" stroke-linecap="round" stroke-linejoin="round" stroke-miterlimit="10" d="M86.29 125.23c9.28-1.31 4.34-4.86 10.83-8.41 7.33-4.01 11.38 11.85 6.09 13.84 -7.02 2.04-6.52-3.23-14.63 2.34"/>
  <path fill="none" stroke="currentColor" stroke-linecap="round" stroke-linejoin="round" stroke-miterlimit="10" d="M84.24 127.72c0.55-3.61 4.5-3.09 5.73 0s-1.18 7.24-3.68 4.56"/>
</svg>
