<svg id="legal" xmlns="http://www.w3.org/2000/svg" version="1.1" x="0" y="0" width="20" height="22" viewBox="0 0 20 28" enable-background="new 0 0 20 28" xml:space="preserve"><path fill="currentColor" d="M18.9 2C19.5 2 20 2.5 20 3.1v21.8C20 25.5 19.5 26 18.9 26H3.1C2.5 26 2 25.5 2 24.9V3.1C2 2.5 2.5 2 3.1 2H18.9M18.9 0H3.1C1.4 0 0 1.4 0 3.1v21.8C0 26.6 1.4 28 3.1 28h15.8C20.6 28 22 26.6 22 24.9V3.1C22 1.4 20.6 0 18.9 0L18.9 0z"/><line fill="none" stroke="currentColor" stroke-width="2" stroke-linecap="round" stroke-miterlimit="10" x1="4" y1="6" x2="18" y2="6"/><line fill="none" stroke="currentColor" stroke-width="2" stroke-linecap="round" stroke-miterlimit="10" x1="4" y1="10" x2="18" y2="10"/><line fill="none" stroke="currentColor" stroke-width="2" stroke-linecap="round" stroke-miterlimit="10" x1="4" y1="14" x2="18" y2="14"/><line fill="none" stroke="currentColor" stroke-width="2" stroke-linecap="round" stroke-miterlimit="10" x1="4" y1="18" x2="17" y2="18"/><line fill="none" stroke="currentColor" stroke-width="2" stroke-linecap="round" stroke-miterlimit="10" x1="4" y1="22" x2="12" y2="22"/></svg>
