<svg xmlns="http://www.w3.org/2000/svg" xmlns:xlink="http://www.w3.org/1999/xlink" xmlns:a="http://ns.adobe.com/AdobeSVGViewerExtensions/3.0/" version="1.1" x="0px" y="0px" width="25.5611px" height="22.9539px" viewBox="0 0 25.5611 22.9539" enable-background="new 0 0 25.5611 22.9539" xml:space="preserve" id="loading">
  <defs/>
  <g>
    <g>
      <path fill="none" stroke="#FFFFFF" stroke-width="2" stroke-linecap="round" stroke-linejoin="round" stroke-miterlimit="10" d="M17.7645 20.6942c-0.4565 0.2474-0.9387 0.451-1.4331 0.6294 -1.1104 0.4006-2.3024 0.6302-3.5508 0.6302 -5.7864 0-10.4771-4.6907-10.4771-10.4769 0-1.2484 0.2297-2.4406 0.6304-3.5509"/>
      <polyline fill="none" stroke="#FFFFFF" stroke-width="2" stroke-linecap="round" stroke-linejoin="round" stroke-miterlimit="10" points=" 4.8458 8.9435 3.8187 6.1248 1 7.1519 "/>
    </g>
    <g>
      <path fill="none" stroke="#FFFFFF" stroke-width="2" stroke-linecap="round" stroke-linejoin="round" stroke-miterlimit="10" d="M7.7966 2.2596c0.4565-0.2474 0.9387-0.451 1.4331-0.6294C10.3401 1.2296 11.5321 1 12.7805 1c5.7864 0 10.4771 4.6907 10.4771 10.4769 0 1.2484-0.2297 2.4406-0.6304 3.5509"/>
      <polyline fill="none" stroke="#FFFFFF" stroke-width="2" stroke-linecap="round" stroke-linejoin="round" stroke-miterlimit="10" points=" 20.7153 14.0103 21.7424 16.829 24.5611 15.802 "/>
    </g>
  </g>
</svg>
