<svg xmlns="http://www.w3.org/2000/svg" xmlns:xlink="http://www.w3.org/1999/xlink" xmlns:a="http://ns.adobe.com/AdobeSVGViewerExtensions/3.0/" version="1.1" x="0" y="0" width="135.09" height="188.39" viewBox="0 0 135.09 188.39" enable-background="new 0 0 135.09 188.39" xml:space="preserve">
  <path fill="currentColor" d="M13.73 23.61c-0.03-0.17-0.05-0.33-0.05-0.53 0-0.68 0.28-1.31 1.01-1.86l0.62-0.46c0.39-0.28 0.55-0.63 0.55-1.02 0-0.59-0.42-1.16-1.28-1.16 -0.91 0-1.31 0.73-1.31 1.45 0 0.15 0.01 0.3 0.05 0.41l-1.62-0.06c-0.05-0.18-0.06-0.39-0.06-0.58 0-1.39 1.04-2.72 2.94-2.72 1.99 0 3.03 1.26 3.03 2.56 0 1.02-0.51 1.73-1.27 2.27l-0.53 0.37c-0.45 0.32-0.69 0.72-0.69 1.25v0.08H13.73zM14.45 24.45c0.57 0 1.03 0.46 1.03 1.03 0 0.57-0.46 1.02-1.03 1.02 -0.56 0-1.01-0.45-1.01-1.02C13.44 24.91 13.89 24.45 14.45 24.45z"/>
  <path fill="currentColor" d="M14.1 12.67c-0.02-0.1-0.03-0.2-0.03-0.32 0-0.42 0.17-0.8 0.62-1.14l0.38-0.28c0.24-0.17 0.34-0.39 0.34-0.62 0-0.36-0.26-0.71-0.79-0.71 -0.56 0-0.8 0.45-0.8 0.89 0 0.09 0.01 0.18 0.03 0.25l-0.99-0.04c-0.03-0.11-0.04-0.24-0.04-0.35 0-0.85 0.64-1.67 1.8-1.67 1.22 0 1.86 0.77 1.86 1.57 0 0.62-0.31 1.06-0.78 1.39l-0.32 0.23c-0.28 0.2-0.43 0.44-0.43 0.76v0.05H14.1zM14.54 13.18c0.35 0 0.63 0.28 0.63 0.63 0 0.35-0.28 0.62-0.63 0.62 -0.35 0-0.62-0.28-0.62-0.62C13.91 13.46 14.19 13.18 14.54 13.18z"/>
  <path fill="currentColor" d="M10.37 13.32c-0.04-0.09-0.08-0.19-0.12-0.3 -0.11-0.4-0.05-0.82 0.3-1.27l0.29-0.37c0.18-0.23 0.22-0.46 0.16-0.69 -0.1-0.35-0.44-0.62-0.95-0.48 -0.54 0.15-0.66 0.65-0.54 1.07 0.02 0.09 0.06 0.17 0.1 0.24l-0.97 0.22c-0.06-0.1-0.1-0.22-0.13-0.33 -0.22-0.82 0.17-1.78 1.3-2.09 1.18-0.32 2 0.25 2.21 1.02 0.16 0.6-0.02 1.11-0.38 1.55l-0.25 0.31c-0.21 0.26-0.29 0.54-0.21 0.85l0.01 0.05L10.37 13.32zM10.93 13.69c0.33-0.09 0.68 0.11 0.77 0.44 0.09 0.33-0.11 0.67-0.44 0.77 -0.33 0.09-0.67-0.1-0.77-0.44C10.4 14.13 10.59 13.79 10.93 13.69z"/>
  <path fill="currentColor" d="M6.97 14.91c-0.07-0.08-0.13-0.16-0.19-0.26 -0.21-0.36-0.26-0.78-0.04-1.3l0.18-0.44c0.12-0.27 0.1-0.5-0.02-0.71 -0.18-0.31-0.58-0.48-1.04-0.21 -0.48 0.28-0.46 0.79-0.24 1.18 0.05 0.08 0.1 0.15 0.15 0.2L4.9 13.83c-0.08-0.08-0.15-0.18-0.21-0.29 -0.43-0.73-0.3-1.76 0.71-2.35 1.05-0.62 1.99-0.28 2.4 0.41 0.32 0.54 0.27 1.08 0.03 1.6l-0.16 0.36c-0.14 0.31-0.14 0.6 0.02 0.87l0.02 0.04L6.97 14.91zM7.61 15.12c0.3-0.18 0.69-0.08 0.86 0.22 0.18 0.3 0.07 0.68-0.23 0.86 -0.3 0.18-0.68 0.08-0.85-0.22C7.22 15.68 7.32 15.3 7.61 15.12z"/>
  <path fill="currentColor" d="M17.92 13.04c0.01-0.1 0.03-0.21 0.06-0.32 0.11-0.4 0.38-0.73 0.91-0.93l0.44-0.17c0.27-0.1 0.43-0.28 0.49-0.51 0.1-0.35-0.06-0.75-0.57-0.89 -0.54-0.15-0.89 0.22-1.01 0.64 -0.03 0.09-0.04 0.18-0.04 0.25l-0.95-0.3c0-0.11 0.03-0.24 0.06-0.35 0.23-0.82 1.06-1.44 2.19-1.13 1.18 0.33 1.58 1.24 1.37 2.01 -0.17 0.6-0.59 0.94-1.13 1.13l-0.37 0.13c-0.32 0.12-0.53 0.31-0.61 0.62l-0.01 0.05L17.92 13.04zM18.21 13.65c0.33 0.09 0.53 0.44 0.44 0.78 -0.09 0.33-0.44 0.52-0.77 0.43 -0.33-0.09-0.53-0.43-0.43-0.77C17.54 13.76 17.88 13.56 18.21 13.65z"/>
  <path fill="currentColor" d="M21.76 15.18c0.29 0.18 0.39 0.57 0.2 0.87 -0.18 0.29-0.57 0.38-0.86 0.2 -0.3-0.18-0.38-0.56-0.2-0.86C21.08 15.09 21.46 14.99 21.76 15.18zM21.65 14.51c0.04-0.1 0.08-0.19 0.14-0.29 0.22-0.36 0.57-0.59 1.13-0.64l0.47-0.04c0.29-0.02 0.49-0.15 0.62-0.35 0.19-0.31 0.15-0.74-0.3-1.02 -0.48-0.29-0.92-0.04-1.15 0.33 -0.05 0.08-0.09 0.16-0.11 0.23l-0.82-0.56c0.03-0.11 0.09-0.22 0.15-0.32 0.45-0.72 1.42-1.08 2.41-0.47 1.04 0.64 1.17 1.64 0.76 2.31 -0.33 0.53-0.83 0.74-1.4 0.77l-0.39 0.03c-0.34 0.02-0.59 0.15-0.76 0.42l-0.03 0.04L21.65 14.51z"/>
  <path fill="currentColor" d="M14.1 4c-0.02-0.1-0.03-0.2-0.03-0.32 0-0.42 0.17-0.8 0.62-1.14l0.38-0.28c0.24-0.17 0.34-0.39 0.34-0.62 0-0.36-0.26-0.71-0.79-0.71 -0.56 0-0.8 0.45-0.8 0.89 0 0.09 0.01 0.18 0.03 0.25l-0.99-0.04c-0.03-0.11-0.04-0.24-0.04-0.35 0-0.85 0.64-1.67 1.8-1.67 1.22 0 1.86 0.77 1.86 1.57 0 0.62-0.31 1.06-0.78 1.39l-0.32 0.23c-0.28 0.2-0.43 0.44-0.43 0.76V4H14.1zM14.54 4.51c0.35 0 0.63 0.28 0.63 0.63 0 0.35-0.28 0.62-0.63 0.62 -0.35 0-0.62-0.28-0.62-0.62C13.91 4.8 14.19 4.51 14.54 4.51z"/>
  <path fill="currentColor" d="M10.09 4.41c-0.03-0.1-0.06-0.2-0.08-0.31 -0.07-0.41 0.04-0.82 0.43-1.23l0.33-0.34C10.97 2.32 11.04 2.1 11 1.86c-0.06-0.36-0.37-0.66-0.89-0.57C9.55 1.38 9.39 1.86 9.46 2.3c0.02 0.09 0.04 0.18 0.07 0.24L8.54 2.66c-0.05-0.1-0.08-0.23-0.1-0.34C8.31 1.48 8.81 0.57 9.96 0.38c1.21-0.2 1.96 0.46 2.09 1.25 0.1 0.61-0.14 1.1-0.55 1.5l-0.28 0.28c-0.24 0.24-0.35 0.5-0.3 0.82l0.01 0.05L10.09 4.41zM10.61 4.85c0.34-0.06 0.67 0.18 0.72 0.52 0.06 0.34-0.18 0.66-0.52 0.72 -0.34 0.06-0.66-0.17-0.71-0.51C10.04 5.23 10.26 4.9 10.61 4.85z"/>
  <path fill="currentColor" d="M6.1 5.5C6.05 5.41 6 5.31 5.96 5.2c-0.13-0.4-0.09-0.82 0.22-1.28l0.27-0.39c0.17-0.24 0.2-0.48 0.12-0.7C6.46 2.49 6.1 2.24 5.6 2.41 5.07 2.59 4.98 3.1 5.12 3.52c0.03 0.09 0.07 0.17 0.11 0.23L4.28 4.03C4.22 3.93 4.17 3.81 4.13 3.7 3.86 2.9 4.2 1.92 5.3 1.54c1.16-0.39 2.01 0.13 2.27 0.89C7.77 3.02 7.61 3.54 7.28 4L7.04 4.32c-0.2 0.28-0.26 0.56-0.16 0.86L6.9 5.23 6.1 5.5zM6.68 5.84c0.33-0.11 0.69 0.07 0.8 0.39 0.11 0.33-0.07 0.68-0.4 0.79C6.75 7.14 6.41 6.97 6.29 6.64 6.18 6.31 6.35 5.95 6.68 5.84z"/>
  <path fill="currentColor" d="M2.43 7.18C2.37 7.1 2.3 7.01 2.25 6.91c-0.2-0.37-0.22-0.79 0.01-1.3l0.2-0.43c0.13-0.26 0.12-0.5 0.01-0.71C2.3 4.15 1.9 3.97 1.44 4.22c-0.49 0.26-0.5 0.77-0.29 1.16 0.04 0.08 0.09 0.16 0.15 0.21L0.4 6.02C0.32 5.94 0.25 5.83 0.2 5.73 -0.2 4.97-0.02 3.95 1 3.4c1.08-0.57 2-0.19 2.38 0.51C3.68 4.46 3.6 5 3.35 5.51L3.17 5.86C3.02 6.17 3 6.45 3.16 6.74l0.02 0.04L2.43 7.18zM3.06 7.42c0.31-0.16 0.69-0.05 0.85 0.26s0.04 0.68-0.26 0.85C3.34 8.69 2.97 8.58 2.8 8.27S2.75 7.59 3.06 7.42z"/>
  <path fill="currentColor" d="M18.6 4.32c0-0.1 0.01-0.21 0.03-0.32 0.08-0.41 0.32-0.76 0.82-1.01l0.42-0.21c0.26-0.13 0.4-0.32 0.45-0.55 0.07-0.36-0.13-0.74-0.65-0.84 -0.55-0.1-0.87 0.3-0.95 0.73C18.7 2.2 18.69 2.29 18.7 2.36l-0.97-0.22c-0.01-0.11 0-0.24 0.03-0.36 0.15-0.84 0.93-1.53 2.08-1.32 1.2 0.22 1.69 1.09 1.55 1.88 -0.11 0.61-0.5 0.99-1.02 1.23L20 3.75c-0.31 0.14-0.5 0.36-0.56 0.67l-0.01 0.05L18.6 4.32zM18.94 4.9c0.34 0.06 0.57 0.39 0.51 0.73 -0.06 0.34-0.39 0.56-0.73 0.5 -0.34-0.06-0.56-0.38-0.5-0.72C18.28 5.06 18.6 4.84 18.94 4.9z"/>
  <path fill="currentColor" d="M23.01 6c0.33 0.12 0.49 0.48 0.37 0.81 -0.12 0.33-0.48 0.49-0.81 0.37 -0.33-0.12-0.49-0.48-0.37-0.8C22.33 6.05 22.68 5.88 23.01 6zM22.77 5.36c0.02-0.1 0.04-0.2 0.08-0.31C23 4.66 23.3 4.36 23.84 4.19l0.45-0.14c0.28-0.08 0.45-0.24 0.53-0.47 0.13-0.34 0-0.76-0.49-0.94 -0.52-0.19-0.91 0.14-1.06 0.56 -0.03 0.09-0.06 0.17-0.06 0.25l-0.92-0.38c0.01-0.11 0.05-0.24 0.09-0.35 0.3-0.8 1.18-1.34 2.27-0.94 1.15 0.42 1.48 1.37 1.2 2.12 -0.22 0.58-0.66 0.89-1.21 1.04l-0.38 0.1c-0.33 0.09-0.55 0.27-0.66 0.57l-0.02 0.04L22.77 5.36z"/>
  <path fill="currentColor" d="M26.92 7.83c0.3 0.18 0.4 0.56 0.22 0.86 -0.18 0.3-0.56 0.39-0.86 0.22 -0.3-0.18-0.4-0.55-0.22-0.85C26.24 7.76 26.62 7.66 26.92 7.83zM26.8 7.17c0.04-0.1 0.08-0.19 0.14-0.3 0.21-0.36 0.56-0.6 1.12-0.67l0.47-0.05c0.29-0.03 0.49-0.16 0.61-0.36 0.18-0.31 0.13-0.74-0.32-1.01 -0.48-0.28-0.92-0.02-1.14 0.36 -0.05 0.08-0.08 0.16-0.1 0.23l-0.84-0.54c0.03-0.11 0.09-0.22 0.15-0.33 0.43-0.73 1.4-1.12 2.4-0.53 1.05 0.62 1.21 1.61 0.81 2.29 -0.32 0.54-0.81 0.76-1.38 0.81l-0.39 0.03c-0.34 0.03-0.59 0.17-0.75 0.44L27.54 7.6 26.8 7.17z"/>
  <g id="SPLINE_1_">
    <path fill="none" stroke="currentColor" stroke-linecap="round" stroke-linejoin="round" stroke-miterlimit="10" d="M2.58 43.9c0-1.06-0.03-2.26 0.67-3.13 0.61-0.76 1.56-1.22 2.46-1.55 0.96-0.36 1.95-0.6 2.96-0.79 2.14-0.4 4.31-0.53 6.48-0.55 1.22 0.01 2.44 0.05 3.66 0.16 2.06 0.19 4.2 0.51 6.13 1.3 0.88 0.36 1.81 0.87 2.32 1.71 0.5 0.83 0.46 1.91 0.46 2.84"/>
  </g>
  <ellipse fill="none" stroke="currentColor" stroke-linecap="round" stroke-linejoin="round" stroke-miterlimit="10" cx="15.15" cy="41.25" rx="4.09" ry="1.11"/>
  <path fill="none" stroke="currentColor" stroke-linecap="round" stroke-linejoin="round" stroke-miterlimit="10" d="M27.71 48.46c0 1.88-5.62 3.4-12.56 3.4s-12.56-1.52-12.56-3.4"/>
  <circle fill="none" stroke="currentColor" stroke-linecap="round" stroke-linejoin="round" stroke-miterlimit="10" cx="15.15" cy="47.86" r="0.8"/>
  <line fill="none" stroke="currentColor" stroke-linecap="round" stroke-linejoin="round" stroke-miterlimit="10" x1="2.58" y1="178.04" x2="2.58" y2="48.25"/>
  <line fill="none" stroke="currentColor" stroke-linecap="round" stroke-linejoin="round" stroke-miterlimit="10" x1="2.58" y1="48.25" x2="2.58" y2="43.9"/>
  <path fill="none" stroke="currentColor" stroke-linecap="round" stroke-linejoin="round" stroke-miterlimit="10" d="M27.71 178.04c0 1.98-5.61 3.59-12.55 3.59s-12.57-1.61-12.57-3.59"/>
  <line fill="none" stroke="currentColor" stroke-linecap="round" stroke-linejoin="round" stroke-miterlimit="10" x1="27.69" y1="182.24" x2="27.69" y2="184.38"/>
  <line fill="none" stroke="currentColor" stroke-linecap="round" stroke-linejoin="round" stroke-miterlimit="10" x1="2.58" y1="182.24" x2="2.58" y2="184.38"/>
  <path fill="none" stroke="currentColor" stroke-linecap="round" stroke-linejoin="round" stroke-miterlimit="10" d="M27.7 184.38c0 1.94-5.62 3.51-12.55 3.51s-12.55-1.57-12.55-3.51"/>
  <line fill="none" stroke="currentColor" stroke-linecap="round" stroke-linejoin="round" stroke-miterlimit="10" x1="27.71" y1="178.04" x2="27.71" y2="43.9"/>
  <path fill="none" stroke="currentColor" stroke-linecap="round" stroke-linejoin="round" stroke-miterlimit="10" d="M25.27 180.16c1.53 0.56 2.43 1.24 2.43 1.98 0 1.85-5.62 3.35-12.55 3.35s-12.55-1.5-12.55-3.35c0-0.74 0.9-1.43 2.43-1.98"/>
  <path fill="none" stroke="currentColor" stroke-linecap="round" stroke-linejoin="round" stroke-miterlimit="10" d="M15.9 149.33h-1.51c-0.61 0-1.1-0.49-1.1-1.1v-8.54c0-0.61 0.49-1.1 1.1-1.1h1.51c0.61 0 1.1 0.49 1.1 1.1v8.54C17 148.83 16.51 149.33 15.9 149.33z"/>
  <g id="XMLID_1_">
    <g id="XMLID_60_">
      <g id="XMLID_61_">
        <path id="XMLID_65_" fill="none" stroke="currentColor" stroke-linecap="round" stroke-linejoin="round" stroke-miterlimit="10" d="M125.78 175.62H87.67c-4.87 0-8.82-3.95-8.82-8.82V71.09c0-4.87 3.95-8.82 8.82-8.82h38.11c4.87 0 8.82 3.95 8.82 8.82v95.71C134.59 171.67 130.65 175.62 125.78 175.62z"/>
        <rect id="XMLID_64_" x="82.62" y="76.15" fill="none" stroke="currentColor" stroke-linecap="round" stroke-linejoin="round" stroke-miterlimit="10" width="48.21" height="85.68"/>
        <g id="XMLID_63_">
          <path fill="currentColor" d="M110.77 68.87c0.26 0 0.46 0.21 0.46 0.46 0 0.26-0.21 0.46-0.46 0.46h-8.1c-0.26 0-0.46-0.21-0.46-0.46 0-0.26 0.21-0.46 0.46-0.46H110.77M110.77 67.87h-8.1c-0.81 0-1.46 0.66-1.46 1.46s0.66 1.46 1.46 1.46h8.1c0.81 0 1.46-0.66 1.46-1.46S111.58 67.87 110.77 67.87L110.77 67.87z"/>
        </g>
        <circle id="XMLID_62_" fill="none" stroke="currentColor" stroke-linecap="round" stroke-linejoin="round" stroke-miterlimit="10" cx="106.72" cy="168.07" r="3.89"/>
      </g>
    </g>
    <g id="XMLID_7_">
      <g id="XMLID_56_">
        <path id="XMLID_57_" fill="currentColor" d="M105.31 50.99c-0.03-0.17-0.05-0.33-0.05-0.53 0-0.68 0.28-1.31 1.01-1.86l0.62-0.46c0.39-0.28 0.55-0.63 0.55-1.02 0-0.59-0.42-1.16-1.28-1.16 -0.91 0-1.31 0.73-1.31 1.45 0 0.15 0.01 0.3 0.05 0.41l-1.62-0.06c-0.05-0.18-0.06-0.39-0.06-0.58 0-1.39 1.04-2.72 2.94-2.72 1.99 0 3.03 1.26 3.03 2.56 0 1.02-0.51 1.73-1.27 2.27l-0.53 0.37c-0.45 0.32-0.69 0.72-0.69 1.25v0.08H105.31zM106.03 51.83c0.57 0 1.03 0.46 1.03 1.03 0 0.57-0.46 1.02-1.03 1.02 -0.56 0-1.01-0.45-1.01-1.02C105.02 52.29 105.47 51.83 106.03 51.83z"/>
      </g>
      <g id="XMLID_52_">
        <path id="XMLID_53_" fill="currentColor" d="M105.67 40.05c-0.02-0.1-0.03-0.2-0.03-0.32 0-0.42 0.17-0.8 0.62-1.14l0.38-0.28c0.24-0.17 0.34-0.39 0.34-0.62 0-0.36-0.26-0.71-0.79-0.71 -0.56 0-0.8 0.45-0.8 0.89 0 0.09 0.01 0.18 0.03 0.25l-0.99-0.04c-0.03-0.11-0.04-0.24-0.04-0.35 0-0.85 0.64-1.67 1.8-1.67 1.22 0 1.86 0.77 1.86 1.57 0 0.62-0.31 1.06-0.78 1.39l-0.32 0.23c-0.28 0.2-0.43 0.44-0.43 0.76v0.05H105.67zM106.12 40.56c0.35 0 0.63 0.28 0.63 0.63s-0.28 0.62-0.63 0.62c-0.35 0-0.62-0.28-0.62-0.62S105.77 40.56 106.12 40.56z"/>
      </g>
      <g id="XMLID_48_">
        <path id="XMLID_49_" fill="currentColor" d="M101.95 40.7c-0.04-0.09-0.08-0.19-0.12-0.3 -0.11-0.4-0.05-0.82 0.3-1.27l0.29-0.37c0.18-0.23 0.22-0.46 0.16-0.69 -0.1-0.35-0.44-0.62-0.95-0.48 -0.54 0.15-0.66 0.65-0.54 1.07 0.02 0.09 0.06 0.17 0.1 0.24l-0.97 0.22c-0.06-0.1-0.1-0.22-0.13-0.33 -0.22-0.82 0.17-1.78 1.3-2.09 1.18-0.32 2 0.25 2.21 1.02 0.16 0.6-0.02 1.11-0.38 1.55l-0.25 0.31c-0.21 0.26-0.29 0.54-0.21 0.85l0.01 0.05L101.95 40.7zM102.51 41.08c0.33-0.09 0.68 0.11 0.77 0.44 0.09 0.33-0.11 0.67-0.44 0.77 -0.33 0.09-0.67-0.1-0.77-0.44C101.98 41.51 102.17 41.17 102.51 41.08z"/>
      </g>
      <g id="XMLID_44_">
        <path id="XMLID_45_" fill="currentColor" d="M98.55 42.29c-0.07-0.08-0.13-0.16-0.19-0.26 -0.21-0.36-0.26-0.78-0.04-1.3l0.18-0.44c0.12-0.27 0.1-0.5-0.02-0.71 -0.18-0.31-0.58-0.48-1.04-0.21 -0.48 0.28-0.46 0.79-0.24 1.18 0.05 0.08 0.1 0.15 0.15 0.2l-0.88 0.47c-0.08-0.08-0.15-0.18-0.21-0.29 -0.43-0.73-0.3-1.76 0.71-2.35 1.05-0.62 1.99-0.28 2.4 0.41 0.32 0.54 0.27 1.08 0.03 1.6l-0.16 0.36c-0.14 0.31-0.14 0.6 0.02 0.87l0.02 0.04L98.55 42.29zM99.19 42.5c0.3-0.18 0.69-0.08 0.86 0.22 0.18 0.3 0.07 0.68-0.23 0.86 -0.3 0.18-0.68 0.08-0.85-0.22C98.8 43.06 98.89 42.68 99.19 42.5z"/>
      </g>
      <g id="XMLID_40_">
        <path id="XMLID_41_" fill="currentColor" d="M109.5 40.42c0.01-0.1 0.03-0.21 0.06-0.32 0.11-0.4 0.38-0.73 0.91-0.93L110.9 39c0.27-0.1 0.43-0.28 0.49-0.51 0.1-0.35-0.06-0.75-0.57-0.89 -0.54-0.15-0.89 0.22-1.01 0.64 -0.03 0.09-0.04 0.18-0.04 0.25l-0.95-0.3c0-0.11 0.03-0.24 0.06-0.35 0.23-0.82 1.06-1.44 2.19-1.13 1.18 0.33 1.58 1.24 1.37 2.01 -0.17 0.6-0.59 0.94-1.13 1.13l-0.37 0.13c-0.32 0.12-0.53 0.31-0.61 0.62l-0.01 0.05L109.5 40.42zM109.79 41.03c0.33 0.09 0.53 0.44 0.44 0.78 -0.09 0.33-0.44 0.52-0.77 0.43 -0.33-0.09-0.53-0.43-0.43-0.77C109.11 41.14 109.46 40.94 109.79 41.03z"/>
      </g>
      <g id="XMLID_36_">
        <path id="XMLID_37_" fill="currentColor" d="M113.34 42.56c0.29 0.18 0.39 0.57 0.2 0.87 -0.18 0.29-0.57 0.38-0.86 0.2 -0.3-0.18-0.38-0.56-0.2-0.86C112.66 42.47 113.04 42.37 113.34 42.56zM113.23 41.89c0.04-0.1 0.08-0.19 0.14-0.29 0.22-0.36 0.57-0.59 1.13-0.64l0.47-0.04c0.29-0.02 0.49-0.15 0.62-0.35 0.19-0.31 0.15-0.74-0.3-1.02 -0.48-0.29-0.92-0.04-1.15 0.33 -0.05 0.08-0.09 0.16-0.11 0.23l-0.82-0.56c0.03-0.11 0.09-0.22 0.15-0.32 0.45-0.72 1.42-1.08 2.41-0.47 1.04 0.64 1.17 1.64 0.76 2.31 -0.33 0.53-0.83 0.74-1.4 0.77l-0.39 0.03c-0.34 0.02-0.59 0.15-0.76 0.42l-0.03 0.04L113.23 41.89z"/>
      </g>
      <g id="XMLID_32_">
        <path id="XMLID_33_" fill="currentColor" d="M105.67 31.38c-0.02-0.1-0.03-0.2-0.03-0.32 0-0.42 0.17-0.8 0.62-1.14l0.38-0.28c0.24-0.17 0.34-0.39 0.34-0.62 0-0.36-0.26-0.71-0.79-0.71 -0.56 0-0.8 0.45-0.8 0.89 0 0.09 0.01 0.18 0.03 0.25l-0.99-0.04c-0.03-0.11-0.04-0.24-0.04-0.35 0-0.85 0.64-1.67 1.8-1.67 1.22 0 1.86 0.77 1.86 1.57 0 0.62-0.31 1.06-0.78 1.39l-0.32 0.23c-0.28 0.2-0.43 0.44-0.43 0.76v0.05H105.67zM106.12 31.89c0.35 0 0.63 0.28 0.63 0.63s-0.28 0.62-0.63 0.62c-0.35 0-0.62-0.28-0.62-0.62S105.77 31.89 106.12 31.89z"/>
      </g>
      <g id="XMLID_28_">
        <path id="XMLID_29_" fill="currentColor" d="M101.67 31.79c-0.03-0.1-0.06-0.2-0.08-0.31 -0.07-0.41 0.04-0.82 0.43-1.23l0.33-0.34c0.21-0.21 0.27-0.43 0.24-0.67 -0.06-0.36-0.37-0.66-0.89-0.57 -0.55 0.09-0.72 0.57-0.65 1.01 0.02 0.09 0.04 0.18 0.07 0.24l-0.99 0.12c-0.05-0.1-0.08-0.23-0.1-0.34 -0.14-0.84 0.36-1.75 1.51-1.94 1.21-0.2 1.96 0.46 2.09 1.25 0.1 0.61-0.14 1.1-0.55 1.5l-0.28 0.28c-0.24 0.24-0.35 0.5-0.3 0.82l0.01 0.05L101.67 31.79zM102.18 32.23c0.34-0.06 0.67 0.18 0.72 0.52 0.06 0.34-0.18 0.66-0.52 0.72 -0.34 0.06-0.66-0.17-0.71-0.51C101.62 32.61 101.84 32.28 102.18 32.23z"/>
      </g>
      <g id="XMLID_24_">
        <path id="XMLID_25_" fill="currentColor" d="M97.68 32.88c-0.05-0.09-0.1-0.18-0.13-0.3 -0.13-0.4-0.09-0.82 0.22-1.28l0.27-0.39c0.17-0.24 0.2-0.48 0.12-0.7 -0.12-0.34-0.47-0.59-0.97-0.42 -0.53 0.18-0.62 0.68-0.47 1.1 0.03 0.09 0.07 0.17 0.11 0.23l-0.95 0.28c-0.07-0.09-0.11-0.21-0.15-0.32 -0.27-0.81 0.07-1.79 1.17-2.16 1.16-0.39 2.01 0.13 2.27 0.89 0.2 0.59 0.04 1.11-0.29 1.57l-0.23 0.32c-0.2 0.28-0.26 0.56-0.16 0.86l0.02 0.05L97.68 32.88zM98.26 33.22c0.33-0.11 0.69 0.07 0.8 0.39 0.11 0.33-0.07 0.68-0.4 0.79 -0.33 0.11-0.68-0.06-0.79-0.39C97.76 33.69 97.93 33.33 98.26 33.22z"/>
      </g>
      <g id="XMLID_20_">
        <path id="XMLID_21_" fill="currentColor" d="M94.01 34.56c-0.06-0.08-0.12-0.17-0.18-0.27 -0.2-0.37-0.22-0.79 0.01-1.3l0.2-0.43c0.13-0.26 0.12-0.5 0.01-0.71 -0.17-0.32-0.56-0.5-1.03-0.26 -0.49 0.26-0.5 0.77-0.29 1.16 0.04 0.08 0.09 0.16 0.15 0.21l-0.9 0.43c-0.08-0.08-0.15-0.19-0.2-0.29 -0.4-0.75-0.22-1.77 0.81-2.32 1.08-0.57 2-0.19 2.38 0.51 0.29 0.55 0.22 1.09-0.03 1.6l-0.18 0.35c-0.15 0.3-0.17 0.59-0.02 0.87l0.02 0.04L94.01 34.56zM94.64 34.81c0.31-0.16 0.69-0.05 0.85 0.26 0.16 0.31 0.04 0.68-0.26 0.85 -0.31 0.16-0.68 0.05-0.84-0.26C94.22 35.35 94.33 34.97 94.64 34.81z"/>
      </g>
      <g id="XMLID_16_">
        <path id="XMLID_17_" fill="currentColor" d="M110.18 31.7c0-0.1 0.01-0.21 0.03-0.32 0.08-0.41 0.32-0.76 0.82-1.01l0.42-0.21c0.26-0.13 0.4-0.32 0.45-0.55 0.07-0.36-0.13-0.74-0.65-0.84 -0.55-0.1-0.87 0.3-0.95 0.73 -0.02 0.09-0.02 0.18-0.01 0.25l-0.97-0.22c-0.01-0.11 0-0.24 0.03-0.36 0.15-0.84 0.93-1.53 2.08-1.32 1.2 0.22 1.69 1.09 1.55 1.88 -0.11 0.61-0.5 0.99-1.02 1.23l-0.36 0.17c-0.31 0.14-0.5 0.36-0.56 0.67l-0.01 0.05L110.18 31.7zM110.52 32.28c0.34 0.06 0.57 0.39 0.51 0.73 -0.06 0.34-0.39 0.56-0.73 0.5 -0.34-0.06-0.56-0.38-0.5-0.72C109.86 32.45 110.18 32.22 110.52 32.28z"/>
      </g>
      <g id="XMLID_12_">
        <path id="XMLID_13_" fill="currentColor" d="M114.59 33.38c0.33 0.12 0.49 0.48 0.37 0.81 -0.12 0.33-0.48 0.49-0.81 0.37 -0.33-0.12-0.49-0.48-0.37-0.8C113.91 33.43 114.26 33.26 114.59 33.38zM114.35 32.74c0.02-0.1 0.04-0.2 0.08-0.31 0.15-0.39 0.44-0.69 0.98-0.86l0.45-0.14c0.28-0.08 0.45-0.24 0.53-0.47 0.13-0.34 0-0.76-0.49-0.94 -0.52-0.19-0.91 0.14-1.06 0.56 -0.03 0.09-0.06 0.17-0.06 0.25l-0.92-0.38c0.01-0.11 0.05-0.24 0.09-0.35 0.3-0.8 1.18-1.34 2.27-0.94 1.15 0.42 1.48 1.37 1.2 2.12 -0.22 0.58-0.66 0.89-1.21 1.04l-0.38 0.1c-0.33 0.09-0.55 0.27-0.66 0.57l-0.02 0.04L114.35 32.74z"/>
      </g>
      <g id="XMLID_8_">
        <path id="XMLID_9_" fill="currentColor" d="M118.5 35.21c0.3 0.18 0.4 0.56 0.22 0.86s-0.56 0.39-0.86 0.22 -0.4-0.55-0.22-0.85C117.82 35.14 118.2 35.04 118.5 35.21zM118.38 34.55c0.04-0.1 0.08-0.19 0.14-0.3 0.21-0.36 0.56-0.6 1.12-0.67l0.47-0.05c0.29-0.03 0.49-0.16 0.61-0.36 0.18-0.31 0.13-0.74-0.32-1.01 -0.48-0.28-0.92-0.02-1.14 0.36 -0.05 0.08-0.08 0.16-0.1 0.23l-0.84-0.54c0.03-0.11 0.09-0.22 0.15-0.33 0.43-0.73 1.4-1.12 2.4-0.53 1.05 0.62 1.21 1.61 0.81 2.29 -0.32 0.54-0.81 0.76-1.38 0.81l-0.39 0.03c-0.34 0.03-0.59 0.17-0.75 0.44l-0.02 0.04L118.38 34.55z"/>
      </g>
    </g>
    <g id="XMLID_2_">
      <path id="XMLID_6_" fill="none" stroke="currentColor" stroke-linecap="round" stroke-miterlimit="10" d="M95.48 126.31c2.91-2.83 6.87-4.58 11.24-4.58s8.34 1.75 11.24 4.58"/>
      <g id="XMLID_3_">
        <ellipse id="XMLID_5_" fill="none" stroke="currentColor" stroke-linecap="round" stroke-miterlimit="10" cx="114.09" cy="113.47" rx="0.57" ry="1.89"/>
        <ellipse id="XMLID_4_" fill="none" stroke="currentColor" stroke-linecap="round" stroke-miterlimit="10" cx="99.35" cy="113.47" rx="0.57" ry="1.89"/>
      </g>
    </g>
  </g>
</svg>
