<svg xmlns="http://www.w3.org/2000/svg" xmlns:xlink="http://www.w3.org/1999/xlink" xmlns:a="http://ns.adobe.com/AdobeSVGViewerExtensions/3.0/" version="1.1" x="0" y="0" width="168.46" height="195.96" viewBox="0 0 168.46 195.96" enable-background="new 0 0 168.46 195.96" xml:space="preserve">
  <line fill="none" stroke="currentColor" stroke-linecap="round" stroke-linejoin="round" stroke-miterlimit="10" x1="98.34" y1="173.06" x2="98.34" y2="22.42"/>
  <line fill="none" stroke="currentColor" stroke-linecap="round" stroke-linejoin="round" stroke-miterlimit="10" x1="98.32" y1="177.78" x2="98.32" y2="180.18"/>
  <g id="SPLINE_1_">
    <path fill="none" stroke="currentColor" stroke-linecap="round" stroke-linejoin="round" stroke-miterlimit="10" d="M70.12 22.42c0-1.19-0.03-2.54 0.75-3.51 0.69-0.86 1.75-1.37 2.76-1.74 1.07-0.4 2.2-0.67 3.32-0.88 2.4-0.45 4.84-0.59 7.28-0.61 1.37 0.01 2.74 0.06 4.11 0.18 2.32 0.21 4.72 0.57 6.88 1.46 0.99 0.41 2.03 0.98 2.6 1.92 0.56 0.93 0.52 2.14 0.52 3.19"/>
  </g>
  <ellipse fill="none" stroke="currentColor" stroke-linecap="round" stroke-linejoin="round" stroke-miterlimit="10" cx="84.23" cy="19.44" rx="4.59" ry="1.25"/>
  <path fill="none" stroke="currentColor" stroke-linecap="round" stroke-linejoin="round" stroke-miterlimit="10" d="M98.34 27.54c0 2.11-6.32 3.82-14.11 3.82s-14.11-1.71-14.11-3.82"/>
  <circle fill="none" stroke="currentColor" stroke-linecap="round" stroke-linejoin="round" stroke-miterlimit="10" cx="84.23" cy="26.86" r="0.9"/>
  <line fill="none" stroke="currentColor" stroke-linecap="round" stroke-linejoin="round" stroke-miterlimit="10" x1="70.12" y1="173.06" x2="70.12" y2="22.42"/>
  <path fill="none" stroke="currentColor" stroke-linecap="round" stroke-linejoin="round" stroke-miterlimit="10" d="M98.33 171.53c0 2.06-6.3 3.73-14.1 3.73s-14.12-1.67-14.12-3.73"/>
  <path fill="none" stroke="currentColor" stroke-linecap="round" stroke-linejoin="round" stroke-miterlimit="10" d="M98.33 173.06c0 2.22-6.3 4.03-14.1 4.03s-14.12-1.8-14.12-4.03"/>
  <line fill="none" stroke="currentColor" stroke-linecap="round" stroke-linejoin="round" stroke-miterlimit="10" x1="70.12" y1="177.78" x2="70.12" y2="180.18"/>
  <path fill="none" stroke="currentColor" stroke-linecap="round" stroke-linejoin="round" stroke-miterlimit="10" d="M98.32 180.18c0 2.18-6.31 3.94-14.1 3.94s-14.1-1.77-14.1-3.94"/>
  <path fill="none" stroke="currentColor" stroke-linecap="round" stroke-linejoin="round" stroke-miterlimit="10" d="M95.6 175.44c1.72 0.62 2.73 1.39 2.73 2.23 0 2.08-6.31 3.76-14.1 3.76s-14.1-1.69-14.1-3.76c0-0.83 1.01-1.6 2.73-2.23"/>
  <path fill="none" stroke="currentColor" stroke-linecap="round" stroke-linejoin="round" stroke-miterlimit="10" d="M85.07 140.36h-1.69c-0.68 0-1.24-0.55-1.24-1.24v-9.56c0-0.68 0.55-1.24 1.24-1.24h1.69c0.68 0 1.24 0.55 1.24 1.24v9.56C86.31 139.81 85.75 140.36 85.07 140.36z"/>
  <line id="XMLID_39_" fill="none" stroke="currentColor" stroke-linecap="round" stroke-linejoin="round" stroke-miterlimit="10" x1="21.85" y1="102.37" x2="21.85" y2="166.15"/>
  <path id="XMLID_38_" fill="none" stroke="currentColor" stroke-linecap="round" stroke-linejoin="round" stroke-miterlimit="10" d="M69.15 59.47c-28.11 1.48-49.99 6.84-49.99 13.09 0 1.33 0.95 2.62 2.7 3.83h-0.01 0.01c8 5.54 32.89 9.58 62.37 9.58s54.38-4.04 62.37-9.58h0.01 -0.01c1.75-1.21 2.7-2.5 2.7-3.83"/>
  <path id="XMLID_37_" fill="none" stroke="currentColor" stroke-linecap="round" stroke-linejoin="round" stroke-miterlimit="10" d="M149.3 72.63c0-6.39-20.83-11.68-49.96-13.09"/>
  <line id="XMLID_36_" fill="none" stroke="currentColor" stroke-linecap="round" stroke-linejoin="round" stroke-miterlimit="10" x1="146.61" y1="166.15" x2="146.61" y2="102.37"/>
  <path id="XMLID_35_" fill="none" stroke="currentColor" stroke-linecap="round" stroke-linejoin="round" stroke-miterlimit="10" d="M146.61 166.15c0 3.27-1.39 6.41-3.94 9.3 -1.53 1.75-3.49 3.41-5.81 4.95 -2.29 1.53-4.93 2.94-7.88 4.24 -10.74 4.71-25.53 7.72-41.99 8.03h-5.53c-16.45-0.31-31.25-3.32-41.99-8.03 -2.95-1.29-5.59-2.71-7.88-4.24 -2.32-1.55-4.27-3.21-5.81-4.95 -2.54-2.89-3.94-6.03-3.94-9.3"/>
  <g id="XMLID_32_">
    <path id="XMLID_34_" fill="none" stroke="currentColor" stroke-linecap="round" stroke-linejoin="round" stroke-miterlimit="10" d="M28.73 178.31c0 4.65 13.9 17.15 55.5 17.15"/>
    <path id="XMLID_33_" fill="none" stroke="currentColor" stroke-linecap="round" stroke-linejoin="round" stroke-miterlimit="10" d="M139.72 178.31c0 4.65-13.9 17.15-55.5 17.15"/>
  </g>
  <g id="XMLID_28_">
    <g id="XMLID_30_">
      <path id="XMLID_31_" fill="none" stroke="currentColor" stroke-linecap="round" stroke-linejoin="round" stroke-miterlimit="10" d="M146.61 92.9c0 0 7.06 0 8.99 0s4.48 0.35 4.48 1c0 0.65-2.05 1.45-4.66 1.45h-12.4c-0.43 0-0.86 0.06-1.27 0.19l-0.17 0.05 -6.2 2.9c-3.36 1.75-2.85 10.67 0 10.27l6.36-2.98c0.84-0.39 1.55-1.01 2.1-1.76 0.56-0.78 2.03-1.64 2.79-1.64 0 0 9.04 0 11.14 0s10.21-1.99 10.21-8.68c0-5.64-7.52-7.27-9.85-7.64 -0.39-0.06-0.79-0.09-1.19-0.09h-10.31"/>
    </g>
    <path id="XMLID_29_" fill="none" stroke="currentColor" stroke-linecap="round" stroke-linejoin="round" stroke-miterlimit="10" d="M141.03 101.97c0.16-1.39-0.62-2.46-1.75-2.38s-2.18 1.28-2.34 2.67c-0.16 1.39 0.62 2.46 1.75 2.38C139.81 104.56 140.86 103.37 141.03 101.97z"/>
  </g>
  <g id="XMLID_24_">
    <g id="XMLID_26_">
      <path id="XMLID_27_" fill="none" stroke="currentColor" stroke-linecap="round" stroke-linejoin="round" stroke-miterlimit="10" d="M21.85 92.9c0 0-7.06 0-8.99 0s-4.48 0.35-4.48 1 2.05 1.45 4.66 1.45h12.4c0.43 0 0.86 0.06 1.27 0.19l0.17 0.05 6.2 2.9c3.36 1.75 2.85 10.67 0 10.27l-6.36-2.98c-0.84-0.39-1.55-1.01-2.1-1.76 -0.56-0.78-2.03-1.64-2.79-1.64 0 0-9.04 0-11.14 0S0.5 100.38 0.5 93.7c0-5.64 7.52-7.27 9.85-7.64 0.39-0.06 0.79-0.09 1.19-0.09h10.31"/>
    </g>
    <path id="XMLID_25_" fill="none" stroke="currentColor" stroke-linecap="round" stroke-linejoin="round" stroke-miterlimit="10" d="M27.43 101.97c-0.16-1.39 0.62-2.46 1.75-2.38s2.18 1.28 2.34 2.67c0.16 1.39-0.62 2.46-1.75 2.38S27.59 103.37 27.43 101.97z"/>
  </g>
  <line id="XMLID_23_" fill="none" stroke="currentColor" stroke-linecap="round" stroke-linejoin="round" stroke-miterlimit="10" x1="146.61" y1="95.34" x2="146.61" y2="76.39"/>
  <line id="XMLID_12_" fill="none" stroke="currentColor" stroke-linecap="round" stroke-linejoin="round" stroke-miterlimit="10" x1="21.85" y1="95.34" x2="21.85" y2="76.39"/>
  <g id="XMLID_7_">
    <path id="XMLID_8_" fill="none" stroke="currentColor" stroke-linecap="round" stroke-linejoin="round" stroke-miterlimit="10" d="M11.68 5.54v21c0 2.78 2.26 5.04 5.04 5.04H46.3l9.07 8.32v-8.32h0.86c2.78 0 5.04-2.26 5.04-5.04v-21c0-2.78-2.26-5.04-5.04-5.04h-39.5C13.94 0.5 11.68 2.76 11.68 5.54z"/>
  </g>
  <g id="XMLID_1_">
    <path id="XMLID_6_" fill="none" stroke="currentColor" stroke-linecap="round" stroke-linejoin="round" stroke-miterlimit="10" d="M35.02 23.38c-2.65-1.29-4.94-3.2-6.68-5.54 -0.06-0.08-0.12-0.17-0.19-0.26 -0.85-1.21-1.38-2.66-1.49-4.22 -0.01-0.19-0.02-0.38-0.02-0.57 0-0.19 0.01-0.38 0.02-0.57 0.29-2.42 2.34-4.29 4.83-4.29 1.39 0 2.64 0.58 3.53 1.51l-1.42 1.42 1.48 1.48 -1.69 1.69 1.99 1.99 -1.79 1.79 1.9 1.9 -1 1L35.02 23.38z"/>
    <path id="XMLID_2_" fill="none" stroke="currentColor" stroke-linecap="round" stroke-linejoin="round" stroke-miterlimit="10" d="M37.93 23.38c2.65-1.29 4.94-3.2 6.68-5.54 0.06-0.08 0.12-0.17 0.19-0.26 0.85-1.21 1.38-2.66 1.49-4.22 0.01-0.19 0.02-0.38 0.02-0.57 0-0.19-0.01-0.38-0.02-0.57C46 9.8 43.95 7.92 41.45 7.92c-1.39 0-2.64 0.58-3.53 1.51l-1.41 1.42 1.35 1.48 -1.56 1.69 1.92 1.99 -1.79 1.79 1.9 1.9 -1 1L37.93 23.38z"/>
  </g>
</svg>
