<svg xmlns="http://www.w3.org/2000/svg" version="1.1" x="0" y="0" width="109.2" height="178.1" viewBox="0 0 109.2 178.1" enable-background="new 0 0 109.22 178.12" xml:space="preserve"><path fill="currentColor" d="M56 41H6.6c-3.6 0-6.6-3-6.6-6.6V6.6C0 3 3 0 6.6 0h49.4c3.6 0 6.6 3 6.6 6.6v9.2h9.6c0.2 0 0.4 0.1 0.5 0.3 0.1 0.2 0 0.4-0.1 0.5l-9.9 10.8v7C62.6 38.1 59.7 41 56 41zM6.6 1C3.5 1 1 3.5 1 6.6v27.8c0 3.1 2.5 5.6 5.6 5.6h49.4c3.1 0 5.6-2.5 5.6-5.6v-7.2c0-0.1 0.1-0.2 0.1-0.3l9.3-10.1h-8.9c-0.3 0-0.5-0.2-0.5-0.5V6.6c0-3.1-2.5-5.6-5.6-5.6H6.6z"/><path fill="currentColor" d="M26.3 16.9V9.1h1.5v7.7H26.3zM30 9.1c0.6 0 1 0.5 1 1.1 0 1.5-1 2-1.7 2.1v-0.7c0.4-0.1 0.9-0.4 0.9-0.9 0 0-0.1 0.1-0.2 0.1 -0.5 0-0.8-0.3-0.8-0.8C29.1 9.4 29.5 9.1 30 9.1zM31.8 16.9v-5.4h1.4v0.7c0.3-0.5 1-0.8 1.6-0.8 0.7 0 1.3 0.3 1.6 0.9 0.4-0.6 1-0.9 1.7-0.9 1 0 1.9 0.6 1.9 2v3.5h-1.4v-3.2c0-0.6-0.3-1-0.9-1 -0.6 0-1 0.5-1 1.1v3.1h-1.4v-3.2c0-0.6-0.3-1-0.9-1 -0.6 0-1 0.5-1 1.1v3.1H31.8zM11.8 28.2c0 0.4 0.4 0.8 1 0.8 0.5 0 0.7-0.2 0.7-0.5 0-0.2-0.2-0.4-0.6-0.5l-0.7-0.2c-1-0.2-1.5-0.8-1.5-1.6 0-1 0.9-1.7 2-1.7 1.5 0 2 1 2.1 1.6l-1.2 0.3c0-0.3-0.3-0.7-0.9-0.7 -0.4 0-0.7 0.2-0.7 0.5 0 0.3 0.2 0.4 0.5 0.5l0.8 0.2c1.1 0.2 1.6 0.9 1.6 1.7 0 0.9-0.7 1.8-2.1 1.8 -1.6 0-2.2-1-2.2-1.7L11.8 28.2zM16 32v-7.4h1.4v0.7c0.2-0.4 0.8-0.8 1.7-0.8 1.6 0 2.5 1.2 2.5 2.8 0 1.6-1 2.8-2.5 2.8 -0.7 0-1.3-0.3-1.5-0.6v2.6H16zM18.8 25.8c-0.7 0-1.3 0.6-1.3 1.5s0.6 1.5 1.3 1.5c0.7 0 1.3-0.6 1.3-1.5C20.1 26.3 19.5 25.8 18.8 25.8zM27.5 28.4c-0.3 0.9-1.1 1.7-2.4 1.7 -1.5 0-2.8-1.1-2.8-2.9 0-1.7 1.3-2.8 2.6-2.8 1.7 0 2.7 1.1 2.7 2.8 0 0.2 0 0.4 0 0.5h-3.8c0 0.7 0.6 1.2 1.4 1.2 0.7 0 1.1-0.3 1.2-0.8L27.5 28.4zM26.1 26.7c0-0.5-0.4-1.1-1.2-1.1 -0.7 0-1.2 0.6-1.2 1.1H26.1zM29.7 27.3c0 1 0.6 1.5 1.4 1.5 0.7 0 1.1-0.5 1.2-0.9l1.3 0.4c-0.2 0.9-1.1 1.8-2.5 1.8 -1.6 0-2.8-1.2-2.8-2.8 0-1.7 1.2-2.8 2.8-2.8 1.5 0 2.3 0.9 2.5 1.8l-1.3 0.4c-0.1-0.4-0.5-0.9-1.2-0.9C30.4 25.8 29.7 26.3 29.7 27.3zM35.4 21.9c0.5 0 0.9 0.4 0.9 0.9 0 0.5-0.4 0.9-0.9 0.9 -0.5 0-0.9-0.4-0.9-0.9C34.5 22.3 34.9 21.9 35.4 21.9zM34.7 29.9v-5.4h1.5v5.4H34.7zM39 26.9l1.3-0.2c0.3 0 0.4-0.2 0.4-0.4 0-0.4-0.3-0.7-0.9-0.7 -0.6 0-1 0.4-1 0.9l-1.3-0.3c0.1-0.8 0.9-1.8 2.3-1.8 1.7 0 2.3 1 2.3 2v2.6c0 0.3 0 0.7 0.1 0.9h-1.3c0-0.1 0-0.4 0-0.6 -0.3 0.4-0.8 0.8-1.6 0.8 -1.1 0-1.8-0.8-1.8-1.6C37.4 27.5 38.1 27 39 26.9zM40.7 27.8v-0.2l-1.2 0.2c-0.4 0.1-0.7 0.3-0.7 0.7 0 0.3 0.2 0.6 0.7 0.6C40.1 29 40.7 28.7 40.7 27.8zM43.6 29.9v-7.9H45v7.9H43.6zM47.4 28c0.6 0 1 0.5 1 1 0 0.5-0.4 1-1 1 -0.5 0-1-0.4-1-1C46.4 28.5 46.9 28 47.4 28zM50.8 28c0.6 0 1 0.5 1 1 0 0.5-0.4 1-1 1 -0.5 0-1-0.4-1-1C49.8 28.5 50.2 28 50.8 28zM54.2 28c0.6 0 1 0.5 1 1 0 0.5-0.4 1-1 1 -0.5 0-1-0.4-1-1C53.2 28.5 53.6 28 54.2 28z"/><line fill="none" stroke="currentColor" stroke-linecap="round" stroke-linejoin="round" stroke-miterlimit="10" x1="108.7" y1="166" x2="108.7" y2="7.7"/><line fill="none" stroke="currentColor" stroke-linecap="round" stroke-linejoin="round" stroke-miterlimit="10" x1="108.7" y1="171" x2="108.7" y2="173.5"/><path fill="none" stroke="currentColor" stroke-linecap="round" stroke-linejoin="round" stroke-miterlimit="10" d="M79.1 7.7c0-1.2 0-2.7 0.8-3.7 0.7-0.9 1.8-1.4 2.9-1.8 1.1-0.4 2.3-0.7 3.5-0.9 2.5-0.5 5.1-0.6 7.7-0.6 1.4 0 2.9 0.1 4.3 0.2 2.4 0.2 5 0.6 7.2 1.5 1 0.4 2.1 1 2.7 2 0.6 1 0.6 2.3 0.6 3.4"/><ellipse fill="none" stroke="currentColor" stroke-linecap="round" stroke-linejoin="round" stroke-miterlimit="10" cx="93.9" cy="4.6" rx="4.8" ry="1.3"/><path fill="none" stroke="currentColor" stroke-linecap="round" stroke-linejoin="round" stroke-miterlimit="10" d="M108.7 13.1c0 2.2-6.6 4-14.8 4s-14.8-1.8-14.8-4"/><circle fill="none" stroke="currentColor" stroke-linecap="round" stroke-linejoin="round" stroke-miterlimit="10" cx="93.9" cy="12.4" r="1"/><line fill="none" stroke="currentColor" stroke-linecap="round" stroke-linejoin="round" stroke-miterlimit="10" x1="79.1" y1="166" x2="79.1" y2="7.7"/><path fill="none" stroke="currentColor" stroke-linecap="round" stroke-linejoin="round" stroke-miterlimit="10" d="M108.7 164.4c0 2.2-6.6 3.9-14.8 3.9s-14.8-1.7-14.8-3.9M108.7 166c0 2.3-6.6 4.2-14.8 4.2s-14.8-1.9-14.8-4.2"/><line fill="none" stroke="currentColor" stroke-linecap="round" stroke-linejoin="round" stroke-miterlimit="10" x1="79.1" y1="171" x2="79.1" y2="173.5"/><path fill="none" stroke="currentColor" stroke-linecap="round" stroke-linejoin="round" stroke-miterlimit="10" d="M108.7 173.5c0 2.3-6.6 4.1-14.8 4.1s-14.8-1.8-14.8-4.1M105.8 168.5c1.8 0.7 2.9 1.5 2.9 2.3 0 2.2-6.6 4-14.8 4s-14.8-1.8-14.8-3.9c0-0.9 1.1-1.7 2.9-2.3"/><path fill="none" stroke="currentColor" stroke-linecap="round" stroke-linejoin="round" stroke-miterlimit="10" d="M94.8 131.7h-1.8c-0.7 0-1.3-0.6-1.3-1.3v-10c0-0.7 0.6-1.3 1.3-1.3h1.8c0.7 0 1.3 0.6 1.3 1.3v10C96.1 131.1 95.5 131.7 94.8 131.7z"/></svg>
