<svg id="no-wifi" xmlns="http://www.w3.org/2000/svg" version="1.1" x="0" y="0" width="174.3" height="131.6" viewBox="0 0 174.3 131.6" enable-background="new 0 0 174.27 131.56" xml:space="preserve"><path fill="currentColor" d="M158.1 88.7H24.6C11 88.7 0 77.7 0 64.1c0-13.6 11-24.6 24.6-24.6 0.2 0 0.3 0 0.4 0C31.6 16.2 52.9 0 77.2 0c16.1 0 31.2 7.1 41.5 19.4 1.2-0.1 2.5-0.2 3.7-0.2 22.4 0 41 16.8 43.2 39 5.4 2.8 8.7 8.3 8.7 14.3C174.3 81.4 167 88.7 158.1 88.7zM24.6 40.5C11.6 40.5 1 51.1 1 64.1c0 13 10.6 23.6 23.6 23.6h133.5c8.4 0 15.2-6.8 15.2-15.2 0-5.8-3.2-11-8.4-13.5 -0.1-0.1-0.3-0.2-0.3-0.4 -2.1-21.9-20.2-38.4-42.2-38.4 -1.3 0-2.6 0.1-3.9 0.2 -0.2 0-0.3 0-0.4-0.2C107.9 8 93 1 77.2 1 53.3 1 32.2 17.1 25.9 40.2c-0.1 0.2-0.3 0.4-0.5 0.4l-0.3 0C24.9 40.5 24.8 40.5 24.6 40.5z"/><path fill="currentColor" d="M153 88.7h-3c-0.3 0-0.5-0.2-0.5-0.5s0.2-0.5 0.5-0.5H153c0.3 0 0.5 0.2 0.5 0.5S153.3 88.7 153 88.7z"/><path fill="currentColor" d="M98.4 62.4c-0.1 0-0.2 0-0.3-0.1 -2.9-2.9-6.8-4.4-10.9-4.4 -4.1 0-8 1.6-10.9 4.4 -0.2 0.2-0.5 0.2-0.7 0 -0.2-0.2-0.2-0.5 0-0.7 3.1-3 7.2-4.7 11.6-4.7 4.4 0 8.5 1.7 11.6 4.7 0.2 0.2 0.2 0.5 0 0.7C98.6 62.4 98.5 62.4 98.4 62.4z"/><path fill="currentColor" d="M94.5 51.5c-0.8 0-1.1-1.2-1.1-2.4s0.3-2.4 1.1-2.4 1.1 1.2 1.1 2.4S95.3 51.5 94.5 51.5zM94.5 48.3c0 0.2-0.1 0.5-0.1 0.9s0 0.6 0.1 0.9c0-0.2 0.1-0.5 0.1-0.8S94.5 48.5 94.5 48.3zM79.8 51.5c-0.8 0-1.1-1.2-1.1-2.4s0.3-2.4 1.1-2.4 1.1 1.2 1.1 2.4S80.6 51.5 79.8 51.5zM79.8 48.3c0 0.2-0.1 0.5-0.1 0.9s0 0.6 0.1 0.9c0-0.2 0.1-0.5 0.1-0.8S79.8 48.5 79.8 48.3z"/><path fill="currentColor" d="M118.5 115.6c-0.1 0-0.3 0-0.3-0.1l-17.8-17.8c-0.2-0.2-0.2-0.5 0-0.7s0.5-0.2 0.7 0l17.8 17.8c0.2 0.2 0.2 0.5 0 0.7C118.7 115.5 118.6 115.6 118.5 115.6zM80.6 115.6c-0.1 0-0.3 0-0.3-0.1L62.4 97.6c-0.2-0.2-0.2-0.5 0-0.7s0.5-0.2 0.7 0l17.8 17.8c0.2 0.2 0.2 0.5 0 0.7C80.8 115.5 80.7 115.6 80.6 115.6zM156.4 115.6c-0.1 0-0.3 0-0.3-0.1l-17.8-17.8c-0.2-0.2-0.2-0.5 0-0.7s0.5-0.2 0.7 0l17.8 17.8c0.2 0.2 0.2 0.5 0 0.7C156.7 115.5 156.5 115.6 156.4 115.6zM42.6 115.6c-0.1 0-0.3 0-0.3-0.1l-17.8-17.8c-0.2-0.2-0.2-0.5 0-0.7s0.5-0.2 0.7 0l17.8 17.8c0.2 0.2 0.2 0.5 0 0.7C42.9 115.5 42.8 115.6 42.6 115.6zM149.5 131.6c-0.1 0-0.3 0-0.3-0.1l-17.8-17.8c-0.2-0.2-0.2-0.5 0-0.7s0.5-0.2 0.7 0l17.8 17.8c0.2 0.2 0.2 0.5 0 0.7C149.7 131.5 149.6 131.6 149.5 131.6zM111.6 131.6c-0.1 0-0.3 0-0.3-0.1l-17.8-17.8c-0.2-0.2-0.2-0.5 0-0.7s0.5-0.2 0.7 0l17.8 17.8c0.2 0.2 0.2 0.5 0 0.7C111.8 131.5 111.7 131.6 111.6 131.6zM73.6 131.6c-0.1 0-0.3 0-0.3-0.1l-17.8-17.8c-0.2-0.2-0.2-0.5 0-0.7s0.5-0.2 0.7 0l17.8 17.8c0.2 0.2 0.2 0.5 0 0.7C73.9 131.5 73.8 131.6 73.6 131.6z"/></svg>
