<svg xmlns="http://www.w3.org/2000/svg" xmlns:xlink="http://www.w3.org/1999/xlink" xmlns:a="http://ns.adobe.com/AdobeSVGViewerExtensions/3.0/" version="1.1" x="0" y="0" width="188.62" height="198.4" viewBox="0 0 188.62 198.4" enable-background="new 0 0 188.62 198.4" xml:space="preserve">
  <path fill="none" stroke="currentColor" stroke-miterlimit="10" d="M169.86 54.37h-9.51c-1.79 0-3.24-1.45-3.24-3.24V3.74c0-1.79 1.45-3.24 3.24-3.24h24.54c1.79 0 3.24 1.45 3.24 3.24v47.38c0 1.79-1.45 3.24-3.24 3.24h-11"/>
  <path fill="none" stroke="currentColor" stroke-linecap="round" stroke-linejoin="round" stroke-miterlimit="10" d="M178.76 15.41c0 1.05-0.26 2.03-0.72 2.89 -0.5 0.93-1.23 1.72-2.11 2.28 -0.27 0.17-0.59 0.25-0.91 0.25h-4.81c-0.32 0-0.64-0.07-0.91-0.25 -0.88-0.57-1.61-1.35-2.11-2.28 -0.46-0.86-0.72-1.85-0.72-2.89s0.26-2.03 0.72-2.89c0.5-0.93 1.23-1.72 2.11-2.28 0.27-0.17 0.59-0.25 0.91-0.25h4.81c0.32 0 0.64 0.07 0.91 0.25 0.88 0.57 1.61 1.35 2.11 2.28C178.5 13.37 178.76 14.36 178.76 15.41z"/>
  <line fill="none" stroke="currentColor" stroke-linecap="round" stroke-linejoin="round" stroke-miterlimit="10" x1="170.37" y1="12.66" x2="170.37" y2="15.41"/>
  <line fill="none" stroke="currentColor" stroke-linecap="round" stroke-linejoin="round" stroke-miterlimit="10" x1="174.74" y1="12.66" x2="174.74" y2="15.41"/>
  <circle fill="none" stroke="currentColor" stroke-linecap="round" stroke-linejoin="round" stroke-miterlimit="10" cx="172.61" cy="18.15" r="1.06"/>
  <circle fill="none" stroke="currentColor" stroke-miterlimit="10" cx="172.61" cy="27.43" r="1.96"/>
  <line fill="none" stroke="currentColor" stroke-linecap="round" stroke-linejoin="round" stroke-miterlimit="10" x1="173.11" y1="26.94" x2="172.11" y2="27.93"/>
  <path fill="none" stroke="currentColor" stroke-linecap="round" stroke-linejoin="round" stroke-miterlimit="10" d="M112.44 51.95c-1.53-9.6-3.11-16.51-6.61-16.51"/>
  <path fill="none" stroke="currentColor" stroke-linecap="round" stroke-linejoin="round" stroke-miterlimit="10" d="M105.83 30.97c6.74 0 9.26 8.2 11.24 21.35"/>
  <path fill="none" stroke="currentColor" stroke-linecap="round" stroke-linejoin="round" d="M157.79 79.68c0.62-0.44 0.92-0.68 1.51-1.24 8.41-7.8 11.75-24.34 11.31-36.41 -0.04-1.1 0.82-2.03 1.92-2.07 1.15-0.05 2.03 0.82 2.07 1.92 0.45 12.26-2.88 28.93-11.16 38.02"/>
  <path fill="none" stroke="currentColor" stroke-miterlimit="10" d="M170.52 48.4c-2.88-0.89-4.98-3.58-4.98-6.76 0-3.91 3.17-7.07 7.07-7.07s7.07 3.17 7.07 7.07c0 3.2-2.12 5.9-5.04 6.78"/>
  <line fill="none" stroke="currentColor" stroke-linecap="round" stroke-linejoin="round" stroke-miterlimit="10" x1="105.83" y1="173.78" x2="105.83" y2="11.61"/>
  <line fill="none" stroke="currentColor" stroke-linecap="round" stroke-linejoin="round" stroke-miterlimit="10" x1="105.8" y1="178.86" x2="105.8" y2="181.44"/>
  <g id="SPLINE_1_">
    <path fill="none" stroke="currentColor" stroke-linecap="round" stroke-linejoin="round" stroke-miterlimit="10" d="M75.45 11.61c0-1.28-0.04-2.73 0.81-3.78C77 6.9 78.14 6.35 79.22 5.95 80.38 5.51 81.59 5.22 82.8 5c2.59-0.48 5.21-0.64 7.84-0.66 1.48 0.01 2.95 0.06 4.42 0.2 2.5 0.23 5.08 0.61 7.41 1.58 1.07 0.44 2.19 1.05 2.8 2.07 0.61 1 0.56 2.31 0.56 3.43"/>
  </g>
  <ellipse fill="none" stroke="currentColor" stroke-linecap="round" stroke-linejoin="round" stroke-miterlimit="10" cx="90.64" cy="8.4" rx="4.94" ry="1.34"/>
  <path fill="none" stroke="currentColor" stroke-linecap="round" stroke-linejoin="round" stroke-miterlimit="10" d="M105.83 17.12c0 2.27-6.8 4.12-15.19 4.12s-15.19-1.84-15.19-4.12"/>
  <circle fill="none" stroke="currentColor" stroke-linecap="round" stroke-linejoin="round" stroke-miterlimit="10" cx="90.64" cy="16.39" r="0.97"/>
  <line fill="none" stroke="currentColor" stroke-linecap="round" stroke-linejoin="round" stroke-miterlimit="10" x1="75.45" y1="173.78" x2="75.45" y2="11.61"/>
  <path fill="none" stroke="currentColor" stroke-linecap="round" stroke-linejoin="round" stroke-miterlimit="10" d="M105.82 172.14c0 2.22-6.78 4.02-15.18 4.02s-15.2-1.8-15.2-4.02"/>
  <path fill="none" stroke="currentColor" stroke-linecap="round" stroke-linejoin="round" stroke-miterlimit="10" d="M105.82 173.78c0 2.39-6.78 4.34-15.18 4.34s-15.2-1.94-15.2-4.34"/>
  <line fill="none" stroke="currentColor" stroke-linecap="round" stroke-linejoin="round" stroke-miterlimit="10" x1="75.45" y1="178.86" x2="75.45" y2="181.44"/>
  <path fill="none" stroke="currentColor" stroke-linecap="round" stroke-linejoin="round" stroke-miterlimit="10" d="M105.81 181.44c0 2.34-6.8 4.24-15.18 4.24s-15.18-1.9-15.18-4.24"/>
  <path fill="none" stroke="currentColor" stroke-linecap="round" stroke-linejoin="round" stroke-miterlimit="10" d="M102.87 176.35c1.85 0.67 2.94 1.5 2.94 2.4 0 2.24-6.79 4.05-15.18 4.05s-15.18-1.81-15.18-4.05c0-0.9 1.09-1.73 2.94-2.4"/>
  <path fill="none" stroke="currentColor" stroke-linecap="round" stroke-linejoin="round" stroke-miterlimit="10" d="M91.54 138.58h-1.82c-0.74 0-1.33-0.6-1.33-1.33v-10.29c0-0.74 0.6-1.33 1.33-1.33h1.82c0.74 0 1.33 0.6 1.33 1.33v10.29C92.88 137.98 92.28 138.58 91.54 138.58z"/>
  <path id="XMLID_21_" fill="none" stroke="currentColor" stroke-linecap="round" stroke-linejoin="round" stroke-miterlimit="10" d="M106.97 101.77c28.64 1.16 49.83 5.28 49.83 10.19 0 5.81-29.62 10.51-66.16 10.51s-66.16-4.71-66.16-10.51c0-4.91 21.22-9.04 49.89-10.19"/>
  <line id="XMLID_20_" fill="none" stroke="currentColor" stroke-linecap="round" stroke-linejoin="round" stroke-miterlimit="10" x1="23.48" y1="97.68" x2="23.48" y2="166.34"/>
  <path id="XMLID_19_" fill="none" stroke="currentColor" stroke-linecap="round" stroke-linejoin="round" stroke-miterlimit="10" d="M74.4 51.49c-30.26 1.6-53.82 7.36-53.82 14.1 0 1.43 1.02 2.82 2.9 4.12h-0.01 0.01c8.61 5.96 35.41 10.31 67.15 10.31s58.54-4.35 67.15-10.31h0.01 -0.01c1.89-1.31 2.9-2.69 2.9-4.12"/>
  <path id="XMLID_18_" fill="none" stroke="currentColor" stroke-linecap="round" stroke-linejoin="round" stroke-miterlimit="10" d="M160.69 65.66c0-6.88-22.42-12.58-53.78-14.1"/>
  <line id="XMLID_17_" fill="none" stroke="currentColor" stroke-linecap="round" stroke-linejoin="round" stroke-miterlimit="10" x1="157.79" y1="166.34" x2="157.79" y2="97.68"/>
  <path id="XMLID_16_" fill="none" stroke="currentColor" stroke-linecap="round" stroke-linejoin="round" stroke-miterlimit="10" d="M157.79 166.34c0 3.52-1.5 6.9-4.24 10.01 -1.65 1.88-3.75 3.67-6.25 5.33 -2.46 1.64-5.31 3.17-8.48 4.56 -11.56 5.07-27.49 8.32-45.2 8.65h-5.96c-17.71-0.33-33.64-3.58-45.2-8.65 -3.17-1.39-6.02-2.92-8.48-4.56 -2.5-1.67-4.6-3.45-6.25-5.33 -2.74-3.12-4.24-6.49-4.24-10.01"/>
  <g id="XMLID_13_">
    <path id="XMLID_15_" fill="none" stroke="currentColor" stroke-linecap="round" stroke-linejoin="round" stroke-miterlimit="10" d="M30.89 179.43c0 5 14.96 18.47 59.74 18.47"/>
    <path id="XMLID_14_" fill="none" stroke="currentColor" stroke-linecap="round" stroke-linejoin="round" stroke-miterlimit="10" d="M150.38 179.43c0 5-14.96 18.47-59.74 18.47"/>
  </g>
  <g id="XMLID_8_">
    <g id="XMLID_10_">
      <path id="XMLID_11_" fill="none" stroke="currentColor" stroke-linecap="round" stroke-linejoin="round" stroke-miterlimit="10" d="M157.79 87.48c0 0 7.6 0 9.68 0s4.82 0.38 4.82 1.07c0 0.7-2.21 1.56-5.02 1.56h-13.35c-0.46 0-0.93 0.07-1.37 0.2l-0.19 0.06 -6.68 3.12c-3.62 1.89-3.07 11.49 0 11.06l6.85-3.21c0.91-0.42 1.67-1.09 2.26-1.9 0.6-0.84 2.19-1.77 3-1.77 0 0 9.73 0 11.99 0s10.99-2.15 10.99-9.34c0-6.07-8.09-7.82-10.61-8.22 -0.42-0.07-0.85-0.1-1.28-0.1h-11.1"/>
    </g>
    <path id="XMLID_9_" fill="none" stroke="currentColor" stroke-linecap="round" stroke-linejoin="round" stroke-miterlimit="10" d="M151.78 97.25c0.18-1.5-0.67-2.65-1.88-2.56 -1.22 0.09-2.35 1.37-2.52 2.87 -0.18 1.5 0.67 2.65 1.88 2.56S151.61 98.75 151.78 97.25z"/>
  </g>
  <g id="XMLID_3_">
    <g id="XMLID_5_">
      <path id="XMLID_7_" fill="none" stroke="currentColor" stroke-linecap="round" stroke-linejoin="round" stroke-miterlimit="10" d="M23.48 87.48c0 0-7.6 0-9.68 0s-4.82 0.38-4.82 1.07c0 0.7 2.21 1.56 5.02 1.56h13.35c0.46 0 0.93 0.07 1.37 0.2l0.19 0.06 6.68 3.12c3.62 1.89 3.07 11.49 0 11.06l-6.85-3.21c-0.91-0.42-1.67-1.09-2.26-1.9 -0.6-0.84-2.19-1.77-3-1.77 0 0-9.73 0-11.99 0S0.5 95.54 0.5 88.34c0-6.07 8.09-7.82 10.61-8.22 0.42-0.07 0.85-0.1 1.28-0.1h11.1"/>
    </g>
    <path id="XMLID_4_" fill="none" stroke="currentColor" stroke-linecap="round" stroke-linejoin="round" stroke-miterlimit="10" d="M29.49 97.25c-0.18-1.5 0.67-2.65 1.88-2.56s2.35 1.37 2.52 2.87c0.18 1.5-0.67 2.65-1.88 2.56C30.8 100.04 29.67 98.75 29.49 97.25z"/>
  </g>
  <line id="XMLID_2_" fill="none" stroke="currentColor" stroke-linecap="round" stroke-linejoin="round" stroke-miterlimit="10" x1="157.79" y1="90.11" x2="157.79" y2="69.71"/>
  <line id="XMLID_1_" fill="none" stroke="currentColor" stroke-linecap="round" stroke-linejoin="round" stroke-miterlimit="10" x1="23.48" y1="90.11" x2="23.48" y2="69.71"/>
</svg>
