<svg id="pairing-success" xmlns="http://www.w3.org/2000/svg" version="1.1" x="0" y="0" width="274.9" height="301" viewBox="0 0 274.9 301" enable-background="new 0 0 274.9082 301" xml:space="preserve"><path fill="none" stroke="currentColor" stroke-linecap="round" stroke-linejoin="round" stroke-miterlimit="10" d="M274.4 164.1c0 5.2-4.2 9.4-9.4 9.4h-80.3c-8 0-14.5-6.5-14.5-14.5 0-8 6.5-14.5 14.5-14.5 0.2 0 0.3 0 0.5 0 3.7-13.7 16.3-23.8 31.1-23.8 10 0 18.9 4.5 24.8 11.7 0.8-0.1 1.6-0.1 2.4-0.1 13.4 0 24.5 10.2 25.7 23.4C272.3 157.2 274.4 160.4 274.4 164.1z"/><line fill="none" stroke="currentColor" stroke-linecap="round" stroke-linejoin="round" stroke-miterlimit="10" x1="260.1" y1="173.5" x2="261.9" y2="173.5"/><path fill="none" stroke="currentColor" stroke-linecap="round" stroke-linejoin="round" stroke-miterlimit="10" d="M215.5 148.5c1.7-1.7 4.1-2.8 6.8-2.8s5 1.1 6.8 2.8M218.1 151.4c1.1-1.1 2.6-1.7 4.2-1.7 1.6 0 3.1 0.7 4.2 1.7M220 154.3c0.6-0.6 1.4-0.9 2.3-0.9 0.9 0 1.7 0.3 2.3 0.9"/><line fill="none" stroke="currentColor" stroke-linecap="round" stroke-linejoin="round" stroke-miterlimit="10" x1="14.6" y1="152.5" x2="10.7" y2="152.9"/><line fill="none" stroke="currentColor" stroke-linecap="round" stroke-linejoin="round" stroke-miterlimit="10" x1="13.7" y1="145.1" x2="9.6" y2="108.8"/><line fill="none" stroke="currentColor" stroke-linecap="round" stroke-linejoin="round" stroke-miterlimit="10" x1="9.9" y1="145.5" x2="5.7" y2="109.2"/><path fill="none" stroke="currentColor" stroke-linecap="round" stroke-linejoin="round" stroke-miterlimit="10" d="M14.6 152.5l1.6-2.1 -4.6-40.5 -1.5-1.2 -5.1 0.6 -1.1 1.4 4.6 40.6 2 1.7 0.4 3.1c0.3 2.9-2.3 5.5-5.2 5.9L0.5 162.5c5.8 50.4 16.5 63.1 16.5 63.1l4.6-11.7L14.6 152.5M3.1 162.4c4.4 38.5 11.7 55 15 60.6"/><line fill="none" stroke="currentColor" stroke-linecap="round" stroke-miterlimit="10" x1="15.5" y1="144.9" x2="7.9" y2="145.8"/><path fill="none" stroke="currentColor" stroke-linecap="round" stroke-linejoin="round" stroke-miterlimit="10" d="M215.4 267.6c-0.8 0.7-2.3 1.1-2.3 1.1 0-0.2 1-1.3 1-1.9l1.8 0v0l0.7 0 0.7 0v0l1.8 0c0 0.6 1 1.7 1 1.9 0 0-1.5-0.4-2.3-1.1 0 0.5-0.7 2.5-1.2 2.5C216.1 270.2 215.4 267.6 215.4 267.6zM235.4 252.3c0 7.9-8.4 14.2-18.8 14.2 -10.4 0-18.8-6.4-18.8-14.2 0-5.5 4.1-10.2 10-12.6 4-1.6 6.9-5.2 7.2-9.6 0-0.3 0-0.6 0-1h3.1c0 0.3 0 0.6 0 1 0.3 4.3 3.2 8 7.2 9.6C231.4 242.1 235.4 246.8 235.4 252.3zM216.6 247.4c0.1 0.9 0.7 1.7 1.5 2 1.2 0.5 2.1 1.5 2.1 2.6 0 1.2-0.9 2.2-2.2 2.7 -0.9 0.3-1.9 0.3-2.8 0 -1.3-0.5-2.2-1.5-2.2-2.7 0-1.1 0.8-2.1 2.1-2.6 0.8-0.3 1.4-1.1 1.5-2M216.6 240.1c-0.2 2.3-1.5 4.2-3.5 5.1 -2.9 1.3-4.8 3.8-4.8 6.6 0 2.6 1.6 4.9 4.1 6.3 2.6 1.4 5.8 1.4 8.5 0 2.5-1.3 4.1-3.7 4.1-6.3 0-2.9-2-5.4-4.8-6.6 -1.9-0.9-3.3-2.8-3.5-5.1H216.6zM216.7 234c0.3 3.4 2.5 6.3 5.7 7.5 4.7 1.9 7.9 5.6 7.9 9.9 0 4-2.8 7.5-6.9 9.5 -4.2 2-9.2 2-13.4 0 -4.2-2-6.9-5.5-6.9-9.5 0-4.3 3.2-8 7.9-9.9 3.2-1.3 5.4-4.1 5.7-7.5H216.7z"/><path fill="none" stroke="currentColor" stroke-linecap="round" stroke-linejoin="round" stroke-miterlimit="10" d="M234.1 192.6c-1.9 0-8.7-7.7-10.9-7.7 -2.2 0-5.5 8.7-8.6 8.7M268.6 203.8c1.1 0 1.2-0.5 1.2-0.9 0-4-25.3-10.3-36.7-10.3 -23.6 0-25.3 3.1-29.3 3.1 -2.5 0-9-4.1-9-0.2 0 1.4 2.2 1.2 2.7 1.2 2.1 0 0.4 2.7-4.7 2.7 -3.7 0-9.3-3.1-9.3 4.2 0 7.2 8.1 3 9.3 3 4.9 0 5.9 7.5 34 7.5 27.6 0 43.4-4.1 43.4-6.8 0-1-4-0.4-5.4-0.4C262.9 206.7 264.5 203.8 268.6 203.8zM189 198.7c0 0-9.5-7.9-16.3-7.9 -2.3 0 3.7 7.7 3.7 12.5 0 4.8-5.3 12.8-3.7 12.8 6.5 0 16.3-8.4 16.3-8.4M207.7 212.5c0 0-7.7 5.3-10.3 5.3 -2.6 0-1.3-10.5-1.9-10.5"/><circle fill="none" stroke="currentColor" stroke-linecap="round" stroke-linejoin="round" stroke-miterlimit="10" cx="261.5" cy="202.6" r="1.6"/><path fill="none" stroke="currentColor" stroke-linecap="round" stroke-linejoin="round" stroke-miterlimit="10" d="M228 214.2c0 0-7.2 5.3-10.3 5.3s3-5.5 3-5.5M247.6 208.1c0-0.7-3.2-1.6-5.4-1.6s-5.8 2.1-5.8 3.2C236.5 211.6 247.6 208.8 247.6 208.1zM252.9 199.1c-4.1 0-3.4 9.6 2.9 9.6M256.4 201c-2.2 0-1.8 6.1 1.5 6.1M246.8 202.9c-2.7 0-11.9-2.2-25.3-2.2 -14 0-31.5 2-31.5 2"/><path fill="none" stroke="currentColor" stroke-linecap="round" stroke-linejoin="round" stroke-miterlimit="10" d="M193.5 16.7c2.4 2.4-0.9 21.9-8.7 29.8 -3.8 3.8-18.1-7.9 0.4-26.5C188.5 16.7 191 14.3 193.5 16.7zM179.4 45.8c3.4 3.4 18.6 3.7 18.6 3.7s3 0.7 4.9 2.5c1.8 1.8 12.7-1.7 7.1-7.4 -2.8-2.8-0.4-13.3-7.1-20 -2.1-2.1-8.2-6.7-9.2-7.7M205.6 52.5c0 0 6.7 7.2 7.8 8.4 1.2 1.2 8.6-1.8 6.4-4 -2.2-2.2-3.8-0.1-9.9-6.2M181 33.1c-0.9-0.6-0.8-2.4 0.2-4.1 1-1.7 2.6-2.6 3.5-2s0.2 2.1-0.8 3.7C182.8 32.5 181.9 33.7 181 33.1zM197.4 20.1c1.5 1.5 1.3 14.6-3.7 19.6M202.8 24.5c1.1 1.1 1.7 11.1-1.9 14.7"/><path fill="none" stroke="currentColor" stroke-linecap="round" stroke-linejoin="round" stroke-miterlimit="10" d="M234.9 78.2c4.3 10.4 22.9 47 27.1 45.2 4.2-1.8-8.2-41-12.4-51.3 -2.4-5.8-5.8-4.5-9.9-2.8S232.5 72.4 234.9 78.2zM252.1 78.9c1.6 3.8-9.8 7-9.8 7M255 87.4c1.6 3.8-7.1 5.9-7.1 5.9M246.7 102.1c1.2 2.8 7.2 0 7.2 0M240.3 48.8c0 0-5.4 7.5-0.1 20.2M240.3 68.8c-3.4-8.2-12-8.7-12-8.7M240.2 68.6c-2.3-5.7 5.7-9 5.7-9"/><path fill="none" stroke="currentColor" stroke-linecap="round" stroke-linejoin="round" stroke-miterlimit="10" d="M22.6 85.4c1.5 5.2 5.5 24.8 3.3 25.4 -2.1 0.6-9.2-18-10.7-23.3 -0.8-2.9 0.8-3.5 2.9-4.1C20.2 82.8 21.7 82.4 22.6 85.4zM16.3 90.9c0.5 1.9 5.8-0.3 5.8-0.3M17.7 94.9c0.5 1.9 4.5 0.1 4.5 0.1M25.3 98c0.4 1.4-2.8 2.2-2.8 2.2M11.7 75.8c0 0 4.3 1.2 6.1 7.7M17.7 83.4c-1.2-4.1 1.9-6.9 1.9-6.9M17.7 83.3c-0.8-2.9-4.9-1.7-4.9-1.7"/><path fill="none" stroke="currentColor" stroke-linecap="round" stroke-linejoin="round" stroke-miterlimit="10" d="M63.3 63.7c1.5 0 2.3 0.7 4.7 0.7 2.4 0 10-9.2 10-12.4 0-5.4-7.4-7.8-14.8-7.6 -7.4-0.1-14.8 2.2-14.8 7.6 0 3.2 7.6 12.4 10 12.4 2.4 0 3.2-0.7 4.7-0.7C63.1 63.7 63.3 63.7 63.3 63.7z"/><path fill="none" stroke="currentColor" stroke-linecap="round" stroke-linejoin="round" stroke-miterlimit="10" d="M79.8 38.5c1.5 0 4.6 8.3 1.7 8.3s-5 0.5-5-0.7c0-1.2-0.5-2.9-0.5-4.3M75.1 47c0.7 0 1.4-0.4 1.4-1M81.5 46.7c0 0.8-3 5.8-3.6 5.8M79.5 50.6c0.3 0 2.3-1.2 3-1.2s3.6-4.6 8.9-4.6 5.5 4 5.5 5 -0.1 3.1-0.7 3.1c-0.2 0-3-5.7-4.9-5.7s-3.8 4.1-6.7 4.1c-0.8 0-1.7 3-2.9 3M82.6 49.4c1.2 0 1.8 0.9 1.8 2M91.6 44.8c1 0 0.9 2.4-0.2 2.4M77.2 54.4c1.1 0 4-0.2 6.2-0.2s2.1-1.4 9.1-1.4c0.8 0 3.6 2.6 3.6 5.4s-0.2 4.1-0.7 4.1c-0.2 0-1.3-5.8-3.1-5.8 -1 0-8.5 1.6-8.5 0.3 0 0-0.7 0.3-1.6 0.3M92.5 52.8c0.8 0 0.9 3.7-0.3 3.7M83.7 54.2c0.8 0 0.9 2.7 0.1 2.7M75.4 57.3c1.7 0 4.5-0.4 6-0.4 0.8 0 7.5 5.1 7.5 6.2 0 0.3 0.2 1 0.4 1 0.4 0 1.4 1 1.4 3 0 2-1.7 3.9-2 3.9 -0.3 0-0.2-2.8-0.2-3.5s-0.7-1.7-0.7-2.1c0-0.4-6.4-2.6-6.4-4.2 0-0.4-0.1-0.8-0.2-0.8s-2.8 1.6-3.3 1.6M81.4 56.9c0.6 0 0.5 3.6-0.1 3.6M89.1 63.9c0 0.9-0.4 1.5-1.3 1.5M71.4 62.1c1.3 0 4.6-0.2 6-0.2 1.4 0 4.4 2 4.4 2.6 0 0.6 1 0.8 1 3.2 0 0.7-0.3 1-0.3 1.3s-0.1 3-3.5 3c-0.2 0 1.5-2.4 1.5-3.2 0-0.4 0-0.5 0-0.7s-0.4-2.2-1-2.4 -3.1-1-3.5-1 -1.9 1.3-4.8 1.3c-2.9 0-3.8-1.7-3.8-1.7M77.3 61.9c0.4 0-0.3 2.8-1.3 2.8M80.5 68.7c0 0.8 1.9 0.6 1.9 0.1M81.8 64.7c0 1.2-1.5 1.3-1.9 1.3M60.6 33.3c1.8 0-1.7 7.1-7.2 7.1 -2.2 0-2.2 1.4-3.1 1.4 -1.2 0-3.8-1.6-3.8-3.1 0-1.5 5.9-9.3 10.1-9.3s4 0.4 4 1.3c0 0.3-11.1 4.4-7.1 4.4S59.5 33.3 60.6 33.3zM65.7 33.3c-1.8 0 1.7 7.1 7.2 7.1 2.2 0 2.2 1.4 3.1 1.4 1.2 0 3.8-1.6 3.8-3.1 0-1.5-5.9-9.3-10.1-9.3 -4.1 0-4 0.4-4 1.3 0 0.3 11.1 4.4 7.1 4.4C68.8 35.1 66.9 33.3 65.7 33.3zM46.5 38.5c-1.5 0-4.6 8.3-1.7 8.3 3 0 5 0.5 5-0.7 0-1.2 0.5-2.9 0.5-4.3M51.2 47c-0.7 0-1.4-0.4-1.4-1M44.8 46.7c0 0.8 3 5.8 3.6 5.8M46.8 50.6c-0.3 0-2.3-1.2-3-1.2s-3.6-4.6-8.9-4.6 -5.5 4-5.5 5 0.1 3.1 0.7 3.1c0.2 0 3-5.7 4.9-5.7s3.8 4.1 6.7 4.1c0.8 0 1.7 3 2.9 3M43.7 49.4c-1.2 0-1.8 0.9-1.8 2M34.7 44.8c-1 0-0.9 2.4 0.2 2.4M49.2 54.4c-1.1 0-4-0.2-6.2-0.2 -2.2 0-2.1-1.4-9.1-1.4 -0.8 0-3.6 2.6-3.6 5.4s0.2 4.1 0.7 4.1c0.2 0 1.3-5.8 3.1-5.8 1 0 8.5 1.6 8.5 0.3 0 0 0.7 0.3 1.6 0.3M33.8 52.8c-0.8 0-0.9 3.7 0.3 3.7M42.6 54.2c-0.8 0-0.9 2.7-0.1 2.7M50.9 57.3c-1.7 0-4.5-0.4-6-0.4 -0.8 0-7.5 5.1-7.5 6.2 0 0.3-0.2 1-0.4 1 -0.4 0-1.4 1-1.4 3 0 2 1.7 3.9 2 3.9 0.3 0 0.2-2.8 0.2-3.5s0.7-1.7 0.7-2.1c0-0.4 6.4-2.6 6.4-4.2 0-0.4 0.1-0.8 0.2-0.8 0.2 0 2.8 1.6 3.3 1.6M45 56.9c-0.6 0-0.5 3.6 0.1 3.6M37.3 63.9c0 0.9 0.4 1.5 1.3 1.5M55 62.1c-1.3 0-4.6-0.2-6-0.2 -1.4 0-4.4 2-4.4 2.6 0 0.6-1 0.8-1 3.2 0 0.7 0.3 1 0.3 1.3s0.1 3 3.5 3c0.2 0-1.5-2.4-1.5-3.2 0-0.4 0-0.5 0-0.7s0.4-2.2 1-2.4c0.6-0.2 3.1-1 3.5-1 0.4 0 1.9 1.3 4.8 1.3s3.8-1.7 3.8-1.7M49.1 61.9c-0.4 0 0.3 2.8 1.3 2.8M45.8 68.7c0 0.8-1.9 0.6-1.9 0.1M44.6 64.7c0 1.2 1.5 1.3 1.9 1.3"/><circle fill="none" stroke="currentColor" stroke-linecap="round" stroke-linejoin="round" stroke-miterlimit="10" cx="68.8" cy="43.4" r="1.1"/><circle fill="none" stroke="currentColor" stroke-linecap="round" stroke-linejoin="round" stroke-miterlimit="10" cx="57.8" cy="43.4" r="1.1"/><path fill="none" stroke="currentColor" stroke-linecap="round" stroke-linejoin="round" stroke-miterlimit="10" d="M95.4 275.5c-3 4.3-8.1 5.9-11.5 3.6 -3.4-2.3-3.8-7.7-0.8-12 3-4.3 10-8.7 13.4-6.3C99.9 263 98.4 271.2 95.4 275.5zM21.3 232.9c1.7-4.1 5.7-6.3 8.9-5s4.5 5.7 2.8 9.8c-1.7 4.1-6.7 8.9-10 7.6S19.7 237 21.3 232.9zM100.4 22.7c-0.7 4.3-4.1 7.4-7.6 6.8s-5.6-4.6-4.9-8.9 4.6-10.2 8.1-9.6S101.2 18.4 100.4 22.7z"/><ellipse fill="none" stroke="currentColor" stroke-linecap="round" stroke-linejoin="round" stroke-miterlimit="10" cx="177" cy="236" rx="6.8" ry="10.4"/><path fill="none" stroke="currentColor" stroke-linecap="round" stroke-linejoin="round" stroke-miterlimit="10" d="M181.1 282.1c0 1.2-1.8 2.2-4.1 2.2s-4.1-1-4.1-2.2M172.9 282.1c0-5.1 2.4-10.5 2.4-36M181.1 282.1c0-5.1-2.4-10.5-2.4-36M176.1 230c-2.7 0-3 12 0 12"/><line fill="none" stroke="currentColor" stroke-linecap="round" stroke-linejoin="round" stroke-miterlimit="10" x1="89.6" y1="227.7" x2="98.9" y2="227.7"/><line fill="none" stroke="currentColor" stroke-linecap="round" stroke-linejoin="round" stroke-miterlimit="10" x1="89.6" y1="232.1" x2="98.9" y2="232.1"/><path fill="none" stroke="currentColor" stroke-linecap="round" stroke-linejoin="round" stroke-miterlimit="10" d="M89.5 236.6h-7.7c-2.2 0-3.9-1.8-3.9-3.9v-1.1c-25.5 0-31 2.4-36 2.4 -1.2 0-2.2-1.8-2.2-4.1 0-2.2 1-4.1 2.2-4.1 5.1 0 10.5 2.4 36 2.4v-1c0-2.2 1.8-3.9 3.9-3.9h7.8c-1.2 0-2.2 1-2.2 2.2 0 1.2 1 2.2 2.2 2.2 -1.2 0-2.2 1-2.2 2.2 0 1.2 1 2.2 2.2 2.2 0 0 0 0 0 0v0c-1.2 0-2.2 1-2.2 2.2C87.3 235.6 88.3 236.5 89.5 236.6z"/><line fill="none" stroke="currentColor" stroke-linecap="round" stroke-linejoin="round" stroke-miterlimit="10" x1="89.5" y1="236.6" x2="98.8" y2="236.6"/><line fill="none" stroke="currentColor" stroke-linecap="round" stroke-linejoin="round" stroke-miterlimit="10" x1="89.6" y1="223.2" x2="98.9" y2="223.2"/><path fill="none" stroke="currentColor" stroke-linecap="round" stroke-linejoin="round" stroke-miterlimit="10" d="M89.5 227.7c0 0 0 0 0 0"/><line fill="none" stroke="currentColor" stroke-linecap="round" stroke-miterlimit="10" x1="178" y1="74.2" x2="219.3" y2="74.2"/><line fill="none" stroke="currentColor" stroke-linecap="round" stroke-miterlimit="10" x1="178" y1="77.5" x2="219.3" y2="77.5"/><path fill="none" stroke="currentColor" stroke-linejoin="round" stroke-miterlimit="10" d="M219.8 70.9c-1.4 12.5-1.1 26.7 0 40.3 0.1 0.6-0.4 1.1-1 1 -13-1.6-28.5-2.3-40.1-0.1 -0.6 0.1-1.2-0.4-1.1-1.1 1.2-8.7 1-29.8-0.1-40.1 -0.1-0.6 0.4-1.1 1-1 12.1 1.3 28.3 1.5 40.2 0C219.3 69.8 219.9 70.3 219.8 70.9z"/><line fill="none" stroke="currentColor" stroke-linecap="round" stroke-miterlimit="10" x1="186.5" y1="90.4" x2="199.7" y2="103.6"/><line fill="none" stroke="currentColor" stroke-linecap="round" stroke-miterlimit="10" x1="190.2" y1="86.7" x2="198" y2="94.6"/><path fill="none" stroke="currentColor" stroke-linecap="round" stroke-linejoin="round" stroke-miterlimit="10" d="M42.9 260.8c0-8.5 12.4-9.4 13.8-9.4s5.6-0.7 5.6-8.8c0-2.8 5.1-3.1 5.1-1.1 0 2.1-1.3 29-14.8 29C43.2 270.5 42.9 264.1 42.9 260.8z"/><line fill="none" stroke="currentColor" stroke-linecap="round" stroke-linejoin="round" stroke-miterlimit="10" x1="67.2" y1="240.8" x2="70.6" y2="244.4"/><path fill="none" stroke="currentColor" stroke-linecap="round" stroke-linejoin="round" stroke-miterlimit="10" d="M70.6 244.4c0.1 0.2 0.2 0.4 0.2 0.7 0 2.1-1.3 29-14.8 29 -3.3 0-5.4-0.7-6.9-1.8"/><line fill="none" stroke="currentColor" stroke-linecap="round" stroke-linejoin="round" stroke-miterlimit="10" x1="45" y1="267.9" x2="49.2" y2="272.2"/><path fill="none" stroke="currentColor" stroke-linecap="round" stroke-linejoin="round" stroke-miterlimit="10" d="M59.7 255.5c-0.2 6.1-9.1 6.9-9.1 8.5 0 1.6 0.8 3.5 0.8 3.5M49.5 261.3c-2.6 0-3.4-1.7-3.4-1.7"/><path fill="none" stroke="currentColor" stroke-linecap="round" stroke-linejoin="round" stroke-miterlimit="10" d="M96.5 215.3h-54.4c-2.8 0-5-2.2-5-5V89.2c0-2.8 2.2-5 5-5h54.4c2.8 0 5 2.2 5 5v121C101.5 213 99.2 215.3 96.5 215.3z"/><rect x="41.4" y="100.3" fill="none" stroke="currentColor" stroke-linecap="round" stroke-linejoin="round" stroke-miterlimit="10" width="55.7" height="99.1"/><path fill="currentColor" d="M74.2 91.8c0.1 0 0.3 0.1 0.3 0.3v0.5c0 0.1-0.1 0.3-0.3 0.3h-9.9c-0.1 0-0.3-0.1-0.3-0.3v-0.5c0-0.1 0.1-0.3 0.3-0.3H74.2M74.2 90.8h-9.9c-0.7 0-1.3 0.6-1.3 1.3v0.5c0 0.7 0.6 1.3 1.3 1.3h9.9c0.7 0 1.3-0.6 1.3-1.3v-0.5C75.5 91.4 74.9 90.8 74.2 90.8L74.2 90.8z"/><circle fill="none" stroke="currentColor" stroke-linecap="round" stroke-linejoin="round" stroke-miterlimit="10" cx="69.3" cy="206.6" r="4.5"/><polyline fill="none" stroke="currentColor" stroke-linecap="round" stroke-linejoin="round" stroke-miterlimit="10" points=" 64.5 153.5 69.3 149.8 74 146 69.3 142.3 69.3 149.8 69.3 157.3 74 153.5 69.3 149.8 64.5 146 "/><line fill="none" stroke="currentColor" stroke-linecap="round" stroke-linejoin="round" stroke-miterlimit="10" x1="162.6" y1="280.8" x2="162.6" y2="12.5"/><line fill="none" stroke="FF674D" stroke-linecap="round" stroke-linejoin="round" stroke-miterlimit="10" x1="162.5" y1="289.2" x2="162.5" y2="293.5"/><path fill="none" stroke="currentColor" stroke-linecap="round" stroke-linejoin="round" stroke-miterlimit="10" d="M112.3 12.5c0-2.1-0.1-4.5 1.3-6.3 1.2-1.5 3.1-2.4 4.9-3.1 1.9-0.7 3.9-1.2 5.9-1.6 4.3-0.8 8.6-1.1 13-1.1 2.4 0 4.9 0.1 7.3 0.3 4.1 0.4 8.4 1 12.3 2.6 1.8 0.7 3.6 1.7 4.6 3.4 1 1.7 0.9 3.8 0.9 5.7"/><ellipse fill="none" stroke="currentColor" stroke-linecap="round" stroke-linejoin="round" stroke-miterlimit="10" cx="137.5" cy="7.2" rx="8.2" ry="2.2"/><path fill="none" stroke="currentColor" stroke-linecap="round" stroke-linejoin="round" stroke-miterlimit="10" d="M162.6 21.6c0 3.8-11.2 6.8-25.1 6.8s-25.1-3-25.1-6.8"/><circle fill="none" stroke="currentColor" stroke-linecap="round" stroke-linejoin="round" stroke-miterlimit="10" cx="137.5" cy="20.4" r="1.6"/><line fill="none" stroke="currentColor" stroke-linecap="round" stroke-linejoin="round" stroke-miterlimit="10" x1="112.3" y1="280.8" x2="112.3" y2="12.5"/><path fill="none" stroke="currentColor" stroke-linecap="round" stroke-linejoin="round" stroke-miterlimit="10" d="M162.6 278.7c0 3.7-11.2 6.6-25.1 6.6s-25.1-3-25.1-6.6M162.6 280.8c0 4-11.2 7.2-25.1 7.2 -13.9 0-25.1-3.2-25.1-7.2"/><line fill="none" stroke="currentColor" stroke-linecap="round" stroke-linejoin="round" stroke-miterlimit="10" x1="112.3" y1="289.2" x2="112.3" y2="293.5"/><path fill="none" stroke="currentColor" stroke-linecap="round" stroke-linejoin="round" stroke-miterlimit="10" d="M162.6 293.5c0 3.9-11.2 7-25.1 7s-25.1-3.1-25.1-7M157.7 285c3.1 1.1 4.9 2.5 4.9 4 0 3.7-11.2 6.7-25.1 6.7 -13.9 0-25.1-3-25.1-6.7 0-1.5 1.8-2.9 4.9-4"/><path fill="none" stroke="currentColor" stroke-linecap="round" stroke-linejoin="round" stroke-miterlimit="10" d="M139.4 222.6h-3.9c-1 0-1.8-0.8-1.8-1.8v-17.9c0-1 0.8-1.8 1.8-1.8h3.9c1 0 1.8 0.8 1.8 1.8v17.9C141.2 221.8 140.4 222.6 139.4 222.6z"/></svg>
