<svg id="pairing-fab-indicator" xmlns="http://www.w3.org/2000/svg" xmlns:xlink="http://www.w3.org/1999/xlink" xmlns:a="http://ns.adobe.com/AdobeSVGViewerExtensions/3.0/" version="1.1" x="0px" y="0px" width="62px" height="62px" viewBox="0 0 62 62" enable-background="new 0 0 62 62" xml:space="preserve">
  <defs/>
  <circle fill="none" stroke="currentColor" stroke-width="2" stroke-linecap="round" stroke-linejoin="round" stroke-miterlimit="10" cx="31" cy="31" r="30" transform="translate(0 62) rotate(270)"/>
  <g>
    <path fill="currentColor" d="M31 31.25c-0.7 0-1.2-0.6-1.2-1.3v-8c0-0.6 0.5-1.2 1.2-1.2 0.7 0 1.2 0.6 1.2 1.2v8C32.3 30.65 31.7 31.25 31 31.25z" />
    <path fill="currentColor" d="M31 41.25c-5.1 0-9.2-4.1-9.2-9.2 0-2.5 1-4.8 2.7-6.5 0.5-0.5 1.3-0.5 1.8 0s0.5 1.3 0 1.8c-1.3 1.3-2 3-2 4.7 0 3.7 3 6.7 6.7 6.7s6.7-3 6.7-6.7c0-1.8-0.7-3.5-2-4.7 -0.5-0.5-0.5-1.3 0-1.8s1.3-0.5 1.8 0c1.8 1.7 2.7 4.1 2.7 6.5C40.2 37.15 36.1 41.25 31 41.25z"/>
  </g>
</svg>
