<svg id="power" xmlns="http://www.w3.org/2000/svg" viewBox="0 0 18.4 20.5" enable-background="new 0 0 18.4 20.5" xml:space="preserve"><path fill="currentColor" d="M9.2 10.5C8.5 10.5 8 9.9 8 9.2v-8C8 0.6 8.5 0 9.2 0s1.2 0.6 1.2 1.2v8C10.5 9.9 9.9 10.5 9.2 10.5z"/><path fill="currentColor" d="M9.2 20.5c-5.1 0-9.2-4.1-9.2-9.2 0-2.5 1-4.8 2.7-6.5 0.5-0.5 1.3-0.5 1.8 0C5 5.3 5 6.1 4.5 6.6c-1.3 1.3-2 3-2 4.7 0 3.7 3 6.7 6.7 6.7 3.7 0 6.7-3 6.7-6.7 0-1.8-0.7-3.5-2-4.7 -0.5-0.5-0.5-1.3 0-1.8 0.5-0.5 1.3-0.5 1.8 0 1.8 1.7 2.7 4.1 2.7 6.5C18.4 16.4 14.3 20.5 9.2 20.5z"/></svg>