<svg id="profile" xmlns="http://www.w3.org/2000/svg" version="1.1" x="0" y="0" viewBox="0 0 21.5 21.5" enable-background="new 0 0 21.5 21.5" xml:space="preserve"><path fill="currentColor" d="M10.8 21.5C4.8 21.5 0 16.7 0 10.7S4.8 0 10.8 0c5.9 0 10.7 4.8 10.7 10.8S16.7 21.5 10.8 21.5zM10.8 1.5c-5.1 0-9.2 4.1-9.2 9.2S5.6 20 10.8 20c5.1 0 9.2-4.1 9.2-9.2S15.9 1.5 10.8 1.5zM10.8 11.5c-1.8 0-3.2-1.8-3.2-4.1S9 3.3 10.8 3.3s3.2 1.8 3.2 4.1S12.5 11.5 10.8 11.5zM10.8 4.8C9.8 4.8 9.1 6 9.1 7.4S9.8 10 10.8 10c0.9 0 1.7-1.2 1.7-2.6S11.7 4.8 10.8 4.8z"/><path fill="currentColor" d="M5 16c-0.4 0-0.8-0.3-0.8-0.8 0-1.4 0.8-2.7 2.3-3.6 0.4-0.2 0.8-0.1 1 0.2 0.2 0.4 0.1 0.8-0.2 1 -1 0.6-1.6 1.5-1.6 2.3C5.7 15.7 5.4 16 5 16zM16.5 16c-0.4 0-0.8-0.3-0.8-0.8 0-0.9-0.6-1.7-1.6-2.3 -0.4-0.2-0.5-0.7-0.2-1 0.2-0.4 0.7-0.5 1-0.2 1.4 0.9 2.3 2.2 2.3 3.6C17.3 15.7 16.9 16 16.5 16z"/></svg>
