<svg id="recipes" xmlns="http://www.w3.org/2000/svg" version="1.1" x="0" y="0" width="21.5" height="21.5" viewBox="0 0 21.5 21.5" enable-background="new 0 0 21.4803 21.5" xml:space="preserve"><path fill="none" stroke="currentColor" stroke-width="1.5" stroke-linecap="round" stroke-linejoin="round" stroke-miterlimit="10" d="M7.8 3.8l2.4 2.4c0.5 0.5 0.6 1.3-0.1 1.9l10.6 10.2c0 0 0 1.1-0.7 1.8 -0.7 0.7-1.8 0.7-1.8 0.7L8.1 10.1c-0.7 0.7-1.4 0.6-1.9 0.1L3.8 7.8 7.8 3.8zM5.8 5.8"/><line fill="none" stroke="currentColor" stroke-width="1.5" stroke-linecap="round" stroke-linejoin="round" stroke-miterlimit="10" x1="7.8" y1="3.8" x2="4.8" y2="0.8"/><line fill="none" stroke="currentColor" stroke-width="1.5" stroke-linecap="round" stroke-linejoin="round" stroke-miterlimit="10" x1="2.8" y1="2.7" x2="5.8" y2="5.8"/><line fill="none" stroke="currentColor" stroke-width="1.5" stroke-linecap="round" stroke-linejoin="round" stroke-miterlimit="10" x1="3.8" y1="7.8" x2="0.8" y2="4.8"/><path fill="none" stroke="currentColor" stroke-width="1.5" stroke-linecap="round" stroke-linejoin="round" stroke-miterlimit="10" d="M9.3 15.6C6.9 18.1 4.3 20.8 4.3 20.8s-1 0-1.7-0.6c-0.6-0.6-0.6-1.7-0.6-1.7s2.6-2.5 5.2-4.9"/><ellipse transform="matrix(0.7071 -0.7071 0.7071 0.7071 1.0749 13.7978)" fill="none" stroke="currentColor" stroke-width="1.5" stroke-linecap="round" stroke-linejoin="round" stroke-miterlimit="10" cx="17.2" cy="5.6" rx="3.9" ry="3"/></svg>
