<svg id="sad-joule" xmlns="http://www.w3.org/2000/svg" xmlns:xlink="http://www.w3.org/1999/xlink" xmlns:a="http://ns.adobe.com/AdobeSVGViewerExtensions/3.0/" version="1.1" x="0" y="0" width="50.58" height="194.68" viewBox="0 0 50.58 194.68" enable-background="new 0 0 50.58 194.68" xml:space="preserve">
  <path fill="currentColor" d="M19.8 40.4c-0.12 0-0.24-0.05-0.34-0.13l-8.92-8.19h-5C2.48 32.08 0 29.6 0 26.54v-21C0 2.48 2.48 0 5.54 0h39.5c3.05 0 5.54 2.48 5.54 5.54v21c0 3.05-2.49 5.54-5.54 5.54H20.3v7.82c0 0.2-0.12 0.38-0.3 0.46C19.94 40.39 19.87 40.4 19.8 40.4zM5.54 1C3.04 1 1 3.04 1 5.54v21c0 2.5 2.04 4.54 4.54 4.54h5.2c0.12 0 0.25 0.05 0.34 0.13l8.23 7.55v-7.18c0-0.28 0.22-0.5 0.5-0.5h25.24c2.5 0 4.54-2.04 4.54-4.54v-21c0-2.5-2.04-4.54-4.54-4.54H5.54z"/>
  <path fill="currentColor" d="M23.84 23.88c-0.07 0-0.15-0.02-0.22-0.05 -2.7-1.31-5.07-3.28-6.86-5.7l-0.19-0.26c-0.93-1.32-1.47-2.87-1.58-4.48 -0.01-0.2-0.02-0.4-0.02-0.61 0-0.2 0.01-0.41 0.02-0.61 0.32-2.72 2.61-4.76 5.33-4.76 1.48 0 2.86 0.59 3.89 1.67 0.19 0.2 0.18 0.51-0.01 0.7l-1.07 1.07 1.13 1.13c0.2 0.2 0.2 0.51 0 0.71l-1.34 1.34 1.63 1.63c0.09 0.09 0.15 0.22 0.15 0.35s-0.05 0.26-0.15 0.35l-1.44 1.44 1.55 1.54c0.09 0.09 0.15 0.22 0.15 0.35s-0.05 0.26-0.15 0.35l-0.81 0.81 0.48 2.41c0.04 0.19-0.03 0.38-0.18 0.49C24.06 23.85 23.95 23.88 23.84 23.88zM20.31 8.42c-2.21 0-4.07 1.65-4.33 3.85 -0.01 0.15-0.02 0.33-0.02 0.52 0 0.18 0.01 0.36 0.02 0.54 0.1 1.43 0.58 2.8 1.4 3.97l0.18 0.25c1.49 2.01 3.41 3.69 5.58 4.91l-0.33-1.65c-0.03-0.16 0.02-0.33 0.14-0.45l0.65-0.65 -1.55-1.54c-0.09-0.09-0.15-0.22-0.15-0.35s0.05-0.26 0.15-0.35l1.44-1.44 -1.63-1.63c-0.09-0.09-0.15-0.22-0.15-0.35s0.05-0.26 0.15-0.35l1.34-1.34 -1.13-1.13c-0.2-0.2-0.2-0.51 0-0.71l1.06-1.06C22.34 8.78 21.36 8.42 20.31 8.42z"/>
  <path fill="currentColor" d="M26.74 23.88c-0.07 0-0.15-0.02-0.22-0.05 -0.14-0.07-0.24-0.19-0.27-0.34l-0.59-2.67c-0.04-0.17 0.01-0.34 0.13-0.46l0.65-0.65 -1.54-1.54c-0.2-0.2-0.2-0.51 0-0.71l1.44-1.44 -1.58-1.63c-0.18-0.19-0.19-0.49-0.01-0.69l1.25-1.35 -1.04-1.14c-0.18-0.2-0.17-0.5 0.01-0.69l1.41-1.42c1.02-1.07 2.4-1.66 3.88-1.66 2.72 0 5.01 2.03 5.33 4.73 0.02 0.23 0.02 0.43 0.02 0.63 0 0.2-0.01 0.41-0.02 0.61 -0.11 1.61-0.65 3.15-1.58 4.47l-0.15 0.2c-1.84 2.48-4.22 4.45-6.91 5.76C26.89 23.87 26.82 23.88 26.74 23.88zM26.7 20.87l0.39 1.77c2.32-1.23 4.36-2.99 5.93-5.1l0.18-0.25c0.81-1.17 1.3-2.54 1.39-3.96 0.01-0.18 0.02-0.36 0.02-0.54 0-0.18-0.01-0.36-0.02-0.54 -0.26-2.17-2.12-3.82-4.33-3.82 -1.21 0-2.33 0.48-3.16 1.36l-1.08 1.09L27.05 12c0.17 0.19 0.17 0.48 0 0.68l-1.24 1.34 1.6 1.65c0.19 0.2 0.19 0.51-0.01 0.7l-1.44 1.44 1.54 1.54c0.2 0.2 0.2 0.51 0 0.71L26.7 20.87z"/>
  <g id="SPLINE_1_">
    <path fill="none" stroke="currentColor" stroke-linecap="round" stroke-linejoin="round" stroke-miterlimit="10" d="M12.73 50.2c0-1.06-0.03-2.26 0.67-3.13 0.61-0.76 1.56-1.22 2.46-1.55 0.96-0.36 1.95-0.6 2.96-0.79 2.14-0.4 4.31-0.53 6.48-0.55 1.22 0.01 2.44 0.05 3.66 0.16 2.06 0.19 4.2 0.51 6.13 1.3 0.88 0.36 1.81 0.87 2.32 1.71 0.5 0.83 0.46 1.91 0.46 2.84"/>
  </g>
  <ellipse fill="none" stroke="currentColor" stroke-linecap="round" stroke-linejoin="round" stroke-miterlimit="10" cx="25.29" cy="47.55" rx="4.09" ry="1.11"/>
  <path fill="none" stroke="currentColor" stroke-linecap="round" stroke-linejoin="round" stroke-miterlimit="10" d="M37.86 54.76c0 1.88-5.62 3.4-12.56 3.4s-12.56-1.52-12.56-3.4"/>
  <circle fill="none" stroke="currentColor" stroke-linecap="round" stroke-linejoin="round" stroke-miterlimit="10" cx="25.29" cy="54.15" r="0.8"/>
  <line fill="none" stroke="currentColor" stroke-linecap="round" stroke-linejoin="round" stroke-miterlimit="10" x1="12.73" y1="184.33" x2="12.73" y2="54.54"/>
  <line fill="none" stroke="currentColor" stroke-linecap="round" stroke-linejoin="round" stroke-miterlimit="10" x1="12.73" y1="54.54" x2="12.73" y2="50.2"/>
  <path fill="none" stroke="currentColor" stroke-linecap="round" stroke-linejoin="round" stroke-miterlimit="10" d="M37.85 184.33c0 1.98-5.61 3.59-12.55 3.59s-12.57-1.61-12.57-3.59"/>
  <line fill="none" stroke="currentColor" stroke-linecap="round" stroke-linejoin="round" stroke-miterlimit="10" x1="37.84" y1="188.53" x2="37.84" y2="190.67"/>
  <line fill="none" stroke="currentColor" stroke-linecap="round" stroke-linejoin="round" stroke-miterlimit="10" x1="12.73" y1="188.53" x2="12.73" y2="190.67"/>
  <path fill="none" stroke="currentColor" stroke-linecap="round" stroke-linejoin="round" stroke-miterlimit="10" d="M37.84 190.67c0 1.94-5.62 3.51-12.55 3.51s-12.55-1.57-12.55-3.51"/>
  <line fill="none" stroke="currentColor" stroke-linecap="round" stroke-linejoin="round" stroke-miterlimit="10" x1="37.86" y1="184.33" x2="37.86" y2="50.2"/>
  <path fill="none" stroke="currentColor" stroke-linecap="round" stroke-linejoin="round" stroke-miterlimit="10" d="M35.41 186.46c1.53 0.56 2.43 1.24 2.43 1.98 0 1.85-5.62 3.35-12.55 3.35s-12.55-1.5-12.55-3.35c0-0.74 0.9-1.43 2.43-1.98"/>
  <path fill="none" stroke="currentColor" stroke-linecap="round" stroke-linejoin="round" stroke-miterlimit="10" d="M26.05 155.62h-1.51c-0.61 0-1.1-0.49-1.1-1.1v-8.54c0-0.61 0.49-1.1 1.1-1.1h1.51c0.61 0 1.1 0.49 1.1 1.1v8.54C27.15 155.13 26.66 155.62 26.05 155.62z"/>
</svg>
