<svg xmlns="http://www.w3.org/2000/svg" id="sos-paper-airplane" version="1.1" x="0" y="0" width="40.2" height="49.6" viewBox="0 0 40.2 49.6" enable-background="new 0 0 40.2 49.6" xml:space="preserve"><line fill="none" stroke="#414141" stroke-width="1.5" stroke-linecap="round" stroke-linejoin="round" stroke-miterlimit="10" x1="33.3" y1="33" x2="39" y2="45.7"></line><polyline fill="none" stroke="#414141" stroke-width="1.5" stroke-linecap="round" stroke-linejoin="round" stroke-miterlimit="10" points=" 13.2 18.9 20.1 3.5 26.9 18.8 "></polyline><line fill="none" stroke="#414141" stroke-width="1.5" stroke-linecap="round" stroke-linejoin="round" stroke-miterlimit="10" x1="1.2" y1="45.7" x2="6.9" y2="33"></line><path fill="#43413F" d="M8.3 24.9c0.1-0.3 0-0.9-0.7-1.1 -0.5-0.2-0.9 0-1.1 0.3 -0.1 0.3 0 0.6 0.4 0.8l0.7 0.5C8.7 26 9 27 8.6 27.8c-0.4 0.9-1.5 1.6-2.9 1 -1.6-0.6-1.9-2-1.7-2.8l1.3 0.2c-0.2 0.6 0 1.2 0.8 1.5 0.5 0.2 0.9 0.1 1.1-0.3 0.1-0.3 0-0.6-0.4-0.8l-0.8-0.5c-0.9-0.6-1.3-1.5-0.9-2.4 0.4-1.1 1.7-1.5 2.9-1.1 1.5 0.6 1.7 1.7 1.6 2.4L8.3 24.9zM12.8 28.8c0.5 0.1 0.8 0.6 0.8 1.1 -0.1 0.5-0.6 0.8-1.1 0.8 -0.5-0.1-0.8-0.6-0.7-1.1C11.8 29.1 12.3 28.8 12.8 28.8zM20.1 24.7c1.8 0 3.3 1.3 3.3 3.4 0 2-1.5 3.3-3.3 3.3 -1.8 0-3.3-1.3-3.3-3.4C16.8 26 18.3 24.7 20.1 24.7zM20.1 30c0.9 0 1.8-0.6 1.9-1.9s-0.9-1.9-1.8-2c-0.9 0-1.9 0.6-1.9 1.9S19.2 30 20.1 30zM27.4 29c0.5-0.1 1 0.3 1.1 0.8 0.1 0.5-0.3 1-0.8 1.1 -0.5 0.1-1-0.3-1.1-0.8C26.5 29.5 26.9 29 27.4 29zM34 24.4c-0.1-0.3-0.5-0.7-1.3-0.4 -0.5 0.2-0.7 0.6-0.6 0.9 0.1 0.3 0.4 0.4 0.8 0.4l0.9-0.1c1.2-0.2 2.1 0.3 2.4 1.2 0.3 0.9-0.1 2.2-1.5 2.7 -1.7 0.6-2.8-0.2-3.1-1l1.1-0.7c0.2 0.5 0.8 0.9 1.6 0.6 0.5-0.2 0.8-0.6 0.6-0.9 -0.1-0.3-0.4-0.4-0.9-0.4l-0.9 0.1c-1.1 0.2-1.9-0.3-2.3-1.2 -0.4-1.1 0.3-2.3 1.5-2.7 1.5-0.5 2.4 0.2 2.8 0.8L34 24.4 34 24.4z"></path><polygon fill="none" stroke="#414141" stroke-width="1.5" stroke-linecap="round" stroke-linejoin="round" stroke-miterlimit="10" points=" 20.1 3.5 33 0.8 39.4 19.8 39 45.7 31.5 48.9 20.1 48.2 8.7 48.9 1.2 45.7 0.8 19.8 7.2 0.8 "></polygon><polyline fill="none" stroke="#414141" stroke-width="1.5" stroke-linecap="round" stroke-linejoin="round" stroke-miterlimit="10" points=" 0.8 19.8 20.1 3.5 39.4 19.8 "></polyline><line fill="none" stroke="#414141" stroke-width="1.5" stroke-linecap="round" stroke-linejoin="round" stroke-miterlimit="10" x1="20.1" y1="3.5" x2="20.1" y2="20.9"></line><line fill="none" stroke="#414141" stroke-width="1.5" stroke-linecap="round" stroke-linejoin="round" stroke-miterlimit="10" x1="20.1" y1="48.2" x2="20.1" y2="35.8"></line></svg>
