<svg xmlns="http://www.w3.org/2000/svg" id="steaming-joule" height="100" viewBox="0 0 100 110" width="100">
  <style>

    svg {
      color: white;
    }

    @-webkit-keyframes wisp {
      to {
        stroke-dashoffset: 2;
      }
    }

    .path1 {
      stroke-dasharray:40;
      stroke-dashoffset: 80;
      animation-direction: normal;
      animation: wisp 3.3s ease-in-out infinite;
    }

    .path2 {
      stroke-dasharray:40;
      stroke-dashoffset: 80;
      animation-direction: normal;
      animation: wisp 3.5s ease-in-out infinite;
    }

    .path3 {
      stroke-dasharray: 40;
      stroke-dashoffset: 80;
      animation-direction: normal;
      animation: wisp 3.8s ease-in-out infinite;
    }

    .path4 {
      stroke-dasharray: 40;
      stroke-dashoffset: 80;
      animation-direction: normal;
      animation: wisp 3.3s ease-in-out infinite;
    }


  </style>
  <g fill="none" stroke-linecap="round" stroke-linejoin="round" stroke-miterlimit="10" stroke-width="2" stroke="currentColor">
    <path d="M55.82 41.29c15.35 1.24 26.6 5.26 26.6 10.02 0 5.75-16.37 10.41-36.56 10.41S9.3 57.07 9.3 51.31c0-4.77 11.26-8.79 26.63-10.03"/>
    <path d="M82.42 51.31c0 0 0 38.89 0 44.65 0 5.75-16.37 10.41-36.56 10.41S9.3 101.71 9.3 95.96c0-5.75 0-44.65 0-44.65"/>
    <line fill="currentColor" stroke-linecap="round" stroke-linejoin="round" stroke-miterlimit="10" stroke-width="2" stroke="currentColor" x1="55.82" x2="55.82" y1="54.83" y2="14.87"/>
    <line fill="currentColor" stroke-linecap="round" stroke-linejoin="round" stroke-miterlimit="10" stroke-width="2" stroke="currentColor" x1="35.9" x2="35.9" y1="14.87" y2="52.28"/>
    <path d="M55.82 14.87c0 1.59-4.46 2.88-9.96 2.88s-9.96-1.29-9.96-2.88 0.9-3.59 9.96-3.59C54.83 11.28 55.82 13.28 55.82 14.87z"/>
    <path d="M55.82 21.96c0 1.59-4.46 2.88-9.96 2.88s-9.96-1.29-9.96-2.88"/>
    <path d="M82.29 64.41c0 0 6.1-2.83 8.05-7.39 1.95-4.56-8.05-3.1-8.05-3.1"/>
    <path d="M9.3 64.43c0 0-6.1-2.83-8.05-7.39s8.05-3.1 8.05-3.1"/>
    <path d="M28.71 54.11c0 0 4.11-1.96 9.8-1.96 6.19 0 8.31 2.75 14.86 2.75 7.55 0 9.09-1.66 9.64-2"/>
  </g>
  <path class="path1" d="M13.63 34.37c-1.2-2.54-2.63-4.86-2.63-8.15 0-4.29 1.78-6.81 3.04-9.77" fill="none" stroke-linecap="round" stroke-linejoin="round" stroke-miterlimit="10" stroke-width="2" stroke="currentColor"/>
  <path class="path4" d="M74.34 38.98c1.2-2.54 2.63-4.86 2.63-8.15 0-4.29-1.78-6.81-3.04-9.77" fill="none" stroke-linecap="round" stroke-linejoin="round" stroke-miterlimit="10" stroke-width="2" stroke="currentColor"/>
  <path class="path2" d="M24.2 36.22c0-5.59-4-6.58-4-12.45 0-5.68 4-8.3 4-13.62 0-4.02-1.67-6.38-2.85-9.16" fill="none" stroke-linecap="round" stroke-linejoin="round" stroke-miterlimit="10" stroke-width="2" stroke="currentColor"/>
  <path class="path3" d="M66.25 33.98c1.13-1.98 2.49-3.75 2.49-7.16 0-5.68-3.63-6.5-4-12.19-0.19-3 0.47-6.16 1.2-8.55" fill="none" stroke-linecap="round" stroke-linejoin="round" stroke-miterlimit="10" stroke-width="2" stroke="currentColor"/>
</svg>
