<svg id="temp-switcher" xmlns="http://www.w3.org/2000/svg" version="1.1" x="0" y="0" width="95" height="95" viewBox="0 0 95 95" enable-background="new 0 0 95.0392 95.0392" xml:space="preserve"><circle fill="none" stroke="currentColor" stroke-width="2" stroke-miterlimit="10" cx="47.5" cy="47.5" r="46.5"></circle><path fill="currentColor" d="M25.4 31.4c-2.3 0-4.1-1.7-4.1-4.1s1.8-4.1 4.1-4.1c2.3 0 4.1 1.7 4.1 4.1S27.7 31.4 25.4 31.4zM25.4 25c-1.3 0-2.2 0.9-2.2 2.3 0 1.4 1 2.3 2.3 2.3 1.3 0 2.3-0.9 2.3-2.3C27.6 25.9 26.7 25 25.4 25zM44.2 39.7c-1.1 1.1-2.8 1.9-4.7 1.9 -1.8 0-3.5-0.6-4.8-1.9 -1.9-1.9-2.2-4.5-2.2-7.3 0-2.8 0.3-5.4 2.2-7.3 1.3-1.2 3-1.9 4.8-1.9 1.9 0 3.6 0.7 4.7 1.8 1 1 1.7 2.4 1.7 4h-2.3c0-1-0.4-1.8-1-2.5 -0.7-0.8-1.8-1.3-3.2-1.3 -1.2 0-2.4 0.5-3.2 1.3 -1.5 1.5-1.5 3.9-1.5 5.7 0 1.8 0 4.2 1.5 5.7 0.8 0.9 2 1.3 3.2 1.3 1.3 0 2.5-0.6 3.2-1.3 0.6-0.6 0.9-1.6 1-2.5H46C45.9 37.2 45.3 38.6 44.2 39.7z"></path><path fill="currentColor" d="M55.6 65.1c-2.3 0-4.1-1.7-4.1-4.1s1.8-4.1 4.1-4.1c2.3 0 4.1 1.7 4.1 4.1S57.9 65.1 55.6 65.1zM55.6 58.7c-1.3 0-2.2 0.9-2.2 2.3 0 1.4 1 2.3 2.3 2.3 1.3 0 2.3-0.9 2.3-2.3C57.8 59.7 56.9 58.7 55.6 58.7zM66.1 59.3v5.8h8.2v2.1h-8.2v7.8h-2.2V57.3H75.3v2H66.1z"></path><line fill="none" stroke="currentColor" stroke-width="2" stroke-linecap="round" stroke-miterlimit="10" x1="68.4" y1="26.7" x2="26.7" y2="68.4"></line></svg>
