<svg id="timer-alert" xmlns="http://www.w3.org/2000/svg" version="1.1" x="0" y="0" width="94.3" height="94.3" viewBox="0 0 94.3 94.3" enable-background="new 0 0 94.3485 94.3485" xml:space="preserve"><circle fill="none" stroke="currentColor" stroke-width="2" stroke-linecap="round" stroke-linejoin="round" stroke-miterlimit="10" cx="47.2" cy="47.2" r="46.2"></circle><line fill="none" stroke="currentColor" stroke-width="2" stroke-linecap="round" stroke-linejoin="round" stroke-miterlimit="10" x1="73.1" y1="22.7" x2="67.5" y2="28.3"></line><line fill="none" stroke="currentColor" stroke-width="2" stroke-linecap="round" stroke-linejoin="round" stroke-miterlimit="10" x1="27.1" y1="68.7" x2="21.5" y2="74.3"></line><line fill="none" stroke="currentColor" stroke-width="2" stroke-linecap="round" stroke-linejoin="round" stroke-miterlimit="10" x1="73.1" y1="74.3" x2="67.5" y2="68.7"></line><line fill="none" stroke="currentColor" stroke-width="2" stroke-linecap="round" stroke-linejoin="round" stroke-miterlimit="10" x1="27.1" y1="28.3" x2="21.5" y2="22.7"></line><ellipse transform="matrix(0.0018 -1 1 0.0018 -0.7198 94.8966)" fill="none" stroke="currentColor" stroke-width="2" stroke-linecap="round" stroke-linejoin="round" stroke-miterlimit="10" cx="47.2" cy="47.8" rx="20.9" ry="3.3"></ellipse><path fill="none" stroke="currentColor" stroke-width="2" stroke-linecap="round" stroke-linejoin="round" stroke-miterlimit="10" d="M44.9 30.8c-8.8 1.1-15.6 8.6-15.6 17.7s6.8 16.6 15.6 17.7M49.4 66.2c8.8-1.1 15.6-8.6 15.6-17.7S58.3 31.9 49.5 30.8"></path><path fill="currentColor" d="M47.2 26.9c-1.3 0-2.3 4.5-2.9 11.2h5.8C49.5 31.5 48.5 26.9 47.2 26.9z"></path><path fill="currentColor" d="M44.8 14.5c-0.3-0.7-1.2-1.1-2.1-1.1 -1.1 0-2.2 0.5-2.2 1.5v1.5c0.6-0.7 1.5-0.9 2.2-0.9 1.9 0 3.8 1.1 3.8 3.1v0.6c0 2.1-1.8 3.1-3.8 3.1 -1.9 0-3.8-1-3.8-3.1v-4.3c0-2.1 1.9-3.1 3.8-3.1 1.5 0 2.8 0.6 3.6 2.1L44.8 14.5zM42.7 17.1c-1.1 0-2.2 0.5-2.2 1.5v0.6c0 1 1.1 1.5 2.2 1.5 1.1 0 2.1-0.5 2.1-1.5v-0.6C44.8 17.7 43.8 17.1 42.7 17.1zM48 19.3V15.1c0-2.1 2-3.1 3.7-3.1 1.8 0 3.7 0.9 3.7 3.1v4.2c0 2.1-2 3.1-3.7 3.1C50 22.3 48 21.4 48 19.3zM51.7 20.7c0.9 0 2.1-0.4 2.1-1.5V15.1c0-1.1-1.1-1.5-2.1-1.5 -0.9 0-2.1 0.4-2.1 1.5v4.2C49.6 20.3 50.8 20.7 51.7 20.7z"></path><path fill="currentColor" d="M40.2 82c0.4 0.9 1.4 1.4 2.4 1.4 1.1 0 2.1-0.5 2.1-1.5 0-1.1-0.7-1.6-1.9-1.6h-1.2v-1.5h1.2c0.8 0 1.4-0.4 1.4-1.2 0-0.9-0.8-1.3-1.7-1.3 -0.8 0-1.6 0.4-2.1 1.3l-1.4-0.7c0.7-1.4 2.1-2.2 3.4-2.2 1.7 0 3.4 0.9 3.4 2.9 0 0.7-0.2 1.5-1.1 1.9 1.2 0.5 1.5 1.5 1.5 2.5 0 2.2-1.9 3.2-3.8 3.2 -1.5 0-3.1-0.8-3.8-2.4L40.2 82zM48 82v-4.2c0-2.2 2-3.1 3.8-3.1 1.8 0 3.8 1 3.8 3.1v4.2c0 2.2-2 3.1-3.8 3.1C50 85.1 48 84.1 48 82zM51.8 83.5c1 0 2.1-0.4 2.1-1.5v-4.2c0-1.1-1.2-1.5-2.1-1.5 -1 0-2.1 0.4-2.1 1.5v4.2C49.7 83.1 50.9 83.5 51.8 83.5z"></path><path fill="currentColor" d="M76.6 43.2v10.1h-1.6v-7.5l-1.1 1.2 -1.3-1 2.6-2.7H76.6zM79.5 50.4c0.4 0.9 1.4 1.4 2.3 1.4 1.1 0 2.1-0.5 2.1-1.6v-0.6c0-1-1-1.5-2.1-1.5 -0.9 0-1.5 0.2-2.4 0.6l-0.9 0v-5.8h6.6v1.6h-4.9v2.2c0.5-0.2 1.1-0.3 1.7-0.3 1.8 0 3.7 0.9 3.7 3.1v0.6c0 2.2-1.9 3.2-3.8 3.2 -1.4 0-3-0.8-3.7-2.3L79.5 50.4z"></path><path fill="currentColor" d="M13.1 49.3h0.8v1.6h-0.8v2.4h-1.6v-2.4H7.2l-1-1.3 5.3-6.6h1.6V49.3zM11.5 46.6c0 0 0.2-1.8 0.3-1.8h-0.2c0 0-0.8 1.4-0.9 1.5l-2.3 3h3.1L11.5 46.6zM16.5 50.4c0.4 0.9 1.4 1.4 2.3 1.4 1.1 0 2.1-0.5 2.1-1.6v-0.6c0-1-1-1.5-2.1-1.5 -0.9 0-1.5 0.2-2.4 0.6l-0.9 0v-5.8h6.6v1.6h-4.9v2.2c0.5-0.2 1.1-0.3 1.7-0.3 1.8 0 3.7 0.9 3.7 3.1v0.6c0 2.2-1.9 3.2-3.8 3.2 -1.4 0-3-0.8-3.7-2.3L16.5 50.4z"></path></svg>
