<svg id="time-small" xmlns="http://www.w3.org/2000/svg" viewBox="0 0 19.7 17.5" enable-background="new 0 0 19.7 17.5" xml:space="preserve"><path fill="currentColor" d="M10.9 17.5c-4.8 0-8.8-3.9-8.8-8.8C2.2 8.3 2.5 8 2.9 8s0.8 0.3 0.8 0.8c0 4 3.3 7.2 7.2 7.2s7.2-3.3 7.2-7.2 -3.3-7.2-7.2-7.2c-0.4 0-0.8-0.3-0.8-0.8S10.5 0 10.9 0c4.8 0 8.8 3.9 8.8 8.8S15.8 17.5 10.9 17.5zM0.8 10C0.6 10 0.4 10 0.2 9.8c-0.3-0.3-0.3-0.8 0-1.1l2.2-2.2c0.3-0.3 0.8-0.3 1.1 0s0.3 0.8 0 1.1L1.3 9.8C1.1 10 0.9 10 0.8 10zM5.1 10C4.9 10 4.7 10 4.6 9.8L2.4 7.6c-0.3-0.3-0.3-0.8 0-1.1s0.8-0.3 1.1 0l2.2 2.2c0.3 0.3 0.3 0.8 0 1.1C5.5 10 5.3 10 5.1 10zM8.6 12.1c-0.2 0-0.4-0.1-0.5-0.2 -0.3-0.3-0.3-0.8 0-1.1l2.1-2.1V4.2c0-0.4 0.3-0.8 0.8-0.8s0.8 0.3 0.8 0.8v4.9c0 0.2-0.1 0.4-0.2 0.5l-2.3 2.3C9 12.1 8.8 12.1 8.6 12.1z"/><circle fill="currentColor" cx="10.9" cy="13.5" r="0.8"/><circle fill="currentColor" cx="14.4" cy="12" r="0.8"/><circle fill="currentColor" cx="15.8" cy="8.6" r="0.8"/><circle fill="currentColor" cx="14.4" cy="5.2" r="0.8"/></svg>