<svg id="trainingSmall" xmlns="http://www.w3.org/2000/svg" enable-background="new 0 0 24.07 22.18" viewBox="0 0 24.07 22.18" xml:space="preserve">
  <g>
    <path fill="currentColor" class="a" d="M11.09,22.18a11.09,11.09,0,1,1,7-19.68,0.75,0.75,0,1,1-.95,1.16,9.59,9.59,0,1,0,3.52,7.43,0.75,0.75,0,0,1,1.5,0A11.1,11.1,0,0,1,11.09,22.18Z"/>
    <path fill="currentColor" class="a" d="M11.1,17.18A6.09,6.09,0,1,1,14.62,6.12a0.75,0.75,0,0,1-.87,1.22,4.59,4.59,0,1,0,1.91,4.22,0.75,0.75,0,1,1,1.49.15A6.07,6.07,0,0,1,11.1,17.18Z"/>
    <path fill="currentColor" class="a" d="M23.6,6.48l-1.5-.62,0.48-1.55a0.75,0.75,0,0,0-1-.9L18.25,5a0.75,0.75,0,0,0-.4.46l-0.6,1.92-6.49,3.08a0.75,0.75,0,0,0,.64,1.36l6.52-3.09,1.81,0.74a0.74,0.74,0,0,0,.28.06,0.75,0.75,0,0,0,.32-0.07l3.3-1.55A0.75,0.75,0,0,0,23.6,6.48ZM20,7.9l-1.2-.49,0.39-1.24,1.45-.68-0.18.58A0.75,0.75,0,0,0,20.9,7l0.56,0.23Z"/>
  </g>
</svg>
