<svg id="training" xmlns="http://www.w3.org/2000/svg" enable-background="new 0 0 56.33 53.02" viewBox="0 0 56.33 53.02" xml:space="preserve">
  <g>
    <path fill="currentColor" class="a" d="M26.53,53.07A26.53,26.53,0,1,1,46.07,8.58,1,1,0,1,1,44.6,9.93a24.53,24.53,0,1,0,6.47,16.6,25,25,0,0,0-.21-3.23,1,1,0,1,1,2-.26,26.91,26.91,0,0,1,.23,3.49A26.56,26.56,0,0,1,26.53,53.07Z"/>
    <path fill="currentColor" class="a" d="M26.53,44.68a18.15,18.15,0,1,1,14.2-29.44,1,1,0,0,1-1.56,1.25,16.15,16.15,0,1,0,3.51,10.05,16.34,16.34,0,0,0-.25-2.83,1,1,0,1,1,2-.35A18.16,18.16,0,0,1,26.53,44.68Z"/>
    <path fill="currentColor" class="a" d="M26.53,35.18a8.65,8.65,0,1,1,5-15.7,1,1,0,0,1-1.16,1.63,6.65,6.65,0,1,0,2.76,6.12,1,1,0,0,1,2,.21A8.62,8.62,0,0,1,26.53,35.18Z"/>
    <path fill="currentColor" class="a" d="M26.54,27.53a1,1,0,0,1-.43-1.9L42.25,18a1,1,0,0,1,.86,1.81L27,27.44A1,1,0,0,1,26.54,27.53Z"/>
    <path fill="currentColor" class="a" d="M28.45,26.6A1,1,0,0,1,28,24.7L44.44,17a1,1,0,1,1,.85,1.81L28.87,26.51A1,1,0,0,1,28.45,26.6Z"/>
    <path fill="currentColor" class="a" d="M49,20.57a1,1,0,0,1-.38-0.07l-4.12-1.69a1,1,0,0,1-.58-1.22l1.33-4.25a1,1,0,0,1,.53-0.61l6.35-3a1,1,0,0,1,1.38,1.2l-1.05,3.37,3.27,1.34a1,1,0,0,1,0,1.83l-6.35,3A1,1,0,0,1,49,20.57Zm-2.89-3.27L49,18.48l3.89-1.83-2-.83a1,1,0,0,1-.58-1.22l0.65-2.08L47,14.35Z"/>
  </g>
</svg>
