<svg xmlns="http://www.w3.org/2000/svg" xmlns:xlink="http://www.w3.org/1999/xlink" xmlns:a="http://ns.adobe.com/AdobeSVGViewerExtensions/3.0/" version="1.1" x="0" y="0" width="194.01" height="178.12" viewBox="0 0 194.01 178.12" enable-background="new 0 0 194.01 178.12" xml:space="preserve">
  <path fill="currentColor" d="M56.02 41.02H6.6c-3.64 0-6.6-2.96-6.6-6.6V6.6C0 2.96 2.96 0 6.6 0h49.42c3.64 0 6.6 2.96 6.6 6.6v9.17h9.57c0.2 0 0.38 0.12 0.46 0.3 0.08 0.18 0.04 0.39-0.09 0.54l-9.94 10.83v6.98C62.63 38.06 59.66 41.02 56.02 41.02zM6.6 1C3.51 1 1 3.51 1 6.6v27.82c0 3.09 2.51 5.6 5.6 5.6h49.42c3.09 0 5.6-2.51 5.6-5.6v-7.18c0-0.12 0.05-0.25 0.13-0.34l9.3-10.14h-8.93c-0.28 0-0.5-0.22-0.5-0.5V6.6c0-3.09-2.51-5.6-5.6-5.6H6.6z"/>
  <path fill="currentColor" d="M4.35 18.32V10.8h2.69c2.14 0 3.71 1.39 3.71 3.76 0 2.38-1.58 3.75-3.72 3.75H4.35zM6.98 16.96c1.23 0 2.26-0.76 2.26-2.4 0-1.63-1.02-2.41-2.25-2.41H5.82v4.8H6.98z"/>
  <path fill="currentColor" d="M17.04 15.71c0 1.6-1.18 2.77-2.74 2.77s-2.74-1.17-2.74-2.77c0-1.61 1.18-2.77 2.74-2.77S17.04 14.1 17.04 15.71zM15.63 15.71c0-0.99-0.64-1.49-1.33-1.49s-1.33 0.5-1.33 1.49c0 0.98 0.64 1.48 1.33 1.48S15.63 16.7 15.63 15.71z"/>
  <path fill="currentColor" d="M19.56 18.32h-1.41V13.1h1.37v0.65c0.32-0.54 0.94-0.79 1.51-0.79 1.29 0 1.89 0.92 1.89 2.07v3.29H21.5v-3.04c0-0.58-0.29-1.04-0.96-1.04 -0.62 0-0.98 0.48-0.98 1.08V18.32z"/>
  <path fill="currentColor" d="M24.33 10.73c0.56 0 0.92 0.47 0.92 1.03 0 1.42-0.98 1.94-1.64 2v-0.65c0.4-0.06 0.85-0.41 0.87-0.9 -0.05 0.03-0.13 0.05-0.22 0.05 -0.48 0-0.77-0.32-0.77-0.76C23.49 11.09 23.84 10.73 24.33 10.73z"/>
  <path fill="currentColor" d="M28.11 13.1h1.05v1.25h-1.05v2.18c0 0.46 0.21 0.6 0.62 0.6 0.17 0 0.36-0.02 0.43-0.04v1.17c-0.13 0.05-0.38 0.13-0.8 0.13 -1.02 0-1.65-0.6-1.65-1.61v-2.43h-0.94V13.1h0.27c0.55 0 0.81-0.36 0.81-0.83v-0.73h1.27V13.1z"/>
  <path fill="currentColor" d="M32.95 18.32v-7.68h1.41v7.68H32.95z"/>
  <path fill="currentColor" d="M40.54 16.82c-0.27 0.9-1.09 1.65-2.38 1.65 -1.43 0-2.69-1.03-2.69-2.79 0-1.67 1.23-2.75 2.57-2.75 1.61 0 2.58 1.03 2.58 2.7 0 0.2-0.02 0.41-0.02 0.44h-3.73c0.03 0.69 0.61 1.19 1.31 1.19 0.66 0 1.02-0.33 1.19-0.8L40.54 16.82zM39.22 15.12c-0.02-0.52-0.36-1.03-1.17-1.03 -0.73 0-1.13 0.55-1.17 1.03H39.22z"/>
  <path fill="currentColor" d="M42.97 15.32l1.28-0.19c0.3-0.04 0.39-0.19 0.39-0.37 0-0.37-0.29-0.68-0.88-0.68 -0.62 0-0.95 0.39-1 0.85l-1.25-0.26c0.08-0.82 0.84-1.72 2.24-1.72 1.65 0 2.27 0.93 2.27 1.98v2.57c0 0.28 0.03 0.65 0.06 0.83h-1.29c-0.03-0.14-0.05-0.42-0.05-0.63 -0.27 0.41-0.76 0.77-1.54 0.77 -1.11 0-1.79-0.75-1.79-1.57C41.41 15.97 42.1 15.45 42.97 15.32zM44.64 16.21v-0.23l-1.18 0.18c-0.36 0.05-0.65 0.25-0.65 0.66 0 0.31 0.22 0.6 0.68 0.6C44.09 17.42 44.64 17.13 44.64 16.21z"/>
  <path fill="currentColor" d="M50.24 18.32h-1.41L46.7 13.1h1.55l1.29 3.5 1.24-3.5h1.48L50.24 18.32z"/>
  <path fill="currentColor" d="M57.65 16.82c-0.27 0.9-1.09 1.65-2.38 1.65 -1.43 0-2.69-1.03-2.69-2.79 0-1.67 1.23-2.75 2.57-2.75 1.61 0 2.58 1.03 2.58 2.7 0 0.2-0.02 0.41-0.02 0.44h-3.73c0.03 0.69 0.62 1.19 1.31 1.19 0.66 0 1.02-0.33 1.19-0.8L57.65 16.82zM56.33 15.12c-0.02-0.52-0.36-1.03-1.17-1.03 -0.73 0-1.13 0.55-1.17 1.03H56.33z"/>
  <path fill="currentColor" d="M22.32 31.05v-5.22h1.35v0.64c0.29-0.51 0.95-0.79 1.53-0.79 0.71 0 1.28 0.31 1.55 0.87 0.41-0.64 0.96-0.87 1.65-0.87 0.96 0 1.89 0.58 1.89 1.98v3.38h-1.37v-3.1c0-0.56-0.28-0.99-0.92-0.99 -0.6 0-0.97 0.47-0.97 1.03v3.05h-1.4v-3.1c0-0.56-0.29-0.99-0.92-0.99 -0.62 0-0.98 0.46-0.98 1.03v3.05H22.32z"/>
  <path fill="currentColor" d="M36.4 29.55c-0.27 0.9-1.09 1.65-2.38 1.65 -1.43 0-2.69-1.03-2.69-2.79 0-1.67 1.23-2.75 2.57-2.75 1.61 0 2.58 1.03 2.58 2.7 0 0.2-0.02 0.41-0.02 0.44h-3.73C32.75 29.5 33.33 30 34.03 30c0.66 0 1.02-0.33 1.19-0.8L36.4 29.55zM35.08 27.84c-0.02-0.52-0.36-1.03-1.17-1.03 -0.73 0-1.13 0.55-1.17 1.03H35.08z"/>
  <path fill="currentColor" d="M38.35 29.19c0.54 0 0.98 0.43 0.98 0.96s-0.44 0.96-0.98 0.96c-0.53 0-0.96-0.43-0.96-0.96S37.82 29.19 38.35 29.19z"/>
  <line fill="none" stroke="currentColor" stroke-linecap="round" stroke-linejoin="round" stroke-miterlimit="10" x1="108.72" y1="166" x2="108.72" y2="7.72"/>
  <line fill="none" stroke="currentColor" stroke-linecap="round" stroke-linejoin="round" stroke-miterlimit="10" x1="108.7" y1="170.96" x2="108.7" y2="173.48"/>
  <g id="SPLINE_1_">
    <path fill="none" stroke="currentColor" stroke-linecap="round" stroke-linejoin="round" stroke-miterlimit="10" d="M79.08 7.72c0-1.25-0.04-2.67 0.79-3.69 0.72-0.9 1.84-1.43 2.9-1.83 1.13-0.42 2.31-0.71 3.49-0.93 2.52-0.47 5.09-0.62 7.65-0.65 1.44 0.01 2.88 0.06 4.31 0.19 2.44 0.22 4.96 0.6 7.23 1.54 1.04 0.43 2.13 1.03 2.73 2.02 0.59 0.97 0.55 2.25 0.55 3.35"/>
  </g>
  <ellipse fill="none" stroke="currentColor" stroke-linecap="round" stroke-linejoin="round" stroke-miterlimit="10" cx="93.9" cy="4.59" rx="4.82" ry="1.31"/>
  <path fill="none" stroke="currentColor" stroke-linecap="round" stroke-linejoin="round" stroke-miterlimit="10" d="M108.72 13.1c0 2.22-6.64 4.02-14.82 4.02s-14.82-1.8-14.82-4.02"/>
  <circle fill="none" stroke="currentColor" stroke-linecap="round" stroke-linejoin="round" stroke-miterlimit="10" cx="93.9" cy="12.39" r="0.95"/>
  <line fill="none" stroke="currentColor" stroke-linecap="round" stroke-linejoin="round" stroke-miterlimit="10" x1="79.08" y1="166" x2="79.08" y2="7.72"/>
  <path fill="none" stroke="currentColor" stroke-linecap="round" stroke-linejoin="round" stroke-miterlimit="10" d="M108.72 164.4c0 2.16-6.62 3.92-14.81 3.92s-14.84-1.75-14.84-3.92"/>
  <path fill="none" stroke="currentColor" stroke-linecap="round" stroke-linejoin="round" stroke-miterlimit="10" d="M108.72 166c0 2.34-6.62 4.23-14.81 4.23s-14.84-1.89-14.84-4.23"/>
  <line fill="none" stroke="currentColor" stroke-linecap="round" stroke-linejoin="round" stroke-miterlimit="10" x1="79.08" y1="170.96" x2="79.08" y2="173.48"/>
  <path fill="none" stroke="currentColor" stroke-linecap="round" stroke-linejoin="round" stroke-miterlimit="10" d="M108.71 173.48c0 2.29-6.63 4.14-14.81 4.14s-14.81-1.85-14.81-4.14"/>
  <path fill="none" stroke="currentColor" stroke-linecap="round" stroke-linejoin="round" stroke-miterlimit="10" d="M105.84 168.51c1.8 0.66 2.87 1.46 2.87 2.34 0 2.18-6.63 3.95-14.81 3.95s-14.81-1.77-14.81-3.95c0-0.87 1.06-1.68 2.87-2.34"/>
  <path fill="none" stroke="currentColor" stroke-linecap="round" stroke-linejoin="round" stroke-miterlimit="10" d="M94.78 131.65h-1.78c-0.72 0-1.3-0.58-1.3-1.3v-10.04c0-0.72 0.58-1.3 1.3-1.3h1.78c0.72 0 1.3 0.58 1.3 1.3v10.04C96.08 131.07 95.5 131.65 94.78 131.65z"/>
  <path fill="currentColor" d="M184.69 163.74h-38.11c-5.14 0-9.32-4.18-9.32-9.32V58.71c0-5.14 4.18-9.32 9.32-9.32h38.11c5.14 0 9.32 4.18 9.32 9.32v95.71C194.01 159.56 189.83 163.74 184.69 163.74zM146.58 50.4c-4.59 0-8.32 3.73-8.32 8.32v95.71c0 4.58 3.73 8.32 8.32 8.32h38.11c4.59 0 8.32-3.73 8.32-8.32V58.71c0-4.58-3.73-8.32-8.32-8.32H146.58z"/>
  <path fill="currentColor" d="M189.74 149.95h-48.21c-0.28 0-0.5-0.22-0.5-0.5V63.77c0-0.28 0.22-0.5 0.5-0.5h48.21c0.28 0 0.5 0.22 0.5 0.5v85.68C190.24 149.73 190.02 149.95 189.74 149.95zM142.03 148.95h47.21V64.27h-47.21V148.95z"/>
  <path fill="currentColor" d="M169.69 56.49c0.26 0 0.46 0.21 0.46 0.46 0 0.26-0.21 0.46-0.46 0.46h-8.1c-0.26 0-0.46-0.21-0.46-0.46 0-0.26 0.21-0.46 0.46-0.46H169.69M169.69 55.49h-8.1c-0.81 0-1.46 0.66-1.46 1.46s0.66 1.46 1.46 1.46h8.1c0.81 0 1.46-0.66 1.46-1.46S170.49 55.49 169.69 55.49L169.69 55.49z"/>
  <path fill="currentColor" d="M165.64 160.09c-2.42 0-4.39-1.97-4.39-4.39s1.97-4.39 4.39-4.39 4.39 1.97 4.39 4.39S168.06 160.09 165.64 160.09zM165.64 152.3c-1.87 0-3.39 1.52-3.39 3.39s1.52 3.39 3.39 3.39 3.39-1.52 3.39-3.39S167.51 152.3 165.64 152.3z"/>
  <path fill="currentColor" d="M164.22 38.61c-0.03-0.17-0.05-0.33-0.05-0.53 0-0.68 0.28-1.31 1.01-1.86l0.62-0.46c0.39-0.28 0.55-0.63 0.55-1.02 0-0.59-0.42-1.16-1.28-1.16 -0.91 0-1.31 0.73-1.31 1.45 0 0.15 0.01 0.3 0.05 0.41l-1.62-0.06c-0.05-0.18-0.06-0.39-0.06-0.58 0-1.39 1.04-2.72 2.94-2.72 1.99 0 3.03 1.26 3.03 2.56 0 1.02-0.51 1.73-1.27 2.27l-0.53 0.37c-0.45 0.32-0.69 0.72-0.69 1.25v0.08H164.22zM164.94 39.45c0.57 0 1.03 0.46 1.03 1.03 0 0.57-0.46 1.02-1.03 1.02 -0.56 0-1.01-0.45-1.01-1.02C163.93 39.91 164.38 39.45 164.94 39.45z"/>
  <path fill="currentColor" d="M164.59 27.67c-0.02-0.1-0.03-0.2-0.03-0.32 0-0.42 0.17-0.8 0.62-1.14l0.38-0.28c0.24-0.17 0.34-0.39 0.34-0.62 0-0.36-0.26-0.71-0.79-0.71 -0.56 0-0.8 0.45-0.8 0.89 0 0.09 0.01 0.18 0.03 0.25l-0.99-0.04c-0.03-0.11-0.04-0.24-0.04-0.35 0-0.85 0.64-1.67 1.8-1.67 1.22 0 1.86 0.77 1.86 1.57 0 0.62-0.31 1.06-0.78 1.39l-0.32 0.23c-0.28 0.2-0.43 0.44-0.43 0.76v0.05H164.59zM165.03 28.18c0.35 0 0.63 0.28 0.63 0.63 0 0.35-0.28 0.62-0.63 0.62 -0.35 0-0.62-0.28-0.62-0.62C164.41 28.47 164.68 28.18 165.03 28.18z"/>
  <path fill="currentColor" d="M160.86 28.32c-0.04-0.09-0.08-0.19-0.12-0.3 -0.11-0.4-0.05-0.82 0.3-1.27l0.29-0.37c0.18-0.23 0.22-0.46 0.16-0.69 -0.1-0.35-0.44-0.62-0.95-0.48 -0.54 0.15-0.66 0.65-0.54 1.07 0.02 0.09 0.06 0.17 0.1 0.24l-0.97 0.22c-0.06-0.1-0.1-0.22-0.13-0.33 -0.22-0.82 0.17-1.78 1.3-2.09 1.18-0.32 2 0.25 2.21 1.02 0.16 0.6-0.02 1.11-0.38 1.55l-0.25 0.31c-0.21 0.26-0.29 0.54-0.21 0.85l0.01 0.05L160.86 28.32zM161.42 28.7c0.33-0.09 0.68 0.11 0.77 0.44 0.09 0.33-0.11 0.67-0.44 0.77 -0.33 0.09-0.67-0.1-0.77-0.44C160.89 29.14 161.09 28.79 161.42 28.7z"/>
  <path fill="currentColor" d="M157.47 29.91c-0.07-0.08-0.13-0.16-0.19-0.26 -0.21-0.36-0.26-0.78-0.04-1.3l0.18-0.44c0.12-0.27 0.1-0.5-0.02-0.71 -0.18-0.31-0.58-0.48-1.04-0.21 -0.48 0.28-0.46 0.79-0.24 1.18 0.05 0.08 0.1 0.15 0.15 0.2l-0.88 0.47c-0.08-0.08-0.15-0.18-0.21-0.29 -0.43-0.73-0.3-1.76 0.71-2.35 1.05-0.62 1.99-0.28 2.4 0.41 0.32 0.54 0.27 1.08 0.03 1.6l-0.16 0.36c-0.14 0.31-0.14 0.6 0.02 0.87l0.02 0.04L157.47 29.91zM158.11 30.13c0.3-0.18 0.69-0.08 0.86 0.22 0.18 0.3 0.07 0.68-0.23 0.86 -0.3 0.18-0.68 0.08-0.85-0.22C157.71 30.69 157.81 30.3 158.11 30.13z"/>
  <path fill="currentColor" d="M168.42 28.05c0.01-0.1 0.03-0.21 0.06-0.32 0.11-0.4 0.38-0.73 0.91-0.93l0.44-0.17c0.27-0.1 0.43-0.28 0.49-0.51 0.1-0.35-0.06-0.75-0.57-0.89 -0.54-0.15-0.89 0.22-1.01 0.64 -0.03 0.09-0.04 0.18-0.04 0.25l-0.95-0.3c0-0.11 0.03-0.24 0.06-0.35 0.23-0.82 1.06-1.44 2.19-1.13 1.18 0.33 1.58 1.24 1.37 2.01 -0.17 0.6-0.59 0.94-1.13 1.13l-0.37 0.13c-0.32 0.12-0.53 0.31-0.61 0.62l-0.01 0.05L168.42 28.05zM168.7 28.66c0.33 0.09 0.53 0.44 0.44 0.78 -0.09 0.33-0.44 0.52-0.77 0.43 -0.33-0.09-0.53-0.43-0.43-0.77C168.03 28.76 168.37 28.56 168.7 28.66z"/>
  <path fill="currentColor" d="M172.25 30.18c0.29 0.18 0.39 0.57 0.2 0.87 -0.18 0.29-0.57 0.38-0.86 0.2 -0.3-0.18-0.38-0.56-0.2-0.86C171.57 30.09 171.96 30 172.25 30.18zM172.15 29.51c0.04-0.1 0.08-0.19 0.14-0.29 0.22-0.36 0.57-0.59 1.13-0.64l0.47-0.04c0.29-0.02 0.49-0.15 0.62-0.35 0.19-0.31 0.15-0.74-0.3-1.02 -0.48-0.29-0.92-0.04-1.15 0.33 -0.05 0.08-0.09 0.16-0.11 0.23l-0.82-0.56c0.03-0.11 0.09-0.22 0.15-0.32 0.45-0.72 1.42-1.08 2.41-0.47 1.04 0.64 1.17 1.64 0.76 2.31 -0.33 0.53-0.83 0.74-1.4 0.77l-0.39 0.03c-0.34 0.02-0.59 0.15-0.76 0.42l-0.03 0.04L172.15 29.51z"/>
  <path fill="currentColor" d="M164.59 19.01c-0.02-0.1-0.03-0.2-0.03-0.32 0-0.42 0.17-0.8 0.62-1.14l0.38-0.28c0.24-0.17 0.34-0.39 0.34-0.62 0-0.36-0.26-0.71-0.79-0.71 -0.56 0-0.8 0.45-0.8 0.89 0 0.09 0.01 0.18 0.03 0.25l-0.99-0.04c-0.03-0.11-0.04-0.24-0.04-0.35 0-0.85 0.64-1.67 1.8-1.67 1.22 0 1.86 0.77 1.86 1.57 0 0.62-0.31 1.06-0.78 1.39l-0.32 0.23c-0.28 0.2-0.43 0.44-0.43 0.76v0.05H164.59zM165.03 19.52c0.35 0 0.63 0.28 0.63 0.63s-0.28 0.62-0.63 0.62c-0.35 0-0.62-0.28-0.62-0.62S164.68 19.52 165.03 19.52z"/>
  <path fill="currentColor" d="M160.58 19.42c-0.03-0.1-0.06-0.2-0.08-0.31 -0.07-0.41 0.04-0.82 0.43-1.23l0.33-0.34c0.21-0.21 0.27-0.43 0.24-0.67 -0.06-0.36-0.37-0.66-0.89-0.57 -0.55 0.09-0.72 0.57-0.65 1.01 0.02 0.09 0.04 0.18 0.07 0.24l-0.99 0.12c-0.05-0.1-0.08-0.23-0.1-0.34 -0.14-0.84 0.36-1.75 1.51-1.94 1.21-0.2 1.96 0.46 2.09 1.25 0.1 0.61-0.14 1.1-0.55 1.5l-0.28 0.28c-0.24 0.24-0.35 0.5-0.3 0.82l0.01 0.05L160.58 19.42zM161.1 19.85c0.34-0.06 0.67 0.18 0.72 0.52 0.06 0.34-0.18 0.66-0.52 0.72 -0.34 0.06-0.66-0.17-0.71-0.51C160.53 20.23 160.76 19.91 161.1 19.85z"/>
  <path fill="currentColor" d="M156.59 20.5c-0.05-0.09-0.1-0.18-0.13-0.3 -0.13-0.4-0.09-0.82 0.22-1.28l0.27-0.39c0.17-0.24 0.2-0.48 0.12-0.7 -0.12-0.34-0.47-0.59-0.97-0.42 -0.53 0.18-0.62 0.68-0.47 1.1 0.03 0.09 0.07 0.17 0.11 0.23l-0.95 0.28c-0.07-0.09-0.11-0.21-0.15-0.32 -0.27-0.81 0.07-1.79 1.17-2.16 1.16-0.39 2.01 0.13 2.27 0.89 0.2 0.59 0.04 1.11-0.29 1.57l-0.23 0.32c-0.2 0.28-0.26 0.56-0.16 0.86l0.02 0.05L156.59 20.5zM157.17 20.85c0.33-0.11 0.69 0.07 0.8 0.39 0.11 0.33-0.07 0.68-0.4 0.79 -0.33 0.11-0.68-0.06-0.79-0.39C156.67 21.31 156.84 20.96 157.17 20.85z"/>
  <path fill="currentColor" d="M152.92 22.18c-0.06-0.08-0.12-0.17-0.18-0.27 -0.2-0.37-0.22-0.79 0.01-1.3l0.2-0.43c0.13-0.26 0.12-0.5 0.01-0.71 -0.17-0.32-0.56-0.5-1.03-0.26 -0.49 0.26-0.5 0.77-0.29 1.16 0.04 0.08 0.09 0.16 0.15 0.21l-0.9 0.43c-0.08-0.08-0.15-0.19-0.2-0.29 -0.4-0.75-0.22-1.77 0.81-2.32 1.08-0.57 2-0.19 2.38 0.51 0.29 0.55 0.22 1.09-0.03 1.6l-0.18 0.35c-0.15 0.3-0.17 0.59-0.02 0.87l0.02 0.04L152.92 22.18zM153.55 22.43c0.31-0.16 0.69-0.05 0.85 0.26 0.16 0.31 0.04 0.68-0.26 0.85 -0.31 0.16-0.68 0.05-0.84-0.26C153.13 22.97 153.24 22.59 153.55 22.43z"/>
  <path fill="currentColor" d="M169.09 19.32c0-0.1 0.01-0.21 0.03-0.32 0.08-0.41 0.32-0.76 0.82-1.01l0.42-0.21c0.26-0.13 0.4-0.32 0.45-0.55 0.07-0.36-0.13-0.74-0.65-0.84 -0.55-0.1-0.87 0.3-0.95 0.73 -0.02 0.09-0.02 0.18-0.01 0.25l-0.97-0.22c-0.01-0.11 0-0.24 0.03-0.36 0.15-0.84 0.93-1.53 2.08-1.32 1.2 0.22 1.69 1.09 1.55 1.88 -0.11 0.61-0.5 0.99-1.02 1.23l-0.36 0.17c-0.31 0.14-0.5 0.36-0.56 0.67l-0.01 0.05L169.09 19.32zM169.43 19.9c0.34 0.06 0.57 0.39 0.51 0.73 -0.06 0.34-0.39 0.56-0.73 0.5 -0.34-0.06-0.56-0.38-0.5-0.72C168.77 20.07 169.09 19.84 169.43 19.9z"/>
  <path fill="currentColor" d="M173.5 21c0.33 0.12 0.49 0.48 0.37 0.81 -0.12 0.33-0.48 0.49-0.81 0.37 -0.33-0.12-0.49-0.48-0.37-0.8C172.82 21.05 173.18 20.88 173.5 21zM173.27 20.37c0.02-0.1 0.04-0.2 0.08-0.31 0.15-0.39 0.44-0.69 0.98-0.86l0.45-0.14c0.28-0.08 0.45-0.24 0.53-0.47 0.13-0.34 0-0.76-0.49-0.94 -0.52-0.19-0.91 0.14-1.06 0.56 -0.03 0.09-0.06 0.17-0.06 0.25l-0.92-0.38c0.01-0.11 0.05-0.24 0.09-0.35 0.3-0.8 1.18-1.34 2.27-0.94 1.15 0.42 1.48 1.37 1.2 2.12 -0.22 0.58-0.66 0.89-1.21 1.04l-0.38 0.1c-0.33 0.09-0.55 0.27-0.66 0.57l-0.02 0.04L173.27 20.37z"/>
  <path fill="currentColor" d="M177.42 22.84c0.3 0.18 0.4 0.56 0.22 0.86 -0.18 0.3-0.56 0.39-0.86 0.22 -0.3-0.18-0.4-0.55-0.22-0.85S177.12 22.66 177.42 22.84zM177.29 22.17c0.04-0.1 0.08-0.19 0.14-0.3 0.21-0.36 0.56-0.6 1.12-0.67l0.47-0.05c0.29-0.03 0.49-0.16 0.61-0.36 0.18-0.31 0.13-0.74-0.32-1.01 -0.48-0.28-0.92-0.02-1.14 0.36 -0.05 0.08-0.08 0.16-0.1 0.23l-0.84-0.54c0.03-0.11 0.09-0.22 0.15-0.33 0.43-0.73 1.4-1.12 2.4-0.53 1.05 0.62 1.21 1.61 0.81 2.29 -0.32 0.54-0.81 0.76-1.38 0.81l-0.39 0.03c-0.34 0.03-0.59 0.17-0.75 0.44l-0.02 0.04L177.29 22.17z"/>
  <path fill="currentColor" d="M176.88 114.43c-0.13 0-0.25-0.05-0.35-0.14 -2.94-2.86-6.81-4.44-10.89-4.44s-7.96 1.58-10.89 4.44c-0.2 0.19-0.51 0.19-0.71-0.01 -0.19-0.2-0.19-0.51 0.01-0.71 3.12-3.04 7.24-4.72 11.59-4.72s8.47 1.68 11.59 4.72c0.2 0.19 0.2 0.51 0.01 0.71C177.14 114.38 177.01 114.43 176.88 114.43z"/>
  <path fill="currentColor" d="M173.01 103.49c-0.99 0-1.07-1.83-1.07-2.39s0.08-2.39 1.07-2.39c0.79 0 1.07 1.23 1.07 2.39C174.07 102.25 173.79 103.49 173.01 103.49zM173.01 100.25c-0.04 0.23-0.07 0.52-0.07 0.85s0.03 0.62 0.07 0.85c0.04-0.23 0.07-0.52 0.07-0.85S173.05 100.48 173.01 100.25z"/>
  <path fill="currentColor" d="M158.27 103.49c-0.79 0-1.07-1.23-1.07-2.39 0-1.16 0.28-2.39 1.07-2.39 0.99 0 1.07 1.83 1.07 2.39S159.26 103.49 158.27 103.49zM158.27 100.25c-0.04 0.23-0.07 0.52-0.07 0.85s0.03 0.62 0.07 0.85c0.04-0.23 0.07-0.52 0.07-0.85S158.31 100.48 158.27 100.25z"/>
  <path fill="currentColor" d="M184.69 163.74h-38.11c-5.14 0-9.32-4.18-9.32-9.32V58.71c0-5.14 4.18-9.32 9.32-9.32h38.11c5.14 0 9.32 4.18 9.32 9.32v95.71C194.01 159.56 189.83 163.74 184.69 163.74zM146.58 50.4c-4.59 0-8.32 3.73-8.32 8.32v95.71c0 4.58 3.73 8.32 8.32 8.32h38.11c4.59 0 8.32-3.73 8.32-8.32V58.71c0-4.58-3.73-8.32-8.32-8.32H146.58z"/>
  <path fill="currentColor" d="M189.74 149.95h-48.21c-0.28 0-0.5-0.22-0.5-0.5V63.77c0-0.28 0.22-0.5 0.5-0.5h48.21c0.28 0 0.5 0.22 0.5 0.5v85.68C190.24 149.73 190.02 149.95 189.74 149.95zM142.03 148.95h47.21V64.27h-47.21V148.95z"/>
  <path fill="currentColor" d="M169.69 56.49c0.26 0 0.46 0.21 0.46 0.46 0 0.26-0.21 0.46-0.46 0.46h-8.1c-0.26 0-0.46-0.21-0.46-0.46 0-0.26 0.21-0.46 0.46-0.46H169.69M169.69 55.49h-8.1c-0.81 0-1.46 0.66-1.46 1.46s0.66 1.46 1.46 1.46h8.1c0.81 0 1.46-0.66 1.46-1.46S170.49 55.49 169.69 55.49L169.69 55.49z"/>
  <path fill="currentColor" d="M165.64 160.09c-2.42 0-4.39-1.97-4.39-4.39s1.97-4.39 4.39-4.39 4.39 1.97 4.39 4.39S168.06 160.09 165.64 160.09zM165.64 152.3c-1.87 0-3.39 1.52-3.39 3.39s1.52 3.39 3.39 3.39 3.39-1.52 3.39-3.39S167.51 152.3 165.64 152.3z"/>
  <path fill="currentColor" d="M164.22 38.61c-0.03-0.17-0.05-0.33-0.05-0.53 0-0.68 0.28-1.31 1.01-1.86l0.62-0.46c0.39-0.28 0.55-0.63 0.55-1.02 0-0.59-0.42-1.16-1.28-1.16 -0.91 0-1.31 0.73-1.31 1.45 0 0.15 0.01 0.3 0.05 0.41l-1.62-0.06c-0.05-0.18-0.06-0.39-0.06-0.58 0-1.39 1.04-2.72 2.94-2.72 1.99 0 3.03 1.26 3.03 2.56 0 1.02-0.51 1.73-1.27 2.27l-0.53 0.37c-0.45 0.32-0.69 0.72-0.69 1.25v0.08H164.22zM164.94 39.45c0.57 0 1.03 0.46 1.03 1.03 0 0.57-0.46 1.02-1.03 1.02 -0.56 0-1.01-0.45-1.01-1.02C163.93 39.91 164.38 39.45 164.94 39.45z"/>
  <path fill="currentColor" d="M164.59 27.67c-0.02-0.1-0.03-0.2-0.03-0.32 0-0.42 0.17-0.8 0.62-1.14l0.38-0.28c0.24-0.17 0.34-0.39 0.34-0.62 0-0.36-0.26-0.71-0.79-0.71 -0.56 0-0.8 0.45-0.8 0.89 0 0.09 0.01 0.18 0.03 0.25l-0.99-0.04c-0.03-0.11-0.04-0.24-0.04-0.35 0-0.85 0.64-1.67 1.8-1.67 1.22 0 1.86 0.77 1.86 1.57 0 0.62-0.31 1.06-0.78 1.39l-0.32 0.23c-0.28 0.2-0.43 0.44-0.43 0.76v0.05H164.59zM165.03 28.18c0.35 0 0.63 0.28 0.63 0.63 0 0.35-0.28 0.62-0.63 0.62 -0.35 0-0.62-0.28-0.62-0.62C164.41 28.47 164.68 28.18 165.03 28.18z"/>
  <path fill="currentColor" d="M160.86 28.32c-0.04-0.09-0.08-0.19-0.12-0.3 -0.11-0.4-0.05-0.82 0.3-1.27l0.29-0.37c0.18-0.23 0.22-0.46 0.16-0.69 -0.1-0.35-0.44-0.62-0.95-0.48 -0.54 0.15-0.66 0.65-0.54 1.07 0.02 0.09 0.06 0.17 0.1 0.24l-0.97 0.22c-0.06-0.1-0.1-0.22-0.13-0.33 -0.22-0.82 0.17-1.78 1.3-2.09 1.18-0.32 2 0.25 2.21 1.02 0.16 0.6-0.02 1.11-0.38 1.55l-0.25 0.31c-0.21 0.26-0.29 0.54-0.21 0.85l0.01 0.05L160.86 28.32zM161.42 28.7c0.33-0.09 0.68 0.11 0.77 0.44 0.09 0.33-0.11 0.67-0.44 0.77 -0.33 0.09-0.67-0.1-0.77-0.44C160.89 29.14 161.09 28.79 161.42 28.7z"/>
  <path fill="currentColor" d="M157.47 29.91c-0.07-0.08-0.13-0.16-0.19-0.26 -0.21-0.36-0.26-0.78-0.04-1.3l0.18-0.44c0.12-0.27 0.1-0.5-0.02-0.71 -0.18-0.31-0.58-0.48-1.04-0.21 -0.48 0.28-0.46 0.79-0.24 1.18 0.05 0.08 0.1 0.15 0.15 0.2l-0.88 0.47c-0.08-0.08-0.15-0.18-0.21-0.29 -0.43-0.73-0.3-1.76 0.71-2.35 1.05-0.62 1.99-0.28 2.4 0.41 0.32 0.54 0.27 1.08 0.03 1.6l-0.16 0.36c-0.14 0.31-0.14 0.6 0.02 0.87l0.02 0.04L157.47 29.91zM158.11 30.13c0.3-0.18 0.69-0.08 0.86 0.22 0.18 0.3 0.07 0.68-0.23 0.86 -0.3 0.18-0.68 0.08-0.85-0.22C157.71 30.69 157.81 30.3 158.11 30.13z"/>
  <path fill="currentColor" d="M168.42 28.05c0.01-0.1 0.03-0.21 0.06-0.32 0.11-0.4 0.38-0.73 0.91-0.93l0.44-0.17c0.27-0.1 0.43-0.28 0.49-0.51 0.1-0.35-0.06-0.75-0.57-0.89 -0.54-0.15-0.89 0.22-1.01 0.64 -0.03 0.09-0.04 0.18-0.04 0.25l-0.95-0.3c0-0.11 0.03-0.24 0.06-0.35 0.23-0.82 1.06-1.44 2.19-1.13 1.18 0.33 1.58 1.24 1.37 2.01 -0.17 0.6-0.59 0.94-1.13 1.13l-0.37 0.13c-0.32 0.12-0.53 0.31-0.61 0.62l-0.01 0.05L168.42 28.05zM168.7 28.66c0.33 0.09 0.53 0.44 0.44 0.78 -0.09 0.33-0.44 0.52-0.77 0.43 -0.33-0.09-0.53-0.43-0.43-0.77C168.03 28.76 168.37 28.56 168.7 28.66z"/>
  <path fill="currentColor" d="M172.25 30.18c0.29 0.18 0.39 0.57 0.2 0.87 -0.18 0.29-0.57 0.38-0.86 0.2 -0.3-0.18-0.38-0.56-0.2-0.86C171.57 30.09 171.96 30 172.25 30.18zM172.15 29.51c0.04-0.1 0.08-0.19 0.14-0.29 0.22-0.36 0.57-0.59 1.13-0.64l0.47-0.04c0.29-0.02 0.49-0.15 0.62-0.35 0.19-0.31 0.15-0.74-0.3-1.02 -0.48-0.29-0.92-0.04-1.15 0.33 -0.05 0.08-0.09 0.16-0.11 0.23l-0.82-0.56c0.03-0.11 0.09-0.22 0.15-0.32 0.45-0.72 1.42-1.08 2.41-0.47 1.04 0.64 1.17 1.64 0.76 2.31 -0.33 0.53-0.83 0.74-1.4 0.77l-0.39 0.03c-0.34 0.02-0.59 0.15-0.76 0.42l-0.03 0.04L172.15 29.51z"/>
  <path fill="currentColor" d="M164.59 19.01c-0.02-0.1-0.03-0.2-0.03-0.32 0-0.42 0.17-0.8 0.62-1.14l0.38-0.28c0.24-0.17 0.34-0.39 0.34-0.62 0-0.36-0.26-0.71-0.79-0.71 -0.56 0-0.8 0.45-0.8 0.89 0 0.09 0.01 0.18 0.03 0.25l-0.99-0.04c-0.03-0.11-0.04-0.24-0.04-0.35 0-0.85 0.64-1.67 1.8-1.67 1.22 0 1.86 0.77 1.86 1.57 0 0.62-0.31 1.06-0.78 1.39l-0.32 0.23c-0.28 0.2-0.43 0.44-0.43 0.76v0.05H164.59zM165.03 19.52c0.35 0 0.63 0.28 0.63 0.63s-0.28 0.62-0.63 0.62c-0.35 0-0.62-0.28-0.62-0.62S164.68 19.52 165.03 19.52z"/>
  <path fill="currentColor" d="M160.58 19.42c-0.03-0.1-0.06-0.2-0.08-0.31 -0.07-0.41 0.04-0.82 0.43-1.23l0.33-0.34c0.21-0.21 0.27-0.43 0.24-0.67 -0.06-0.36-0.37-0.66-0.89-0.57 -0.55 0.09-0.72 0.57-0.65 1.01 0.02 0.09 0.04 0.18 0.07 0.24l-0.99 0.12c-0.05-0.1-0.08-0.23-0.1-0.34 -0.14-0.84 0.36-1.75 1.51-1.94 1.21-0.2 1.96 0.46 2.09 1.25 0.1 0.61-0.14 1.1-0.55 1.5l-0.28 0.28c-0.24 0.24-0.35 0.5-0.3 0.82l0.01 0.05L160.58 19.42zM161.1 19.85c0.34-0.06 0.67 0.18 0.72 0.52 0.06 0.34-0.18 0.66-0.52 0.72 -0.34 0.06-0.66-0.17-0.71-0.51C160.53 20.23 160.76 19.91 161.1 19.85z"/>
  <path fill="currentColor" d="M156.59 20.5c-0.05-0.09-0.1-0.18-0.13-0.3 -0.13-0.4-0.09-0.82 0.22-1.28l0.27-0.39c0.17-0.24 0.2-0.48 0.12-0.7 -0.12-0.34-0.47-0.59-0.97-0.42 -0.53 0.18-0.62 0.68-0.47 1.1 0.03 0.09 0.07 0.17 0.11 0.23l-0.95 0.28c-0.07-0.09-0.11-0.21-0.15-0.32 -0.27-0.81 0.07-1.79 1.17-2.16 1.16-0.39 2.01 0.13 2.27 0.89 0.2 0.59 0.04 1.11-0.29 1.57l-0.23 0.32c-0.2 0.28-0.26 0.56-0.16 0.86l0.02 0.05L156.59 20.5zM157.17 20.85c0.33-0.11 0.69 0.07 0.8 0.39 0.11 0.33-0.07 0.68-0.4 0.79 -0.33 0.11-0.68-0.06-0.79-0.39C156.67 21.31 156.84 20.96 157.17 20.85z"/>
  <path fill="currentColor" d="M152.92 22.18c-0.06-0.08-0.12-0.17-0.18-0.27 -0.2-0.37-0.22-0.79 0.01-1.3l0.2-0.43c0.13-0.26 0.12-0.5 0.01-0.71 -0.17-0.32-0.56-0.5-1.03-0.26 -0.49 0.26-0.5 0.77-0.29 1.16 0.04 0.08 0.09 0.16 0.15 0.21l-0.9 0.43c-0.08-0.08-0.15-0.19-0.2-0.29 -0.4-0.75-0.22-1.77 0.81-2.32 1.08-0.57 2-0.19 2.38 0.51 0.29 0.55 0.22 1.09-0.03 1.6l-0.18 0.35c-0.15 0.3-0.17 0.59-0.02 0.87l0.02 0.04L152.92 22.18zM153.55 22.43c0.31-0.16 0.69-0.05 0.85 0.26 0.16 0.31 0.04 0.68-0.26 0.85 -0.31 0.16-0.68 0.05-0.84-0.26C153.13 22.97 153.24 22.59 153.55 22.43z"/>
  <path fill="currentColor" d="M169.09 19.32c0-0.1 0.01-0.21 0.03-0.32 0.08-0.41 0.32-0.76 0.82-1.01l0.42-0.21c0.26-0.13 0.4-0.32 0.45-0.55 0.07-0.36-0.13-0.74-0.65-0.84 -0.55-0.1-0.87 0.3-0.95 0.73 -0.02 0.09-0.02 0.18-0.01 0.25l-0.97-0.22c-0.01-0.11 0-0.24 0.03-0.36 0.15-0.84 0.93-1.53 2.08-1.32 1.2 0.22 1.69 1.09 1.55 1.88 -0.11 0.61-0.5 0.99-1.02 1.23l-0.36 0.17c-0.31 0.14-0.5 0.36-0.56 0.67l-0.01 0.05L169.09 19.32zM169.43 19.9c0.34 0.06 0.57 0.39 0.51 0.73 -0.06 0.34-0.39 0.56-0.73 0.5 -0.34-0.06-0.56-0.38-0.5-0.72C168.77 20.07 169.09 19.84 169.43 19.9z"/>
  <path fill="currentColor" d="M173.5 21c0.33 0.12 0.49 0.48 0.37 0.81 -0.12 0.33-0.48 0.49-0.81 0.37 -0.33-0.12-0.49-0.48-0.37-0.8C172.82 21.05 173.18 20.88 173.5 21zM173.27 20.37c0.02-0.1 0.04-0.2 0.08-0.31 0.15-0.39 0.44-0.69 0.98-0.86l0.45-0.14c0.28-0.08 0.45-0.24 0.53-0.47 0.13-0.34 0-0.76-0.49-0.94 -0.52-0.19-0.91 0.14-1.06 0.56 -0.03 0.09-0.06 0.17-0.06 0.25l-0.92-0.38c0.01-0.11 0.05-0.24 0.09-0.35 0.3-0.8 1.18-1.34 2.27-0.94 1.15 0.42 1.48 1.37 1.2 2.12 -0.22 0.58-0.66 0.89-1.21 1.04l-0.38 0.1c-0.33 0.09-0.55 0.27-0.66 0.57l-0.02 0.04L173.27 20.37z"/>
  <path fill="currentColor" d="M177.42 22.84c0.3 0.18 0.4 0.56 0.22 0.86 -0.18 0.3-0.56 0.39-0.86 0.22 -0.3-0.18-0.4-0.55-0.22-0.85S177.12 22.66 177.42 22.84zM177.29 22.17c0.04-0.1 0.08-0.19 0.14-0.3 0.21-0.36 0.56-0.6 1.12-0.67l0.47-0.05c0.29-0.03 0.49-0.16 0.61-0.36 0.18-0.31 0.13-0.74-0.32-1.01 -0.48-0.28-0.92-0.02-1.14 0.36 -0.05 0.08-0.08 0.16-0.1 0.23l-0.84-0.54c0.03-0.11 0.09-0.22 0.15-0.33 0.43-0.73 1.4-1.12 2.4-0.53 1.05 0.62 1.21 1.61 0.81 2.29 -0.32 0.54-0.81 0.76-1.38 0.81l-0.39 0.03c-0.34 0.03-0.59 0.17-0.75 0.44l-0.02 0.04L177.29 22.17z"/>
  <path fill="currentColor" d="M176.88 114.43c-0.13 0-0.25-0.05-0.35-0.14 -2.94-2.86-6.81-4.44-10.89-4.44s-7.96 1.58-10.89 4.44c-0.2 0.19-0.51 0.19-0.71-0.01 -0.19-0.2-0.19-0.51 0.01-0.71 3.12-3.04 7.24-4.72 11.59-4.72s8.47 1.68 11.59 4.72c0.2 0.19 0.2 0.51 0.01 0.71C177.14 114.38 177.01 114.43 176.88 114.43z"/>
  <path fill="currentColor" d="M173.01 103.49c-0.99 0-1.07-1.83-1.07-2.39s0.08-2.39 1.07-2.39c0.79 0 1.07 1.23 1.07 2.39C174.07 102.25 173.79 103.49 173.01 103.49zM173.01 100.25c-0.04 0.23-0.07 0.52-0.07 0.85s0.03 0.62 0.07 0.85c0.04-0.23 0.07-0.52 0.07-0.85S173.05 100.48 173.01 100.25z"/>
  <path fill="currentColor" d="M158.27 103.49c-0.79 0-1.07-1.23-1.07-2.39 0-1.16 0.28-2.39 1.07-2.39 0.99 0 1.07 1.83 1.07 2.39S159.26 103.49 158.27 103.49zM158.27 100.25c-0.04 0.23-0.07 0.52-0.07 0.85s0.03 0.62 0.07 0.85c0.04-0.23 0.07-0.52 0.07-0.85S158.31 100.48 158.27 100.25z"/>
</svg>
