<svg xmlns="http://www.w3.org/2000/svg" xmlns:xlink="http://www.w3.org/1999/xlink" xmlns:a="http://ns.adobe.com/AdobeSVGViewerExtensions/3.0/" version="1.1" x="0px" y="0px" width="56.74px" height="148.74px" viewBox="0 0 56.74 148.74" enable-background="new 0 0 56.74 148.74" xml:space="preserve">
  <defs/>
  <g>
    <g>
      <g>
        <path fill="currentColor" d="M47.43 148.74H9.32c-5.14 0-9.32-4.18-9.32-9.32V43.71c0-5.14 4.18-9.32 9.32-9.32h38.11c5.14 0 9.32 4.18 9.32 9.32v95.71C56.74 144.56 52.56 148.74 47.43 148.74zM9.32 35.39C4.73 35.39 1 39.12 1 43.71v95.71c0 4.58 3.73 8.32 8.32 8.32h38.11c4.59 0 8.32-3.73 8.32-8.32V43.71c0-4.58-3.73-8.32-8.32-8.32H9.32z"/>
        <path fill="currentColor" d="M52.47 134.95H4.27c-0.28 0-0.5-0.22-0.5-0.5V48.77c0-0.28 0.22-0.5 0.5-0.5h48.21c0.28 0 0.5 0.22 0.5 0.5v85.68C52.97 134.72 52.75 134.95 52.47 134.95zM4.77 133.95h47.21V49.27H4.77V133.95z"/>
        <path fill="currentColor" d="M32.42 41.49c0.26 0 0.46 0.21 0.46 0.46 0 0.26-0.21 0.46-0.46 0.46h-8.1c-0.26 0-0.46-0.21-0.46-0.46 0-0.26 0.21-0.46 0.46-0.46H32.42M32.42 40.49h-8.1c-0.81 0-1.46 0.66-1.46 1.46s0.66 1.46 1.46 1.46h8.1c0.81 0 1.46-0.66 1.46-1.46S33.23 40.49 32.42 40.49L32.42 40.49z"/>
        <path fill="currentColor" d="M28.37 145.08c-2.42 0-4.39-1.97-4.39-4.39s1.97-4.39 4.39-4.39 4.39 1.97 4.39 4.39S30.79 145.08 28.37 145.08zM28.37 137.3c-1.87 0-3.39 1.52-3.39 3.39s1.52 3.39 3.39 3.39 3.39-1.52 3.39-3.39S30.24 137.3 28.37 137.3z"/>
      </g>
    </g>
    <g>
      <g>
        <path fill="currentColor" d="M26.96 23.61c-0.03-0.17-0.05-0.33-0.05-0.53 0-0.68 0.28-1.31 1.01-1.86l0.62-0.46c0.39-0.28 0.55-0.63 0.55-1.02 0-0.59-0.42-1.16-1.28-1.16 -0.91 0-1.31 0.73-1.31 1.45 0 0.15 0.01 0.3 0.05 0.41l-1.62-0.06c-0.05-0.18-0.06-0.39-0.06-0.58 0-1.39 1.04-2.72 2.94-2.72 1.99 0 3.03 1.26 3.03 2.56 0 1.02-0.51 1.73-1.27 2.27l-0.53 0.37c-0.45 0.32-0.69 0.72-0.69 1.25v0.08H26.96zM27.68 24.45c0.57 0 1.03 0.46 1.03 1.03 0 0.57-0.46 1.02-1.03 1.02 -0.56 0-1.01-0.45-1.01-1.02C26.66 24.91 27.11 24.45 27.68 24.45z"/>
      </g>
      <g>
        <path fill="currentColor" d="M27.32 12.67c-0.02-0.1-0.03-0.2-0.03-0.32 0-0.42 0.17-0.8 0.62-1.14l0.38-0.28c0.24-0.17 0.34-0.39 0.34-0.62 0-0.36-0.26-0.71-0.79-0.71 -0.56 0-0.8 0.45-0.8 0.89 0 0.09 0.01 0.18 0.03 0.25l-0.99-0.04c-0.03-0.11-0.04-0.24-0.04-0.35 0-0.85 0.64-1.67 1.8-1.67 1.22 0 1.86 0.77 1.86 1.57 0 0.62-0.31 1.06-0.78 1.39l-0.32 0.23c-0.28 0.2-0.43 0.44-0.43 0.76v0.05H27.32zM27.76 13.18c0.35 0 0.63 0.28 0.63 0.63 0 0.35-0.28 0.62-0.63 0.62 -0.35 0-0.62-0.28-0.62-0.62C27.14 13.46 27.42 13.18 27.76 13.18z"/>
      </g>
      <g>
        <path fill="currentColor" d="M23.59 13.32c-0.04-0.09-0.08-0.19-0.12-0.3 -0.11-0.4-0.05-0.82 0.3-1.27l0.29-0.37c0.18-0.23 0.22-0.46 0.16-0.69 -0.1-0.35-0.44-0.62-0.95-0.48 -0.54 0.15-0.66 0.65-0.54 1.07 0.02 0.09 0.06 0.17 0.1 0.24l-0.97 0.22c-0.06-0.1-0.1-0.22-0.13-0.33 -0.22-0.82 0.17-1.78 1.3-2.09 1.18-0.32 2 0.25 2.21 1.02 0.16 0.6-0.02 1.11-0.38 1.55l-0.25 0.31c-0.21 0.26-0.29 0.54-0.21 0.85l0.01 0.05L23.59 13.32zM24.15 13.69c0.33-0.09 0.68 0.11 0.77 0.44 0.09 0.33-0.11 0.67-0.44 0.77 -0.33 0.09-0.67-0.1-0.77-0.44C23.63 14.13 23.82 13.79 24.15 13.69z"/>
      </g>
      <g>
        <path fill="currentColor" d="M20.2 14.91c-0.07-0.08-0.13-0.16-0.19-0.26 -0.21-0.36-0.26-0.78-0.04-1.3l0.18-0.44c0.12-0.27 0.1-0.5-0.02-0.71 -0.18-0.31-0.58-0.48-1.04-0.21 -0.48 0.28-0.46 0.79-0.24 1.18 0.05 0.08 0.1 0.15 0.15 0.2l-0.88 0.47c-0.08-0.08-0.15-0.18-0.21-0.29 -0.43-0.73-0.3-1.76 0.71-2.35 1.05-0.62 1.99-0.28 2.4 0.41 0.32 0.54 0.27 1.08 0.03 1.6l-0.16 0.36c-0.14 0.31-0.14 0.6 0.02 0.87l0.02 0.04L20.2 14.91zM20.84 15.12c0.3-0.18 0.69-0.08 0.86 0.22 0.18 0.3 0.07 0.68-0.23 0.86 -0.3 0.18-0.68 0.08-0.85-0.22C20.45 15.68 20.54 15.3 20.84 15.12z"/>
      </g>
      <g>
        <path fill="currentColor" d="M31.15 13.04c0.01-0.1 0.03-0.21 0.06-0.32 0.11-0.4 0.38-0.73 0.91-0.93l0.44-0.17c0.27-0.1 0.43-0.28 0.49-0.51 0.1-0.35-0.06-0.75-0.57-0.89 -0.54-0.15-0.89 0.22-1.01 0.64 -0.03 0.09-0.04 0.18-0.04 0.25l-0.95-0.3c0-0.11 0.03-0.24 0.06-0.35 0.23-0.82 1.06-1.44 2.19-1.13 1.18 0.33 1.58 1.24 1.37 2.01 -0.17 0.6-0.59 0.94-1.13 1.13L32.6 12.6c-0.32 0.12-0.53 0.31-0.61 0.62l-0.01 0.05L31.15 13.04zM31.44 13.65c0.33 0.09 0.53 0.44 0.44 0.78 -0.09 0.33-0.44 0.52-0.77 0.43 -0.33-0.09-0.53-0.43-0.43-0.77C30.76 13.76 31.1 13.56 31.44 13.65z"/>
      </g>
      <g>
        <path fill="currentColor" d="M34.99 15.18c0.29 0.18 0.39 0.57 0.2 0.87 -0.18 0.29-0.57 0.38-0.86 0.2 -0.3-0.18-0.38-0.56-0.2-0.86C34.31 15.09 34.69 14.99 34.99 15.18zM34.88 14.51c0.04-0.1 0.08-0.19 0.14-0.29 0.22-0.36 0.57-0.59 1.13-0.64l0.47-0.04c0.29-0.02 0.49-0.15 0.62-0.35 0.19-0.31 0.15-0.74-0.3-1.02 -0.48-0.29-0.92-0.04-1.15 0.33 -0.05 0.08-0.09 0.16-0.11 0.23l-0.82-0.56c0.03-0.11 0.09-0.22 0.15-0.32 0.45-0.72 1.42-1.08 2.41-0.47 1.04 0.64 1.17 1.64 0.76 2.31 -0.33 0.53-0.83 0.74-1.4 0.77l-0.39 0.03c-0.34 0.02-0.59 0.15-0.76 0.42l-0.03 0.04L34.88 14.51z"/>
      </g>
      <g>
        <path fill="currentColor" d="M27.32 4c-0.02-0.1-0.03-0.2-0.03-0.32 0-0.42 0.17-0.8 0.62-1.14l0.38-0.28c0.24-0.17 0.34-0.39 0.34-0.62 0-0.36-0.26-0.71-0.79-0.71 -0.56 0-0.8 0.45-0.8 0.89 0 0.09 0.01 0.18 0.03 0.25l-0.99-0.04c-0.03-0.11-0.04-0.24-0.04-0.35 0-0.85 0.64-1.67 1.8-1.67 1.22 0 1.86 0.77 1.86 1.57 0 0.62-0.31 1.06-0.78 1.39L28.6 3.19c-0.28 0.2-0.43 0.44-0.43 0.76V4H27.32zM27.76 4.51c0.35 0 0.63 0.28 0.63 0.63 0 0.35-0.28 0.62-0.63 0.62 -0.35 0-0.62-0.28-0.62-0.62C27.14 4.8 27.42 4.51 27.76 4.51z"/>
      </g>
      <g>
        <path fill="currentColor" d="M23.31 4.41c-0.03-0.1-0.06-0.2-0.08-0.31 -0.07-0.41 0.04-0.82 0.43-1.23l0.33-0.34c0.21-0.21 0.27-0.43 0.24-0.67 -0.06-0.36-0.37-0.66-0.89-0.57 -0.55 0.09-0.72 0.57-0.65 1.01 0.02 0.09 0.04 0.18 0.07 0.24l-0.99 0.12c-0.05-0.1-0.08-0.23-0.1-0.34 -0.14-0.84 0.36-1.75 1.51-1.94 1.21-0.2 1.96 0.46 2.09 1.25 0.1 0.61-0.14 1.1-0.55 1.5l-0.28 0.28c-0.24 0.24-0.35 0.5-0.3 0.82l0.01 0.05L23.31 4.41zM23.83 4.85c0.34-0.06 0.67 0.18 0.72 0.52 0.06 0.34-0.18 0.66-0.52 0.72 -0.34 0.06-0.66-0.17-0.71-0.51C23.26 5.23 23.49 4.9 23.83 4.85z"/>
      </g>
      <g>
        <path fill="currentColor" d="M19.32 5.5c-0.05-0.09-0.1-0.18-0.13-0.3 -0.13-0.4-0.09-0.82 0.22-1.28l0.27-0.39c0.17-0.24 0.2-0.48 0.12-0.7 -0.12-0.34-0.47-0.59-0.97-0.42 -0.53 0.18-0.62 0.68-0.47 1.1 0.03 0.09 0.07 0.17 0.11 0.23l-0.95 0.28c-0.07-0.09-0.11-0.21-0.15-0.32 -0.27-0.81 0.07-1.79 1.17-2.16 1.16-0.39 2.01 0.13 2.27 0.89 0.2 0.59 0.04 1.11-0.29 1.57l-0.23 0.32c-0.2 0.28-0.26 0.56-0.16 0.86l0.02 0.05L19.32 5.5zM19.91 5.84c0.33-0.11 0.69 0.07 0.8 0.39 0.11 0.33-0.07 0.68-0.4 0.79 -0.33 0.11-0.68-0.06-0.79-0.39C19.41 6.31 19.58 5.95 19.91 5.84z"/>
      </g>
      <g>
        <path fill="currentColor" d="M15.65 7.18c-0.06-0.08-0.12-0.17-0.18-0.27 -0.2-0.37-0.22-0.79 0.01-1.3l0.2-0.43c0.13-0.26 0.12-0.5 0.01-0.71 -0.17-0.32-0.56-0.5-1.03-0.26 -0.49 0.26-0.5 0.77-0.29 1.16 0.04 0.08 0.09 0.16 0.15 0.21l-0.9 0.43c-0.08-0.08-0.15-0.19-0.2-0.29 -0.4-0.75-0.22-1.77 0.81-2.32 1.08-0.57 2-0.19 2.38 0.51 0.29 0.55 0.22 1.09-0.03 1.6L16.4 5.86c-0.15 0.3-0.17 0.59-0.02 0.87l0.02 0.04L15.65 7.18zM16.28 7.42c0.31-0.16 0.69-0.05 0.85 0.26s0.04 0.68-0.26 0.85c-0.31 0.16-0.68 0.05-0.84-0.26C15.87 7.97 15.98 7.59 16.28 7.42z"/>
      </g>
      <g>
        <path fill="currentColor" d="M31.83 4.32c0-0.1 0.01-0.21 0.03-0.32 0.08-0.41 0.32-0.76 0.82-1.01l0.42-0.21c0.26-0.13 0.4-0.32 0.45-0.55 0.07-0.36-0.13-0.74-0.65-0.84 -0.55-0.1-0.87 0.3-0.95 0.73 -0.02 0.09-0.02 0.18-0.01 0.25l-0.97-0.22c-0.01-0.11 0-0.24 0.03-0.36 0.15-0.84 0.93-1.53 2.08-1.32 1.2 0.22 1.69 1.09 1.55 1.88 -0.11 0.61-0.5 0.99-1.02 1.23l-0.36 0.17c-0.31 0.14-0.5 0.36-0.56 0.67l-0.01 0.05L31.83 4.32zM32.17 4.9c0.34 0.06 0.57 0.39 0.51 0.73 -0.06 0.34-0.39 0.56-0.73 0.5 -0.34-0.06-0.56-0.38-0.5-0.72C31.51 5.06 31.83 4.84 32.17 4.9z"/>
      </g>
      <g>
        <path fill="currentColor" d="M36.24 6c0.33 0.12 0.49 0.48 0.37 0.81 -0.12 0.33-0.48 0.49-0.81 0.37 -0.33-0.12-0.49-0.48-0.37-0.8C35.55 6.05 35.91 5.88 36.24 6zM36 5.36c0.02-0.1 0.04-0.2 0.08-0.31 0.15-0.39 0.44-0.69 0.98-0.86l0.45-0.14c0.28-0.08 0.45-0.24 0.53-0.47 0.13-0.34 0-0.76-0.49-0.94 -0.52-0.19-0.91 0.14-1.06 0.56 -0.03 0.09-0.06 0.17-0.06 0.25l-0.92-0.38c0.01-0.11 0.05-0.24 0.09-0.35 0.3-0.8 1.18-1.34 2.27-0.94 1.15 0.42 1.48 1.37 1.2 2.12 -0.22 0.58-0.66 0.89-1.21 1.04l-0.38 0.1c-0.33 0.09-0.55 0.27-0.66 0.57L36.8 5.66 36 5.36z"/>
      </g>
      <g>
        <path fill="currentColor" d="M40.15 7.83c0.3 0.18 0.4 0.56 0.22 0.86 -0.18 0.3-0.56 0.39-0.86 0.22 -0.3-0.18-0.4-0.55-0.22-0.85C39.47 7.76 39.85 7.66 40.15 7.83zM40.03 7.17c0.04-0.1 0.08-0.19 0.14-0.3 0.21-0.36 0.56-0.6 1.12-0.67l0.47-0.05c0.29-0.03 0.49-0.16 0.61-0.36 0.18-0.31 0.13-0.74-0.32-1.01 -0.48-0.28-0.92-0.02-1.14 0.36 -0.05 0.08-0.08 0.16-0.1 0.23l-0.84-0.54c0.03-0.11 0.09-0.22 0.15-0.33 0.43-0.73 1.4-1.12 2.4-0.53 1.05 0.62 1.21 1.61 0.81 2.29C43 6.81 42.5 7.03 41.93 7.08l-0.39 0.03c-0.34 0.03-0.59 0.17-0.75 0.44L40.76 7.6 40.03 7.17z"/>
      </g>
    </g>
    <g>
      <path fill="currentColor" d="M39.61 99.43c-0.13 0-0.25-0.05-0.35-0.14 -2.94-2.86-6.81-4.44-10.89-4.44s-7.96 1.58-10.89 4.44c-0.2 0.19-0.51 0.19-0.71-0.01 -0.19-0.2-0.19-0.51 0.01-0.71 3.12-3.04 7.24-4.72 11.59-4.72s8.47 1.68 11.59 4.72c0.2 0.19 0.2 0.51 0.01 0.71C39.87 99.38 39.74 99.43 39.61 99.43z"/>
      <g>
        <path fill="currentColor" d="M35.74 88.48c-0.99 0-1.07-1.83-1.07-2.39s0.08-2.39 1.07-2.39c0.79 0 1.07 1.23 1.07 2.39C36.81 87.25 36.53 88.48 35.74 88.48zM35.74 85.24c-0.04 0.23-0.07 0.52-0.07 0.85s0.03 0.62 0.07 0.85c0.04-0.23 0.07-0.52 0.07-0.85S35.78 85.47 35.74 85.24z"/>
        <path fill="currentColor" d="M21 88.48c-0.79 0-1.07-1.23-1.07-2.39 0-1.16 0.28-2.39 1.07-2.39 0.99 0 1.07 1.83 1.07 2.39S21.99 88.48 21 88.48zM21 85.24c-0.04 0.23-0.07 0.52-0.07 0.85s0.03 0.62 0.07 0.85c0.04-0.23 0.07-0.52 0.07-0.85S21.04 85.47 21 85.24z"/>
      </g>
    </g>
  </g>
</svg>
