<?xml version="1.0" encoding="utf-8"?>
<!-- Generator: Adobe Illustrator 19.1.0, SVG Export Plug-In . SVG Version: 6.00 Build 0)  -->
<svg version="1.1" id="wifi-error" xmlns="http://www.w3.org/2000/svg" xmlns:xlink="http://www.w3.org/1999/xlink" x="0px" y="0px"
	 viewBox="0 0 201 201" enable-background="new 0 0 201 201" xml:space="preserve">
<g>
	<g>
		<g>
			<path fill="currentColor" d="M119.5552216,175.1181488H81.44487c-5.1367188,0-9.315918-4.1787109-9.315918-9.3154297V70.0917892
				c0-5.1367188,4.1791992-9.3154335,9.315918-9.3154335h38.1103516c5.1367188,0,9.315918,4.1787148,9.315918,9.3154335v95.7109299
				C128.8711395,170.9394379,124.6919403,175.1181488,119.5552216,175.1181488z M81.44487,61.7763557
				c-4.5854492,0-8.315918,3.7304726-8.315918,8.3154335v95.7109299c0,4.5849609,3.7304688,8.3154297,8.315918,8.3154297h38.1103516
				c4.5854492,0,8.315918-3.7304688,8.315918-8.3154297V70.0917892c0-4.5849609-3.7304688-8.3154335-8.315918-8.3154335H81.44487z"
				/>
			<path fill="currentColor" d="M124.6030731,161.3276215H76.3970184c-0.2763672,0-0.5-0.2236328-0.5-0.5V75.150383
				c0-0.2763672,0.2236328-0.5,0.5-0.5h48.2060547c0.2763672,0,0.5,0.2236328,0.5,0.5v85.6772385
				C125.1030731,161.1039886,124.8794403,161.3276215,124.6030731,161.3276215z M76.8970184,160.3276215h47.2060547V75.650383
				H76.8970184V160.3276215z"/>
			<path fill="currentColor" d="M104.5497284,67.8729477c0.2565918,0,0.4645996,0.2079468,0.4645996,0.4645081
				c0,0.2565308-0.2080078,0.4645081-0.4645996,0.4645081h-8.0994873c-0.2564697,0-0.4644775-0.2079773-0.4644775-0.4645081
				c0-0.2565613,0.2080078-0.4645081,0.4644775-0.4645081H104.5497284 M104.5497284,66.8729477h-8.0994873
				c-0.8074951,0-1.4644775,0.6569824-1.4644775,1.4645081s0.6569824,1.4645081,1.4644775,1.4645081h8.0994873
				c0.8076172,0,1.4645996-0.6569824,1.4645996-1.4645081S105.3573456,66.8729477,104.5497284,66.8729477L104.5497284,66.8729477z"
				/>
			<path fill="currentColor" d="M100.5000458,171.4643402c-2.4213867,0-4.3916016-1.9702148-4.3916016-4.3916016
				s1.9702148-4.3916016,4.3916016-4.3916016s4.3916016,1.9702148,4.3916016,4.3916016
				S102.9214325,171.4643402,100.5000458,171.4643402z M100.5000458,163.6811371
				c-1.8701172,0-3.3916016,1.5214844-3.3916016,3.3916016s1.5214844,3.3916016,3.3916016,3.3916016
				s3.3916016-1.5214844,3.3916016-3.3916016S102.370163,163.6811371,100.5000458,163.6811371z"/>
		</g>
	</g>
	<g>
		<g>
			<path fill="currentColor" d="M99.0881119,49.9931335c-0.0255127-0.1664314-0.0514374-0.3336945-0.0514374-0.5260506
				c0-0.6807709,0.2826767-1.310524,1.0148849-1.8625031l0.6167908-0.4624901
				c0.3851318-0.2826767,0.5519791-0.6297531,0.5519791-1.0153008c0-0.5904465-0.4235992-1.1558037-1.2841873-1.1558037
				c-0.9120102,0-1.310524,0.7317848-1.310524,1.4510269c0,0.1547203,0.0129623,0.2960625,0.0514374,0.4114723l-1.6182938-0.0643959
				c-0.0514374-0.1798096-0.0643997-0.3855476-0.0643997-0.5779037c0-1.3874664,1.04039-2.7230835,2.9417801-2.7230835
				c1.9908829,0,3.0312729,1.2586746,3.0312729,2.5558205c0,1.0153008-0.5139236,1.7345428-1.271637,2.2739754l-0.5264664,0.3721657
				c-0.4499435,0.3211479-0.6937332,0.7192421-0.6937332,1.2461281v0.0769424H99.0881119z M99.8073502,50.8286247
				c0.565361,0,1.0278473,0.4624901,1.0278473,1.0270119c0,0.5653572-0.4624863,1.0153008-1.0278473,1.0153008
				c-0.5649414,0-1.0144653-0.4499435-1.0144653-1.0153008C98.7928848,51.2911148,99.2424088,50.8286247,99.8073502,50.8286247z"/>
		</g>
		<g>
			<path fill="currentColor" d="M99.4510727,39.0506172c-0.0158844-0.1028671-0.0317764-0.2048988-0.0317764-0.3228226
				c0-0.4181633,0.1735382-0.8037109,0.6226425-1.1432571l0.3780212-0.2835159
				c0.2366791-0.1731224,0.3391342-0.3855476,0.3391342-0.6222305c0-0.3629646-0.2601013-0.7092056-0.7882385-0.7092056
				c-0.5595093,0-0.8037109,0.4491081-0.8037109,0.8906898c0,0.0945053,0.0079422,0.1806488,0.0317764,0.2517357
				L98.20578,37.0727043c-0.0313568-0.1103973-0.0393066-0.2366829-0.0393066-0.3546028
				c0-0.8513832,0.6381226-1.6701469,1.8043823-1.6701469c1.2214508,0,1.8595734,0.7719307,1.8595734,1.5681114
				c0,0.6222305-0.3148804,1.062973-0.7798767,1.3941612l-0.3232422,0.2283173
				c-0.2755661,0.1973724-0.4252701,0.4415817-0.4252701,0.7644043v0.0476685H99.4510727z M99.8922348,39.5624504
				c0.3466644,0,0.6301804,0.2835159,0.6301804,0.6305923s-0.2835159,0.6222267-0.6301804,0.6222267
				c-0.3466568,0-0.6226425-0.2751503-0.6226425-0.6222267S99.545578,39.5624504,99.8922348,39.5624504z"/>
		</g>
		<g>
			<path fill="currentColor" d="M95.7227249,39.6987724c-0.0426559-0.0945053-0.0848846-0.1890106-0.1158295-0.3027496
				c-0.1103973-0.4031105-0.045166-0.8212738,0.2985687-1.2670364l0.2902069-0.3730049
				c0.1823196-0.2299881,0.224968-0.4616508,0.1622467-0.6899681c-0.0957642-0.3495865-0.4382401-0.6155396-0.9475632-0.475872
				c-0.5394287,0.1471939-0.656517,0.6456451-0.5398483,1.0713348c0.0246735,0.0911598,0.0551987,0.172287,0.0970154,0.2350082
				l-0.9680481,0.2233009c-0.0593796-0.0978508-0.1003647-0.2174454-0.1317215-0.3311844
				c-0.224556-0.8204384,0.1743698-1.7797089,1.2992325-2.0874748c1.1783905-0.3228226,1.9975739,0.2542419,2.2079086,1.0219917
				c0.1639175,0.5996475-0.0230026,1.1081352-0.3842926,1.5505524l-0.2513199,0.3052597
				c-0.2136841,0.263443-0.2935486,0.5377579-0.2082443,0.8497086l0.0125427,0.0451622L95.7227249,39.6987724z
				 M96.2834854,40.0767937c0.3341141-0.0919952,0.6824417,0.107048,0.774437,0.4415817
				c0.0911636,0.3345299-0.1095581,0.6749153-0.4432526,0.7669106c-0.3345337,0.0911598-0.6740799-0.1020317-0.7652435-0.4365616
				C95.757431,40.5141907,95.9489517,40.1679535,96.2834854,40.0767937z"/>
		</g>
		<g>
			<path fill="currentColor" d="M92.3289032,41.2869606c-0.0656509-0.0802879-0.1308823-0.1597404-0.1906815-0.2609367
				c-0.2124252-0.3604546-0.2580032-0.7819672-0.0434875-1.3021622l0.1827393-0.4357262
				c0.1158295-0.2684593,0.0961761-0.5043068-0.0238342-0.7083702c-0.1839905-0.3127861-0.5837555-0.4792137-1.0387192-0.2115898
				c-0.4821472,0.2835159-0.4645844,0.7945099-0.2412796,1.1750412c0.0485001,0.0811234,0.0986862,0.1522102,0.1547165,0.2007179
				l-0.8752136,0.4700165c-0.0832138-0.0794525-0.1538849-0.1839943-0.2136841-0.286026
				c-0.4319611-0.7334595-0.2968979-1.7629776,0.7083664-2.3542633c1.0529404-0.6188812,1.9942245-0.2768211,2.3977585,0.4089661
				c0.3152924,0.5369225,0.2676239,1.076355,0.0342865,1.5973854l-0.1626663,0.3604584
				c-0.1371613,0.310276-0.1425934,0.5954666,0.0209122,0.8747978l0.0242462,0.0401459L92.3289032,41.2869606z
				 M92.9691162,41.5052414c0.2985687-0.1756287,0.6866226-0.0752716,0.8626709,0.2241364
				c0.1760483,0.2985687,0.0715103,0.6799355-0.227478,0.8555641s-0.6761703,0.0777779-0.8526382-0.2207909
				C92.5760422,42.064743,92.6701279,41.6808701,92.9691162,41.5052414z"/>
		</g>
		<g>
			<path fill="currentColor" d="M103.2785339,39.4236221c0.0125427-0.1028709,0.0250854-0.2057381,0.0568695-0.3194771
				c0.1120682-0.4022751,0.3826141-0.7276077,0.9057388-0.933342l0.4399109-0.172287
				c0.2747345-0.1037025,0.4307098-0.2810059,0.4942703-0.5084839c0.0970154-0.3495865-0.0610504-0.752697-0.5695419-0.8948708
				c-0.5385971-0.149704-0.8948669,0.2174454-1.0132065,0.6422997c-0.0255127,0.0903206-0.0401459,0.1772995-0.0363846,0.2508965
				l-0.9467239-0.3035851c0-0.1145782,0.0259247-0.2383537,0.0577087-0.3520966
				c0.2283173-0.8195992,1.062973-1.4384842,2.1861572-1.1256981c1.1775513,0.3278427,1.5848465,1.2427864,1.371582,2.009697
				c-0.1672668,0.5996475-0.5896149,0.940033-1.1257019,1.1340599l-0.3730011,0.1338158
				c-0.3186417,0.1162491-0.5277176,0.310276-0.6147003,0.6222267l-0.0125427,0.0459976L103.2785339,39.4236221z
				 M103.5670624,40.0358124c0.3328629,0.0928345,0.5310669,0.4424171,0.4378204,0.7761116
				c-0.0928345,0.3336945-0.4411621,0.5235443-0.774025,0.4307098c-0.3345261-0.0928307-0.5256271-0.4323807-0.4328003-0.7669144
				C102.8913116,40.142025,103.2325287,39.9429817,103.5670624,40.0358124z"/>
		</g>
		<g>
			<path fill="currentColor" d="M107.1143494,41.55793c0.2935486,0.1823196,0.3868027,0.573719,0.2040634,0.8689461
				c-0.1827393,0.294384-0.5703735,0.3788567-0.8639297,0.196537c-0.2952194-0.1823196-0.3842926-0.5620155-0.2015533-0.8563995
				C106.4356689,41.4717865,106.8191223,41.3756104,107.1143494,41.55793z M107.0085526,40.8905411
				c0.0405655-0.0953407,0.0811234-0.1906853,0.1434326-0.2910423c0.2199554-0.355442,0.5703735-0.5921211,1.131134-0.6431389
				l0.4708481-0.0426521c0.292717-0.0225792,0.4909286-0.1497002,0.6151199-0.3504219
				c0.1911011-0.3086052,0.1526337-0.7401466-0.2964783-1.0178108c-0.4750366-0.2943878-0.9191208-0.0418167-1.151207,0.3336945
				c-0.0497589,0.0802879-0.0899048,0.1580696-0.1057892,0.2308273l-0.8233719-0.5561562
				c0.0305328-0.1103973,0.0899124-0.2224655,0.1526337-0.3228226c0.4482727-0.723423,1.4225922-1.0838814,2.4136429-0.4700165
				c1.0387192,0.6439705,1.1746216,1.636692,0.7552032,2.313282c-0.3278427,0.5293961-0.8275452,0.7384796-1.3975067,0.7744408
				l-0.3947449,0.0250893c-0.3387146,0.0217438-0.5946274,0.149704-0.7644043,0.4248543l-0.0250854,0.0401421
				L107.0085526,40.8905411z"/>
		</g>
		<g>
			<path fill="currentColor" d="M99.4510727,30.3845882c-0.0158844-0.102869-0.0317764-0.2049007-0.0317764-0.3228226
				c0-0.4181633,0.1735382-0.8037109,0.6226425-1.143261l0.3780212-0.283514
				c0.2366791-0.1731205,0.3391342-0.3855476,0.3391342-0.6222286c0-0.3629665-0.2601013-0.7092056-0.7882385-0.7092056
				c-0.5595093,0-0.8037109,0.4491081-0.8037109,0.8906898c0,0.0945034,0.0079422,0.1806469,0.0317764,0.2517338
				L98.20578,28.4066734c-0.0313568-0.1103954-0.0393066-0.236681-0.0393066-0.3546028
				c0-0.8513832,0.6381226-1.6701469,1.8043823-1.6701469c1.2214508,0,1.8595734,0.7719307,1.8595734,1.5681133
				c0,0.6222286-0.3148804,1.062973-0.7798767,1.3941593l-0.3232422,0.2283173
				c-0.2755661,0.1973743-0.4252701,0.4415817-0.4252701,0.7644043v0.0476704H99.4510727z M99.8922348,30.8964214
				c0.3466644,0,0.6301804,0.283514,0.6301804,0.6305904s-0.2835159,0.6222267-0.6301804,0.6222267
				c-0.3466568,0-0.6226425-0.2751503-0.6226425-0.6222267S99.545578,30.8964214,99.8922348,30.8964214z"/>
		</g>
		<g>
			<path fill="currentColor" d="M95.4438095,30.7935524c-0.0326157-0.0986862-0.0643997-0.1973724-0.0827942-0.3127861
				c-0.0677414-0.413147,0.0409775-0.8212738,0.4298706-1.2285652l0.3278427-0.3403854
				c0.2057343-0.2090836,0.272644-0.4348907,0.2350082-0.6690636c-0.058548-0.3579483-0.3713303-0.6581898-0.8932037-0.5737209
				c-0.5519714,0.0903244-0.7200775,0.5728855-0.6489868,1.0086117c0.0150528,0.0936699,0.0367966,0.1773014,0.0719223,0.243372
				l-0.9868622,0.1212673c-0.0485077-0.1037045-0.0769424-0.2274818-0.0953445-0.3428936
				c-0.1371613-0.8413467,0.3604584-1.7512722,1.5112457-1.9394455c1.205986-0.196537,1.96035,0.4633255,2.0883102,1.2486382
				c0.1003571,0.6147003-0.1405029,1.0997715-0.5452881,1.5012074l-0.2826767,0.2776623
				c-0.2400284,0.2391891-0.3487473,0.5043049-0.2968979,0.8229465l0.0075302,0.046833L95.4438095,30.7935524z
				 M95.9614944,31.2284431c0.3420639-0.0560341,0.6673889,0.1781387,0.7234268,0.5201969
				c0.0560303,0.3428936-0.1798096,0.6606998-0.5218658,0.7158947c-0.3420639,0.0560341-0.6590271-0.1714478-0.7142258-0.5143414
				C95.3927917,31.6081352,95.6194382,31.2836418,95.9614944,31.2284431z"/>
		</g>
		<g>
			<path fill="currentColor" d="M91.4524384,31.8807793c-0.0485077-0.0928326-0.0953445-0.1839924-0.1338196-0.2960606
				c-0.1346436-0.3955822-0.0944977-0.8162556,0.2216339-1.2820911l0.2667847-0.3897285
				c0.1681061-0.2400265,0.1973724-0.4750347,0.12043-0.6991692c-0.1162491-0.3428955-0.4741974-0.5871029-0.9743195-0.4173279
				c-0.5293961,0.1798096-0.6163712,0.683279-0.4741974,1.1014442c0.0309448,0.0894871,0.0660706,0.1681004,0.1112289,0.2283173
				l-0.9525757,0.2818413c-0.0652313-0.0945034-0.113739-0.2115898-0.1513748-0.3228226
				c-0.2743149-0.8062191,0.0669022-1.786396,1.1708603-2.1619072c1.1566391-0.393074,2.0088577,0.1329765,2.2656097,0.886507
				c0.1998825,0.589613,0.0434875,1.1081352-0.2902069,1.5714607l-0.2333374,0.3194771
				c-0.1973724,0.2759895-0.2600937,0.5553226-0.1563873,0.8614178l0.0150528,0.0451622L91.4524384,31.8807793z
				 M92.0345154,32.2236748c0.3286819-0.1120682,0.6883011,0.0652313,0.79953,0.3939095
				c0.1120682,0.3286781-0.068573,0.6807709-0.3964157,0.7928391c-0.3278427,0.1112328-0.6774292-0.0610542-0.7894974-0.3897285
				C91.5369034,32.6920166,91.7066803,32.3349037,92.0345154,32.2236748z"/>
		</g>
		<g>
			<path fill="currentColor" d="M87.7822113,33.5626335c-0.0618896-0.0836334-0.1237793-0.1664276-0.178978-0.270134
				c-0.1973724-0.3696556-0.224968-0.7911644,0.0117111-1.3021622l0.2007217-0.4273624
				c0.127121-0.2642803,0.1179199-0.500124,0.006691-0.7092056c-0.1706161-0.3203144-0.5636902-0.502634-1.0295258-0.2550812
				c-0.4942703,0.263443-0.497612,0.7744408-0.2902069,1.1641693c0.0443268,0.0827961,0.0920029,0.1555557,0.1463623,0.2065716
				l-0.8957062,0.4323807c-0.0794525-0.0827942-0.1455231-0.1906815-0.2007217-0.294384
				c-0.399765-0.7510242-0.2224655-1.7738533,0.8070602-2.322485c1.0780258-0.5737209,2.0046768-0.1923542,2.3785172,0.5101604
				c0.2927094,0.5494671,0.2216263,1.0863895-0.0326233,1.59655l-0.1781387,0.3537674
				c-0.1505356,0.3044243-0.1680984,0.5896111-0.0158844,0.8747978l0.0217438,0.0418167L87.7822113,33.5626335z
				 M88.4128036,33.8068428c0.3060913-0.1630859,0.6891327-0.0459976,0.8522186,0.2600975
				c0.1630783,0.3060951,0.0426483,0.6832809-0.263443,0.8455276c-0.3060989,0.1639214-0.6791,0.0501785-0.842186-0.2559166
				S88.1067047,33.9690895,88.4128036,33.8068428z"/>
		</g>
		<g>
			<path fill="currentColor" d="M103.9555359,30.6973743c0.0029297-0.1045399,0.0058594-0.2074089,0.0271835-0.323658
				c0.0752716-0.4114742,0.3152924-0.7593861,0.8183441-1.0127926l0.4231873-0.209919
				c0.263855-0.1279583,0.4031067-0.3186417,0.4457626-0.5511398c0.0652313-0.3571129-0.1283798-0.7443314-0.6481552-0.839674
				c-0.5503082-0.1011963-0.8710403,0.296896-0.9509048,0.7317867c-0.0167313,0.0928326-0.0242538,0.1781387-0.0138016,0.2525711
				l-0.9701385-0.2174454c-0.0104599-0.1137409,0.0041809-0.2400246,0.0255051-0.3562756
				c0.1530457-0.8371639,0.9283218-1.5271339,2.0753479-1.3172169c1.2018051,0.2199554,1.6906357,1.0947533,1.5467911,1.8775578
				c-0.1120682,0.6121922-0.5009613,0.9893761-1.0182343,1.2310734l-0.3591995,0.1664295
				c-0.3060989,0.1438484-0.4980316,0.3571129-0.55616,0.6749172l-0.0083618,0.0468349L103.9555359,30.6973743z
				 M104.2971802,31.2802963c0.341217,0.0627232,0.5691223,0.3922367,0.5063934,0.7334595
				c-0.0623093,0.3420563-0.3909836,0.5611763-0.7322083,0.4984512c-0.3407974-0.0627251-0.5624237-0.3822021-0.5001221-0.7242603
				C103.6339722,31.4467239,103.9563751,31.2175713,104.2971802,31.2802963z"/>
		</g>
		<g>
			<path fill="currentColor" d="M108.3646622,32.3792305c0.325325,0.1195946,0.4930115,0.4833984,0.3730011,0.8095665
				c-0.12043,0.3261681-0.481308,0.4859047-0.8066406,0.3663101c-0.3253326-0.12043-0.4888306-0.4750328-0.3684006-0.79953
				C107.6826324,32.429409,108.0397415,32.2588005,108.3646622,32.3792305z M108.1283951,31.74613
				c0.0209122-0.1020317,0.0413971-0.203228,0.0819626-0.3136234c0.1451035-0.393074,0.4415817-0.6941509,0.9801712-0.8563995
				l0.4524536-0.1354847c0.2822647-0.0802879,0.4520416-0.2442074,0.5339966-0.466671
				c0.1258698-0.33955,0.0020905-0.7552032-0.4934311-0.9383602c-0.5247955-0.1940269-0.9095078,0.143013-1.0625534,0.5569954
				c-0.0326157,0.0886497-0.0551987,0.1722832-0.0577087,0.2475529l-0.9178696-0.3805294
				c0.0087814-0.1145763,0.0451584-0.236681,0.0857239-0.3470764c0.2952271-0.7978573,1.1775513-1.3448162,2.2714691-0.9408684
				c1.1457672,0.4231815,1.4769516,1.3673954,1.2009659,2.1150723c-0.2157745,0.582922-0.663208,0.8881817-1.2143478,1.0370464
				l-0.3822021,0.1020336c-0.3270035,0.0903225-0.5519791,0.2676239-0.6640472,0.5703754l-0.016304,0.044323L108.1283951,31.74613z"
				/>
		</g>
		<g>
			<path fill="currentColor" d="M112.2786713,34.2149696c0.2989883,0.1756287,0.3993454,0.562851,0.2237167,0.8622551
				s-0.559082,0.3939095-0.8580704,0.2182808s-0.3976746-0.5528107-0.2220459-0.8522186
				C111.5979004,34.1438828,111.9796829,34.039341,112.2786713,34.2149696z M112.1569901,33.5500908
				c0.0384674-0.0970154,0.0761032-0.1931915,0.1359024-0.2952232c0.211586-0.359623,0.556572-0.6038322,1.1156616-0.6690636
				l0.4695969-0.0543633c0.2918777-0.0292702,0.4875793-0.1597366,0.6075897-0.3638
				c0.1835785-0.3144608,0.1346512-0.7443333-0.3207321-1.0119572c-0.4825592-0.2826805-0.9203796-0.0192356-1.1440964,0.3621292
				c-0.0476685,0.0811234-0.084465,0.1597385-0.0999374,0.2325001l-0.8363266-0.536087
				c0.0288467-0.1112309,0.0857239-0.2241364,0.1455154-0.3261681c0.4311295-0.7342949,1.3958359-1.1173344,2.4015198-0.526886
				c1.0533524,0.6188812,1.213089,1.6074219,0.8099823,2.2940483c-0.3152924,0.5360832-0.8099823,0.7568741-1.3782654,0.8070564
				l-0.3947525,0.0334511c-0.3374557,0.0301094-0.5900269,0.1655922-0.7535324,0.4440918l-0.0242462,0.0409775
				L112.1569901,33.5500908z"/>
		</g>
	</g>
	<g>
		<path fill="currentColor" d="M111.7422333,125.8095627c-0.1259766,0-0.2514648-0.0473633-0.3486328-0.1416016
			c-2.9375-2.8608398-6.8061523-4.4365234-10.8935547-4.4365234s-7.9560547,1.5756836-10.8935547,4.4365234
			c-0.1982422,0.1914062-0.5146484,0.1884766-0.7070312-0.0097656c-0.1923828-0.1977539-0.1884766-0.5141602,0.0097656-0.7070312
			c3.125-3.043457,7.2412109-4.7197266,11.5908203-4.7197266s8.4658203,1.6762695,11.5908203,4.7197266
			c0.1982422,0.1928711,0.2021484,0.5092773,0.0097656,0.7070312
			C112.0024872,125.7592697,111.8721161,125.8095627,111.7422333,125.8095627z"/>
		<g>
			<path fill="currentColor" d="M107.8696747,114.8637619c-0.9897461,0-1.0668945-1.8286133-1.0668945-2.3891602
				s0.0771484-2.3896484,1.0668945-2.3896484c0.7866211,0,1.0668945,1.234375,1.0668945,2.3896484
				C108.9365692,113.6293869,108.6562958,114.8637619,107.8696747,114.8637619z M107.8696747,111.6259689
				c-0.0390625,0.2290039-0.0668945,0.5151367-0.0668945,0.8486328s0.027832,0.6196289,0.0668945,0.8486328
				c0.0390625-0.2294922,0.0668945-0.5151367,0.0668945-0.8486328S107.9087372,111.8549728,107.8696747,111.6259689z"/>
			<path fill="currentColor" d="M93.1304169,114.8637619c-0.7866211,0-1.0668945-1.234375-1.0668945-2.3891602
				c0-1.1552734,0.2802734-2.3896484,1.0668945-2.3896484c0.9897461,0,1.0668945,1.8291016,1.0668945,2.3896484
				S94.120163,114.8637619,93.1304169,114.8637619z M93.1304169,111.6259689
				c-0.0390625,0.2290039-0.0668945,0.5151367-0.0668945,0.8486328s0.027832,0.6191406,0.0668945,0.8486328
				c0.0390625-0.2290039,0.0668945-0.5151367,0.0668945-0.8486328S93.1694794,111.8549728,93.1304169,111.6259689z"/>
		</g>
	</g>
</g>
</svg>
